<svg width="26" height="10" viewBox="0 0 26 10" fill="none" xmlns="http://www.w3.org/2000/svg">
<path d="M6.31785 9.0975H0.784424V8.10819L2.90278 5.96189C3.31266 5.54456 3.64988 5.18498 3.91444 4.88315C4.179 4.57761 4.37463 4.28882 4.50132 4.01681C4.63174 3.7448 4.69695 3.44856 4.69695 3.12811C4.69695 2.73313 4.5833 2.43503 4.356 2.23382C4.1287 2.02888 3.82874 1.92641 3.45612 1.92641C3.10213 1.92641 2.77422 1.9972 2.4724 2.1388C2.1743 2.27667 1.86503 2.47416 1.54457 2.73127L0.823549 1.86492C1.05085 1.67116 1.29305 1.49416 1.55016 1.33394C1.811 1.17371 2.10164 1.04702 2.42209 0.953864C2.74255 0.856983 3.10772 0.808542 3.5176 0.808542C4.03554 0.808542 4.48269 0.901697 4.85904 1.08801C5.23538 1.27059 5.52417 1.52584 5.72538 1.85374C5.93032 2.18165 6.03279 2.56359 6.03279 2.99955C6.03279 3.43925 5.94523 3.8454 5.7701 4.21803C5.59496 4.59065 5.34531 4.95954 5.02113 5.32471C4.69695 5.68615 4.31128 6.07927 3.86414 6.50406L2.45004 7.88462V7.9461H6.31785V9.0975Z" fill="white"/>
<path d="M12.8685 5.00612C12.8685 5.66566 12.8164 6.25626 12.712 6.77793C12.6114 7.29588 12.4512 7.73557 12.2313 8.09701C12.0115 8.45846 11.7246 8.7342 11.3706 8.92423C11.0166 9.11427 10.5881 9.20929 10.0851 9.20929C9.45532 9.20929 8.93551 9.04347 8.52563 8.71184C8.11575 8.37648 7.81206 7.8958 7.61457 7.26979C7.41708 6.64006 7.31834 5.88551 7.31834 5.00612C7.31834 4.12673 7.40777 3.37404 7.58662 2.74804C7.76921 2.11831 8.06358 1.63576 8.46974 1.3004C8.87589 0.965043 9.41433 0.797363 10.0851 0.797363C10.7185 0.797363 11.2402 0.965043 11.6501 1.3004C12.0637 1.63203 12.3692 2.11272 12.5667 2.74245C12.7679 3.36845 12.8685 4.12301 12.8685 5.00612ZM8.64301 5.00612C8.64301 5.69547 8.68772 6.27117 8.77715 6.73322C8.87031 7.19527 9.02308 7.54181 9.23547 7.77283C9.44787 8.00013 9.73106 8.11378 10.0851 8.11378C10.439 8.11378 10.7222 8.00013 10.9346 7.77283C11.147 7.54553 11.2998 7.20086 11.393 6.73881C11.4898 6.27676 11.5383 5.6992 11.5383 5.00612C11.5383 4.3205 11.4917 3.74666 11.3985 3.28461C11.3054 2.82256 11.1526 2.47602 10.9402 2.245C10.7278 2.01025 10.4428 1.89287 10.0851 1.89287C9.72733 1.89287 9.44228 2.01025 9.22988 2.245C9.02122 2.47602 8.87031 2.82256 8.77715 3.28461C8.68772 3.74666 8.64301 4.3205 8.64301 5.00612Z" fill="white"/>
<path d="M17.748 9.0975H16.4289V3.83795C16.4289 3.66282 16.4308 3.48769 16.4345 3.31256C16.4382 3.13742 16.442 2.96602 16.4457 2.79834C16.4531 2.63066 16.4625 2.47043 16.4736 2.31766C16.3954 2.40336 16.2985 2.49652 16.183 2.59712C16.0712 2.69773 15.952 2.80207 15.8253 2.91013L14.8863 3.65909L14.2267 2.82629L16.6525 0.925918H17.748V9.0975Z" fill="white"/>
<path d="M23.192 0.814131C23.6652 0.814131 24.0919 0.888655 24.472 1.0377C24.852 1.18303 25.1539 1.40101 25.3774 1.69165C25.601 1.9823 25.7128 2.34188 25.7128 2.77039C25.7128 3.10203 25.6439 3.39081 25.506 3.63674C25.3718 3.88267 25.1893 4.09879 24.9582 4.2851C24.7272 4.46768 24.4682 4.62977 24.1813 4.77137C24.5018 4.92787 24.7961 5.10859 25.0644 5.31353C25.3364 5.51475 25.5544 5.75136 25.7184 6.02338C25.8861 6.29539 25.9699 6.61398 25.9699 6.97915C25.9699 7.43747 25.8525 7.83432 25.6178 8.16967C25.3867 8.50131 25.0644 8.75842 24.6508 8.941C24.2372 9.11986 23.7547 9.20929 23.2032 9.20929C22.6107 9.20929 22.1058 9.12172 21.6885 8.94659C21.2711 8.77146 20.9544 8.5218 20.7383 8.19762C20.5222 7.86971 20.4141 7.47846 20.4141 7.02386C20.4141 6.64752 20.4886 6.32147 20.6377 6.04573C20.7867 5.76999 20.9861 5.53152 21.2357 5.3303C21.4891 5.12909 21.7667 4.95954 22.0686 4.82167C21.8114 4.6689 21.5767 4.49749 21.3643 4.30746C21.1519 4.11369 20.9824 3.89198 20.8557 3.64233C20.7327 3.38894 20.6712 3.09644 20.6712 2.7648C20.6712 2.34002 20.7849 1.98416 21.0122 1.69724C21.2395 1.4066 21.5432 1.18675 21.9232 1.0377C22.307 0.888655 22.73 0.814131 23.192 0.814131ZM21.6661 6.97356C21.6661 7.33128 21.7928 7.62565 22.0462 7.85667C22.2996 8.0877 22.6778 8.20321 23.1808 8.20321C23.6801 8.20321 24.0602 8.08956 24.321 7.86226C24.5819 7.63496 24.7123 7.335 24.7123 6.96238C24.7123 6.7239 24.6452 6.51337 24.5111 6.33079C24.3807 6.1482 24.2037 5.98611 23.9801 5.84452C23.7603 5.6992 23.5162 5.56505 23.2479 5.44209L23.069 5.36943C22.7784 5.49239 22.5287 5.63212 22.3201 5.78862C22.1114 5.9414 21.9493 6.11467 21.8338 6.30843C21.722 6.50219 21.6661 6.7239 21.6661 6.97356ZM23.1808 1.8258C22.8194 1.8258 22.5213 1.91523 22.2865 2.09409C22.0555 2.26922 21.94 2.5226 21.94 2.85423C21.94 3.08898 21.9959 3.2902 22.1077 3.45788C22.2232 3.62556 22.3778 3.77088 22.5716 3.89385C22.7654 4.01308 22.9796 4.12487 23.2144 4.2292C23.4417 4.1286 23.6466 4.01867 23.8292 3.89944C24.0155 3.77647 24.1627 3.63115 24.2707 3.46347C24.3825 3.29206 24.4384 3.08712 24.4384 2.84864C24.4384 2.52074 24.321 2.26922 24.0863 2.09409C23.8553 1.91523 23.5534 1.8258 23.1808 1.8258Z" fill="white"/>
</svg>
