<svg width="198" height="198" viewBox="0 0 198 198" fill="none" xmlns="http://www.w3.org/2000/svg">
<circle cx="99" cy="99" r="99" fill="#2E83A0" fill-opacity="0.32"/>
<circle cx="99" cy="99" r="82" fill="#2E83A0"/>
<path d="M137.799 69.1924L137.799 69.1929C137.767 74.3288 137.771 79.4667 137.775 84.6045C137.776 86.3171 137.778 88.0297 137.778 89.7421V89.7505C137.778 91.5806 137.776 93.4108 137.774 95.241C137.769 99.2679 137.764 103.295 137.782 107.32C137.82 116.278 134.098 123.299 126.723 128.5L126.579 128.295L126.723 128.5C118.097 134.581 109.497 140.7 100.926 146.861L100.926 146.861C100.409 147.233 99.9511 147.435 99.472 147.423C98.996 147.411 98.5494 147.189 98.0528 146.832C92.8315 143.082 87.5929 139.361 82.3536 135.639C78.8599 133.157 75.3659 130.675 71.8767 128.184C64.9501 123.24 61.2906 116.532 61.2434 108.077C61.2022 100.667 61.2053 93.2526 61.2084 85.8397C61.2108 80.2809 61.2131 74.7226 61.1967 69.1669M137.799 69.1924L61.4467 69.1662M137.799 69.1924C137.801 68.6743 137.717 68.2483 137.483 67.8953C137.249 67.5429 136.889 67.2967 136.408 67.0921M137.799 69.1924L137.549 69.1913C137.553 68.2063 137.226 67.7117 136.309 67.3219M61.1967 69.1669L61.4467 69.1662M61.1967 69.1669C61.1967 69.167 61.1967 69.1671 61.1967 69.1672L61.4467 69.1662M61.1967 69.1669C61.1945 68.627 61.2997 68.2035 61.5521 67.8606C61.8011 67.5223 62.1707 67.2939 62.6301 67.0964L62.6302 67.0964C67.544 64.9879 72.4562 62.8721 77.3687 60.7561C84.3983 57.7283 91.4286 54.7001 98.4656 51.6925L98.4662 51.6923C98.7761 51.5608 99.1527 51.4995 99.519 51.4995C99.8854 51.4995 100.262 51.5608 100.572 51.6923L100.572 51.6925C107.239 54.5419 113.899 57.4099 120.559 60.2779C125.841 62.5525 131.123 64.827 136.408 67.0921M61.4467 69.1662C61.4425 68.1518 61.8415 67.7075 62.7288 67.3261C67.6433 65.2173 72.5557 63.1014 77.4683 60.9854C84.4974 57.9578 91.5269 54.9299 98.5638 51.9224C99.1072 51.6919 99.9308 51.6919 100.474 51.9224C107.141 54.7718 113.8 57.6395 120.46 60.5072C125.741 62.7818 131.023 65.0564 136.309 67.3219M136.408 67.0921C136.408 67.092 136.407 67.0919 136.407 67.0918L136.309 67.3219M136.408 67.0921L136.309 67.3219M142.689 88.6672L142.614 88.7406V88.8451C142.614 91.0302 142.638 93.2137 142.663 95.3957C142.718 100.325 142.773 105.246 142.546 110.16L142.796 110.171L142.546 110.16C142.155 118.685 138.363 125.805 131.481 130.945C124.32 136.293 117.004 141.44 109.685 146.588C107.25 148.301 104.815 150.014 102.385 151.735L102.384 151.735C101.387 152.443 100.412 152.769 99.4461 152.751C98.479 152.733 97.4941 152.37 96.4795 151.652C94.0572 149.935 91.6318 148.224 89.2068 146.513C82.233 141.592 75.2628 136.674 68.3784 131.64C60.3267 125.752 56.3344 117.692 56.2839 107.823L56.2839 107.823C56.2414 99.7834 56.2475 91.7441 56.2536 83.7033C56.2579 78.0983 56.2621 72.4927 56.2499 66.8857C56.25 66.0553 56.4065 65.4084 56.7417 64.8892C57.0765 64.3705 57.6068 63.9526 58.4034 63.6118C71.522 58.0034 84.6193 52.3531 97.7038 46.6652C98.9668 46.1176 100.037 46.1067 101.292 46.6525L101.292 46.6525C114.329 52.3111 127.376 57.9531 140.448 63.5364L140.448 63.5365C141.303 63.901 141.874 64.3434 142.234 64.8967C142.594 65.4501 142.76 66.1421 142.754 67.0394C142.717 72.3519 142.723 77.6649 142.729 82.9751C142.731 84.8583 142.733 86.7411 142.733 88.6233L142.693 88.663L142.689 88.6672Z" fill="white" stroke="#2E83A0" stroke-width="0.5"/>
<path d="M72.1031 92.3591H72.1072C72.1063 90.8548 72.1075 89.351 72.1087 87.8477C72.1119 83.9962 72.115 80.1474 72.0819 76.2981L72.0819 76.298C72.0775 75.7687 72.1442 75.3257 72.3739 74.9537C72.6051 74.5795 72.9782 74.3137 73.5073 74.0876L73.5079 74.0874C77.6655 72.3231 81.8136 70.5367 85.9625 68.7496L86.2173 68.6398C90.281 66.8893 94.3456 65.1384 98.4195 63.4076C98.7507 63.2667 99.1535 63.2071 99.5445 63.2127C99.9361 63.2183 100.336 63.2896 100.665 63.4283L100.666 63.4285C105.351 65.4204 110.031 67.4357 114.71 69.4508C118.33 71.0098 121.95 72.5688 125.573 74.1168C126.011 74.3026 126.357 74.5213 126.588 74.8444C126.821 75.1706 126.914 75.5702 126.914 76.0696V76.0705C126.895 81.2848 126.896 86.5083 126.896 91.7324C126.897 97.2322 126.897 102.733 126.876 108.223C126.876 108.223 126.876 108.223 126.876 108.223L126.626 108.222C126.609 112.766 124.63 116.404 120.924 119.066L72.1031 92.3591ZM72.1031 92.3591V92.6091C72.1031 94.3002 72.1046 95.991 72.106 97.6816C72.1088 101.062 72.1116 104.443 72.1031 107.823C72.0859 112.706 74.1264 116.566 78.1088 119.407L72.1031 92.3591ZM67.1394 73.929L67.1394 73.929C67.1291 73.0511 67.2988 72.3879 67.6529 71.8621C68.0076 71.3353 68.5662 70.9187 69.3859 70.5699C78.8708 66.5331 88.33 62.442 97.7762 58.3301C98.9794 57.8078 100.015 57.7967 101.219 58.3215L101.22 58.3216C110.717 62.4504 120.231 66.5498 129.754 70.6241C130.501 70.9445 131.018 71.3404 131.351 71.8398C131.684 72.3387 131.85 72.966 131.848 73.7802C131.828 79.8144 131.829 85.8522 131.83 91.8888C131.831 97.254 131.832 102.618 131.818 107.979V107.979C131.806 114.418 129.091 119.541 123.822 123.318L123.822 123.318C118.076 127.442 112.305 131.531 106.533 135.62C104.856 136.808 103.178 137.997 101.501 139.186C100.625 139.807 100.046 140.075 99.4956 140.073C98.9451 140.071 98.3673 139.8 97.4948 139.178L97.4945 139.178C95.5354 137.787 93.5758 136.398 91.6164 135.009C86.1277 131.119 80.6404 127.229 75.1691 123.31L75.0235 123.513L75.169 123.31C69.8962 119.533 67.1942 114.418 67.1691 107.974C67.1544 104.211 67.158 100.447 67.1616 96.6809C67.1632 95.0067 67.1648 93.3323 67.1648 91.6577C67.1648 90.017 67.1681 88.3759 67.1714 86.7346C67.1799 82.466 67.1884 78.1961 67.1394 73.929Z" fill="white" stroke="#2E83A0" stroke-width="0.5"/>
<path d="M92.2055 104.976C92.6517 104.601 93.029 104.285 93.4032 103.968C100.002 98.3918 106.598 92.8147 113.202 87.2436C113.579 86.9277 113.967 86.5766 114.405 86.3948C115.335 86.0093 116.187 86.2237 116.785 87.0474C117.373 87.8578 117.389 88.7491 116.765 89.5854C116.519 89.9134 116.199 90.1871 115.884 90.4521C108.502 96.7001 101.113 102.946 93.7254 109.189C91.9193 110.716 90.995 110.595 89.6323 108.673C87.8381 106.135 86.0348 103.605 84.2578 101.054C83.3735 99.7824 83.529 98.5298 84.6072 97.7691C85.6 97.0664 86.7374 97.2873 87.5633 98.4294C89.0964 100.548 90.5929 102.697 92.2076 104.98L92.2055 104.976Z" fill="white"/>
</svg>
