<svg width="155" height="138" viewBox="0 0 155 138" fill="none" xmlns="http://www.w3.org/2000/svg">
<g clip-path="url(#clip0_358_131)">
<path d="M146.417 68.6815C144.781 70.2507 143.205 71.6992 141.69 73.208C141.508 73.3891 141.387 73.5701 141.205 73.6908C140.78 74.0529 140.78 74.3547 141.144 74.7772C142.417 76.4671 143.629 78.1569 144.902 79.8468C145.023 80.0279 145.205 80.2693 145.387 80.571C145.144 80.7521 144.963 80.9332 144.72 81.0539C142.962 82.2006 141.205 83.4076 139.447 84.5543C138.902 84.9165 138.841 85.2182 139.144 85.7614C140.114 87.6323 141.023 89.5033 141.932 91.3139C142.053 91.5553 142.175 91.7967 142.296 92.0984C141.993 92.2192 141.811 92.3399 141.568 92.4606C139.629 93.3055 137.689 94.1504 135.75 94.9954C135.204 95.2368 135.022 95.4782 135.204 96.0817C135.81 98.013 136.356 99.9443 136.901 101.936C137.204 102.962 137.204 102.962 136.113 103.203C134.234 103.686 132.356 104.169 130.416 104.591C129.628 104.773 129.446 105.135 129.567 105.859C129.81 107.911 129.992 109.963 130.295 112.015C130.355 112.558 130.234 112.739 129.689 112.739C127.567 112.86 125.446 113.041 123.324 113.162C122.658 113.222 122.415 113.463 122.355 114.127C122.233 116.24 122.052 118.352 121.93 120.464C121.87 121.007 121.688 121.128 121.142 121.068C119.021 120.826 116.96 120.645 114.839 120.344C114.112 120.283 113.808 120.464 113.687 121.128C113.202 123.18 112.717 125.172 112.233 127.163C112.111 127.767 111.93 127.888 111.263 127.707C109.263 127.103 107.262 126.56 105.262 125.956C104.535 125.715 104.232 125.896 103.929 126.62C103.141 128.491 102.292 130.362 101.444 132.233C101.323 132.475 101.201 132.656 101.08 132.957C100.05 132.475 99.08 131.992 98.1102 131.509C96.9586 130.966 95.807 130.423 94.6554 129.819C94.1099 129.517 93.8068 129.578 93.5038 130.121C92.3522 131.871 91.2005 133.561 90.0489 135.311C89.8671 135.552 89.7459 135.794 89.5034 136.035C89.0185 135.673 88.5336 135.371 88.1094 135.07C86.6547 134.044 85.2 133.018 83.806 131.931C83.2605 131.509 82.9574 131.509 82.4725 132.052C81.0785 133.561 79.6238 135.009 78.2298 136.518C78.0479 136.699 77.9267 137.001 77.7449 137.242C77.1387 136.639 76.6539 136.216 76.2296 135.734C75.078 134.526 73.9264 133.38 72.8354 132.173C72.108 131.388 72.108 131.388 71.1989 132.052C69.5624 133.259 67.9865 134.406 66.35 135.613C66.1681 135.734 65.9257 135.915 65.6832 136.096C65.3802 135.673 65.1377 135.311 64.8953 134.949C63.8649 133.38 62.7739 131.871 61.7435 130.302C61.3192 129.698 61.0162 129.638 60.4101 129.94C58.6523 130.845 56.834 131.75 55.0157 132.595C54.7126 132.716 54.4702 132.837 54.1065 133.018C53.9853 132.716 53.8641 132.475 53.7428 132.233C52.8943 130.302 52.0457 128.37 51.1972 126.439C50.9547 125.896 50.7123 125.775 50.1668 125.956C48.2272 126.56 46.2877 127.103 44.2875 127.646C43.1965 127.948 43.1965 127.948 42.9541 126.862C42.4692 124.991 41.9843 123.12 41.56 121.189C41.3782 120.404 41.0751 120.283 40.3478 120.344C38.287 120.585 36.2262 120.766 34.1654 121.068C33.5593 121.128 33.3775 121.007 33.3775 120.404C33.2563 118.292 33.0744 116.179 32.9532 114.067C32.8926 113.403 32.7108 113.162 32.0441 113.162C29.862 113.041 27.7407 112.86 25.5587 112.739C25.0132 112.739 24.9525 112.498 24.9525 112.015C25.195 109.903 25.3768 107.79 25.6799 105.678C25.7405 105.014 25.5587 104.712 24.8919 104.531C22.8312 104.048 20.7704 103.505 18.7702 103.022C18.2247 102.902 18.0429 102.721 18.2247 102.117C18.8308 100.186 19.3763 98.2544 19.9218 96.3835C20.2855 95.2368 20.2855 95.2368 19.1945 94.754C17.3761 93.9694 15.5578 93.1848 13.7395 92.3399C13.497 92.2191 13.2546 92.0984 12.9515 91.9777C13.0728 91.676 13.194 91.3742 13.3152 91.1328C14.2244 89.2619 15.1335 87.3909 16.1033 85.5803C16.3458 85.0372 16.2851 84.7957 15.8003 84.4336C14.0425 83.2869 12.2848 82.0799 10.5271 80.9332C10.3453 80.8125 10.1028 80.6314 9.79975 80.4503C9.98159 80.2089 10.1028 80.0279 10.224 79.8468C11.4969 78.1569 12.7091 76.4671 13.9819 74.7772C14.3456 74.234 14.3456 73.9322 13.8607 73.5098C12.1636 71.9406 10.4665 70.3111 8.46631 68.3798C8.76936 68.1987 9.13303 68.1384 9.37548 67.8969C10.8301 66.5088 12.2848 65.1207 13.7395 63.793C14.285 63.3101 14.4062 62.948 13.9213 62.2841C12.5273 60.4735 11.1938 58.6026 9.79975 56.7317C10.0422 56.5506 10.2846 56.3696 10.4665 56.1885C12.1636 55.0418 13.8607 53.8951 15.6184 52.7484C16.2851 52.3259 16.2851 51.9638 15.9821 51.3603C14.8305 49.4893 13.8607 47.4373 12.8303 45.2646C13.1334 45.1439 13.3152 44.9629 13.5576 44.9025C15.4972 44.0576 17.4368 43.1523 19.4369 42.3073C19.9218 42.0659 20.043 41.8245 19.9218 41.2813C19.3157 39.2897 18.7702 37.2377 18.1035 35.2461C17.9216 34.5822 17.9823 34.2804 18.7096 34.1597C20.7098 33.7372 22.6493 33.1941 24.6495 32.7716C25.4374 32.5905 25.6193 32.2284 25.498 31.5042C25.2556 29.4522 25.0738 27.4002 24.8313 25.4085C24.7707 24.805 24.8919 24.624 25.498 24.5636C27.6194 24.4429 29.6802 24.2618 31.8016 24.1411C32.5289 24.0808 32.7108 23.8394 32.7714 23.1755C32.8926 20.8821 33.0744 18.5887 33.2563 16.1746C34.4079 16.2953 35.5595 16.416 36.6505 16.5367C37.8627 16.6574 39.1356 16.7781 40.3478 16.9591C41.0145 17.0195 41.2569 16.8384 41.4388 16.2349C41.9237 14.1829 42.4692 12.1309 42.9541 10.1393C43.0753 9.53574 43.2571 9.41504 43.9238 9.59609C45.8028 10.1996 47.6817 10.6824 49.5607 11.2256C51.076 11.6481 50.7729 11.7084 51.379 10.3807C52.167 8.63045 52.9549 6.88022 53.7428 5.12998C53.8641 4.88857 53.9853 4.70751 54.1065 4.40575C55.8036 5.25069 57.4401 6.03528 59.0766 6.81986C59.804 7.18198 60.5919 7.78551 61.198 7.6648C61.7435 7.5441 62.1072 6.5181 62.5921 5.91457C63.6225 4.40575 64.6528 2.89693 65.6832 1.32775C66.2287 1.75022 66.7742 2.11234 67.2591 2.47446C68.6532 3.50046 70.0472 4.4661 71.3807 5.4921C71.9262 5.91457 72.2292 5.91457 72.7141 5.37139C74.1082 3.86257 75.5629 2.41411 76.9569 0.905284C77.1387 0.724225 77.26 0.422461 77.5024 0.120697C78.0479 0.663873 78.4722 1.08634 78.8359 1.50881C80.0481 2.77622 81.2603 3.98328 82.4725 5.31104C83.018 5.91457 83.3817 5.85422 83.9878 5.43175C85.6243 4.22469 87.2608 3.01763 88.8973 1.81058C89.0791 1.68987 89.3216 1.50881 89.564 1.32775C89.8065 1.62952 89.9883 1.87093 90.1702 2.17269C91.3218 3.86257 92.4734 5.4921 93.5644 7.24233C93.928 7.78551 94.2311 7.84586 94.8372 7.5441C96.6555 6.57845 98.5345 5.73351 100.353 4.82822C100.595 4.70751 100.838 4.58681 101.201 4.4661C101.323 4.76787 101.444 5.00928 101.565 5.25069C102.414 7.12163 103.262 9.05292 104.05 10.9239C104.293 11.5274 104.596 11.6481 105.202 11.467C107.141 10.8635 109.141 10.3203 111.142 9.7168C112.051 9.47539 112.051 9.47539 112.293 10.3807C112.778 12.312 113.263 14.2433 113.687 16.1746C113.869 16.8988 114.172 17.0798 114.899 17.0195C116.96 16.7781 118.96 16.597 121.021 16.3556C121.264 16.3556 121.506 16.2953 121.809 16.2953C121.93 17.6834 121.991 19.0111 122.112 20.3389C122.173 21.3649 122.294 22.3909 122.294 23.4169C122.294 24.0204 122.537 24.2015 123.143 24.2618C125.325 24.3825 127.507 24.5636 129.689 24.6843C130.234 24.6843 130.355 24.8654 130.295 25.4085C130.052 27.5209 129.87 29.5729 129.567 31.6852C129.446 32.4095 129.628 32.7112 130.416 32.8923C132.416 33.3148 134.356 33.8579 136.356 34.2804C137.023 34.4615 137.265 34.6425 137.023 35.3668C136.416 37.3584 135.871 39.3501 135.265 41.3417C135.083 41.9452 135.204 42.247 135.81 42.4884C137.75 43.273 139.629 44.1783 141.508 44.9629C141.75 45.0836 141.993 45.2043 142.296 45.325C142.175 45.6267 142.053 45.8682 141.932 46.1096C141.023 47.9805 140.114 49.8514 139.144 51.662C138.841 52.2052 138.902 52.5673 139.447 52.8691C141.205 54.0158 142.902 55.1625 144.66 56.3092C144.902 56.4903 145.084 56.611 145.387 56.8524C144.175 58.5423 142.962 60.1718 141.75 61.8013C140.72 63.2498 140.72 63.2498 141.993 64.4568C143.387 65.7846 144.841 67.2331 146.417 68.6815ZM76.8357 129.034C110.293 129.517 137.932 102.479 138.174 69.1644C138.417 36.9359 113.021 10.0186 80.6542 8.38904C45.6209 6.69916 17.0731 34.4615 16.8913 68.3194C16.7094 101.815 43.8632 128.793 76.8357 129.034Z" fill="#7F7F7F"/>
<path d="M77.8659 130.06C111.91 130.06 139.507 102.58 139.507 68.6816C139.507 34.783 111.91 7.3027 77.8659 7.3027C43.8222 7.3027 16.2244 34.783 16.2244 68.6816C16.2244 102.58 43.8222 130.06 77.8659 130.06Z" fill="white"/>
<path d="M64.2285 110.385C64.5316 110.747 64.7134 111.23 64.774 111.713C64.7134 111.17 64.5316 110.747 64.2285 110.385Z" fill="#F7911F"/>
<path d="M45.6819 107.307C45.6211 107.368 45.5603 107.489 45.5603 107.55C45.6211 107.428 45.6211 107.368 45.6819 107.307Z" fill="#F7911F"/>
<path d="M63.6231 109.843C63.5623 109.782 63.5015 109.722 63.4407 109.661C63.5015 109.661 63.5623 109.722 63.6231 109.843Z" fill="#F7911F"/>
<path d="M133.689 89.2015C133.689 89.2621 133.628 89.3226 133.628 89.3226C133.628 89.2621 133.628 89.2621 133.689 89.2015Z" fill="black"/>
<path d="M45.9844 106.885L45.9238 106.945C45.9844 106.945 45.9844 106.885 45.9844 106.885Z" fill="#F7911F"/>
<path d="M48.712 102.962C48.2271 103.747 47.5604 104.41 47.1967 105.255C47.5604 104.41 48.1665 103.747 48.712 102.962Z" fill="#F7911F"/>
<path d="M45.8638 107.066C45.7422 107.066 45.6814 107.127 45.6814 107.187C45.6814 107.127 45.7422 107.127 45.8638 107.066Z" fill="#F7911F"/>
<path d="M47.4392 109.48C47.5604 109.42 47.6817 109.299 47.8029 109.239C47.621 109.299 47.4998 109.42 47.4392 109.48Z" fill="#F7911F"/>
<path d="M95.5645 111.773C95.5645 111.955 95.5039 112.075 95.5039 112.256C95.5645 112.075 95.5645 111.894 95.5645 111.773Z" fill="#F7911F"/>
<path d="M60.1675 12.1309C60.8342 12.1309 61.4403 11.8895 61.9858 11.7085C61.3797 11.8895 60.8342 12.0706 60.1675 12.1309Z" fill="#F7911F"/>
<path d="M95.5645 112.921C95.5645 112.86 95.6253 112.8 95.6253 112.739C95.5645 112.8 95.5645 112.86 95.5645 112.921Z" fill="#F7911F"/>
<path d="M95.3826 110.084C95.3826 110.265 95.3826 110.506 95.3826 110.687C95.4432 110.506 95.4432 110.265 95.3826 110.084Z" fill="#F7911F"/>
<path d="M97.8677 111.291C97.8677 111.17 97.9283 111.049 97.9283 110.929C97.9283 111.11 97.9283 111.23 97.8677 111.291Z" fill="#F7911F"/>
<path d="M97.7466 108.816C97.8072 108.635 97.7466 108.454 97.7466 108.333C97.8072 108.454 97.8072 108.635 97.7466 108.816Z" fill="#F7911F"/>
<path d="M54.5914 25.2878C54.5914 25.5293 54.5308 25.7103 54.4096 25.8914C54.5308 25.7103 54.5914 25.4689 54.5914 25.2878Z" fill="#F7911F"/>
<path d="M95.3833 107.79C95.2009 107.851 95.1401 107.911 95.1401 107.972C95.1401 107.911 95.2617 107.851 95.3833 107.79Z" fill="#F7911F"/>
<path d="M95.2613 108.816C95.2613 109.118 95.2007 109.48 95.2613 109.782C95.2007 109.42 95.2613 109.118 95.2613 108.816Z" fill="#F7911F"/>
<path d="M117.991 112.558C117.991 112.498 117.93 112.498 117.93 112.498C117.93 112.498 117.93 112.558 117.991 112.558Z" fill="#F7911F"/>
<path d="M118.173 112.377L118.112 112.438C118.112 112.438 118.173 112.438 118.173 112.377Z" fill="#F7911F"/>
<path d="M55.1974 107.368C55.1974 107.609 55.1368 107.851 55.0762 108.092C55.1974 107.851 55.1974 107.609 55.1974 107.368Z" fill="#F7911F"/>
<path d="M110.535 118.412C110.657 118.473 110.779 118.412 110.839 118.352C110.779 118.473 110.657 118.473 110.535 118.412Z" fill="#F7911F"/>
<path d="M111.081 117.99C111.203 118.05 111.324 118.05 111.385 117.99C111.324 118.05 111.263 118.05 111.081 117.99Z" fill="#F7911F"/>
<path d="M110.354 118.594C110.414 118.533 110.475 118.533 110.536 118.473C110.475 118.473 110.414 118.533 110.354 118.594Z" fill="#F7911F"/>
<path d="M39.1355 104.833C39.1355 104.773 39.1963 104.773 39.2571 104.773C39.2571 104.773 39.1963 104.833 39.1355 104.833Z" fill="#F7911F"/>
<path d="M46.1057 106.644L46.1663 106.583C46.1057 106.583 46.1057 106.644 46.1057 106.644Z" fill="#F7911F"/>
<path d="M110.899 118.292L110.838 118.352C110.838 118.352 110.899 118.352 110.899 118.292Z" fill="#F7911F"/>
<path d="M45.8027 97.6509C45.8635 97.772 45.9851 97.8325 46.0459 97.9536C45.9851 97.8325 45.9243 97.7114 45.8027 97.6509Z" fill="#F7911F"/>
<path d="M39.6209 104.29C39.5601 104.35 39.4993 104.411 39.4385 104.532C39.4385 104.411 39.4993 104.35 39.6209 104.29Z" fill="#F7911F"/>
<path d="M44.9541 96.6249C44.9541 96.6249 45.0149 96.6855 44.9541 96.746C44.9541 96.6855 44.9541 96.6855 44.9541 96.6249Z" fill="#F7911F"/>
<path d="M64.5315 28.185C64.5923 28.185 64.6531 28.1244 64.6531 28.1244C64.5923 28.1244 64.5315 28.185 64.5315 28.185Z" fill="#F7911F"/>
<path d="M77.1992 26.2535C77.3204 26.1328 77.4417 26.0121 77.4417 25.831C77.4417 25.9517 77.3811 26.1328 77.1992 26.2535Z" fill="#F7911F"/>
<path d="M72.4717 19.9165C72.108 19.9165 72.108 19.7354 71.9868 19.1319C72.0474 19.7354 72.108 19.8561 72.4717 19.9165Z" fill="#F7911F"/>
<path d="M76.8965 26.3742C76.8357 26.3742 76.8357 26.4347 76.7749 26.4347C76.8357 26.3742 76.8965 26.3742 76.8965 26.3742Z" fill="#F7911F"/>
<path d="M63.5012 28.6072C63.1375 28.6072 62.8951 28.7279 62.592 28.7883C62.8951 28.6676 63.1982 28.6072 63.5012 28.6072Z" fill="#F7911F"/>
<path d="M73.3809 22.0288C73.1991 22.0288 73.0778 22.0288 72.896 21.9684C73.0778 22.0288 73.2597 22.0891 73.3809 22.0288Z" fill="#F7911F"/>
<path d="M74.23 24.3224C74.1692 24.3224 74.0476 24.2618 73.9868 24.2618C74.0476 24.3224 74.1692 24.3224 74.23 24.3224Z" fill="#F7911F"/>
<path d="M76.2305 19.7965C76.1697 19.6149 76.1089 19.5543 75.9265 19.5543C76.1697 19.5543 76.2305 19.6149 76.2305 19.7965Z" fill="#F7911F"/>
<path d="M69.4412 15.9333C69.502 15.9333 69.6236 15.9333 69.6844 15.8728C69.6236 15.9333 69.5628 15.9333 69.4412 15.9333Z" fill="#F7911F"/>
<path d="M69.6836 22.3306C69.6836 22.5116 69.7442 22.6323 69.7442 22.8134C69.6836 22.6323 69.6836 22.4513 69.6836 22.3306Z" fill="#F7911F"/>
<path d="M63.986 28.6676C64.1072 28.6676 64.2284 28.6676 64.289 28.6072C64.2284 28.6676 64.0466 28.6676 63.986 28.6676Z" fill="#F7911F"/>
<path d="M60.7737 18.1662C60.0464 18.2869 59.3191 18.468 58.6523 18.7094C59.3191 18.468 60.0464 18.2266 60.7737 18.1662Z" fill="#F7911F"/>
<path d="M69.6836 23.3565C69.6836 23.1755 69.6836 22.9341 69.7442 22.753C69.6836 22.9944 69.6836 23.1755 69.6836 23.3565Z" fill="#F7911F"/>
<path d="M28.9529 34.7634C28.9529 34.824 28.8921 34.824 28.8921 34.7634C28.8921 34.7634 28.8921 34.7029 28.9529 34.7029C28.9529 34.7029 28.9529 34.7029 28.9529 34.7634Z" fill="#F7911F"/>
<path d="M36.105 43.1523C36.2262 43.0316 36.3474 43.0316 36.5293 43.092C36.408 43.3334 36.2262 43.1523 36.105 43.1523Z" fill="#F7911F"/>
<path d="M43.8026 42.9712C43.0753 44.7818 41.8024 45.9889 39.9235 46.5924C39.2568 46.8338 39.1355 46.7735 38.8325 46.1096C38.7113 45.7475 38.5294 45.3854 38.4688 44.9629C38.4082 44.4801 38.4082 44.4197 38.7719 44.299C39.4992 44.0576 40.2265 43.7558 40.772 43.1523C41.0751 42.8505 41.3175 42.5488 41.4388 42.1263C41.6206 41.7038 41.56 41.4021 41.1963 41.1003C40.8933 40.7985 40.5902 40.7985 40.2265 40.9796C39.5598 41.3417 38.9537 41.8245 38.3476 42.1867C37.6203 42.6695 36.8929 43.0316 35.9838 42.9712C35.6807 42.9712 35.3777 42.7298 35.0746 42.7902C35.0746 42.9109 34.9534 42.9109 34.8928 42.8505C33.5593 42.247 32.7108 40.6175 33.0138 39.2897C33.3775 37.7205 34.3473 36.5738 35.6807 35.7893C36.1656 35.5478 36.6505 35.3668 37.1354 35.1857C37.3172 35.1254 37.4384 35.1857 37.499 35.3064C37.7415 35.7289 37.9839 36.1514 38.1658 36.5738C38.3476 36.9963 38.2264 37.0567 37.8021 37.2377C37.0142 37.5395 36.2262 37.9016 35.6807 38.6862C35.317 39.2897 35.2564 39.8329 35.6201 40.1347C35.9232 40.4364 36.4687 40.3761 37.0748 39.9536C37.6809 39.5311 38.2264 39.1087 38.8325 38.7465C40.3478 37.7205 41.9843 38.2034 43.0753 39.3501C43.1359 39.4104 43.2571 39.5311 43.3177 39.5915C43.5602 39.8932 43.8026 40.195 43.8026 40.5571C44.1663 41.4021 44.1057 42.1867 43.8026 42.9712Z" fill="#F7911F"/>
<path d="M50.7121 35.7892C50.2878 36.5135 49.6817 37.0567 49.015 37.5395C48.2271 38.0223 47.4391 38.3844 46.4693 38.2034C46.1663 38.143 45.8026 38.2637 45.4389 38.143C45.4389 38.2637 45.3783 38.2637 45.2571 38.2637L45.1965 38.2034C45.2571 38.143 45.3177 38.143 45.4389 38.143C45.3177 37.9619 45.1359 38.0223 44.9541 38.0223C44.8328 38.0223 44.7116 38.0826 44.651 38.0223C42.3478 37.2981 40.1052 34.8236 40.2264 32.1077C40.3476 30.0557 41.4386 28.6676 43.1963 27.702C44.0449 27.2191 44.9541 27.2191 45.8632 27.2795C46.1057 27.2795 46.2875 27.4002 46.2875 27.6416C46.3481 28.1848 46.4693 28.6676 46.5299 29.2108C46.5299 29.3918 46.4693 29.5125 46.2875 29.5125C46.0451 29.5125 45.8632 29.5729 45.6208 29.5125C44.651 29.3918 44.0449 29.935 43.4994 30.5385C42.9539 31.2024 42.7721 31.987 43.0751 32.8319C43.6206 34.1597 44.4086 35.1857 45.9238 35.5478C46.8936 35.7892 47.6816 35.3668 48.2877 34.6425C48.7119 34.0994 48.9544 33.4958 48.9544 32.7716C48.9544 32.2888 49.015 32.2888 49.4393 32.4095C49.9848 32.5302 50.4697 32.6509 50.9546 32.7716C51.2576 32.8319 51.3182 33.013 51.3182 33.2544C51.4394 34.2201 51.197 35.065 50.7121 35.7892Z" fill="#F7911F"/>
<path d="M68.2894 27.3398C68.1682 27.4002 67.9863 27.4605 67.8651 27.4605C67.4408 27.5812 67.0165 27.7623 66.5923 27.702C66.2892 27.9434 65.4407 28.2451 64.8346 28.3055C64.7133 28.5469 64.5921 28.4865 64.4103 28.4262C64.4103 28.4865 64.4103 28.5469 64.3497 28.5469C64.289 28.6072 64.1072 28.6072 64.0466 28.6072C63.9254 28.728 63.8042 28.728 63.6829 28.6676C63.6223 28.6676 63.6223 28.6676 63.5617 28.6676C63.198 29.0297 62.7132 29.0901 62.2889 29.2108C61.9252 29.3315 61.7434 29.2108 61.6222 28.8487C60.6524 25.5896 59.6826 22.3909 58.5916 19.1922C58.531 19.0111 58.531 18.8904 58.5916 18.7094C58.5916 18.649 58.7128 18.649 58.7734 18.7094C59.5008 18.468 60.1675 18.2869 60.8948 18.1662C61.3191 17.8041 61.9252 17.8041 62.4101 17.623C63.1374 17.3816 63.8042 17.2006 64.5315 16.9591C65.1376 16.7781 65.2588 16.8384 65.4407 17.5023C65.5619 17.8041 65.6831 18.0455 65.7437 18.3473C65.8043 18.7094 65.6831 18.8301 65.38 18.9508C64.7133 19.1318 63.986 19.3733 63.3193 19.5543C62.9556 19.675 62.6525 19.7354 62.2889 19.8561C61.8646 20.0371 61.804 20.0975 61.9252 20.52C62.2283 22.0288 62.3495 22.0891 63.8042 21.546C64.4103 21.3046 65.0164 21.1838 65.6225 20.9424C65.9862 20.8217 66.2286 20.9424 66.3498 21.2442C66.5317 21.6667 66.7135 22.0891 66.8953 22.5116C66.9559 22.6927 66.8347 22.753 66.7135 22.8134C66.168 23.1151 65.5619 23.2358 64.9558 23.4169C64.4103 23.598 63.9254 23.779 63.3799 23.9601C63.0768 24.0204 62.9556 24.2618 63.0768 24.5636C63.198 24.9861 63.3193 25.4085 63.4405 25.831C63.6223 26.2535 63.6829 26.3138 64.1072 26.1328C65.2588 25.7707 66.4104 25.4689 67.5621 25.1068C67.9257 24.9861 68.1076 25.0464 68.1682 25.4085C68.2894 25.831 68.4106 26.2535 68.6531 26.676C68.8349 27.0381 68.4106 27.2795 68.2894 27.3398Z" fill="#F7911F"/>
<path d="M77.1993 26.2535C77.0781 26.3138 77.0174 26.3138 76.8962 26.3742C76.8356 26.3742 76.8356 26.4345 76.775 26.4345C76.4719 26.4949 76.1689 26.5553 75.8658 26.5553C75.684 26.5553 75.5628 26.5553 75.3809 26.5553C75.3203 26.6156 75.1991 26.6156 75.1385 26.6156C75.0779 26.6156 74.9567 26.6156 74.8961 26.6156C74.593 26.6156 74.2899 26.676 73.9869 26.676C73.8657 26.676 73.8051 26.676 73.6838 26.6156C73.6232 26.676 73.6232 26.676 73.5626 26.676C73.502 26.676 73.502 26.676 73.4414 26.676C73.3808 26.676 73.2596 26.676 73.1989 26.676C72.9565 26.676 72.6534 26.7363 72.411 26.7363C72.3504 26.857 72.2898 26.7967 72.2292 26.7967C71.8655 26.7967 71.5624 26.857 71.1988 26.857C71.0776 26.857 70.9563 26.857 70.8351 26.857C70.7139 26.857 70.5927 26.9174 70.4714 26.9174C70.1684 26.9777 69.9866 26.7967 69.9866 26.4949C69.9866 26.1931 69.9259 25.9517 70.0472 25.65C70.0472 25.4689 69.9866 25.2878 69.9866 25.1068C69.8653 24.5033 69.7441 23.8997 69.7441 23.2962C69.7441 23.1151 69.7441 22.8737 69.8047 22.6927C69.8047 22.5116 69.7441 22.3909 69.7441 22.2098C69.6229 22.0288 69.5623 21.8477 69.5623 21.6667C69.5623 21.4856 69.5623 21.3046 69.5623 21.1235C69.5623 21.0631 69.5623 21.0028 69.5623 20.9424C69.5623 20.8821 69.5623 20.8217 69.5623 20.7614C69.3804 19.3129 69.3198 17.8644 69.0168 16.416C68.9562 16.1142 69.138 16.0539 69.3198 15.9332C69.3804 15.8728 69.4411 15.8728 69.5623 15.8728C69.6229 15.8728 69.7441 15.8728 69.8047 15.8124C69.9259 15.8124 70.1078 15.8124 70.229 15.7521C70.4714 15.7521 70.7745 15.6917 71.0169 15.6917C71.0169 15.6917 71.0169 15.6314 71.0776 15.6314C71.1382 15.6314 71.1382 15.6314 71.1988 15.6314H71.2594C71.6231 15.6314 71.9867 15.6314 72.411 15.6314C72.4716 15.6314 72.5322 15.571 72.5322 15.571C72.6534 15.5107 72.8353 15.4503 73.0171 15.5107C73.1989 15.4503 73.3202 15.4503 73.502 15.4503C73.5626 15.4503 73.6838 15.4503 73.7444 15.4503C73.8051 15.4503 73.9263 15.4503 73.9869 15.4503C74.593 15.39 75.2597 15.2693 75.8658 15.2089C76.2901 15.1486 76.4113 15.3296 76.4113 15.7521C76.4113 16.1746 76.4113 16.5367 76.4719 16.9592C76.5326 17.1402 76.4719 17.3816 76.2295 17.3816C75.6234 17.442 75.0779 17.6834 74.4718 17.442C73.8051 17.5023 73.1383 17.623 72.4716 17.6834C72.1686 17.7437 71.9261 17.8644 71.9867 18.2266C72.0473 18.468 71.9867 18.7094 72.0473 18.9508C72.1686 19.5543 72.1686 19.7354 72.5322 19.7354C72.6534 19.7354 72.7747 19.7354 73.0171 19.7354C73.0777 19.675 73.1383 19.675 73.1989 19.675C73.2596 19.675 73.3202 19.675 73.3808 19.675C74.1081 19.494 74.8354 19.4336 75.5628 19.4336C75.7446 19.4336 75.8658 19.3733 75.9871 19.3733C76.1689 19.3733 76.2901 19.4336 76.2901 19.6147C76.2901 19.7354 76.2901 19.8561 76.3507 19.9768C76.3507 20.3993 76.4719 20.7614 76.4719 21.1838C76.4719 21.4253 76.4113 21.546 76.1689 21.6063C75.5628 21.727 75.0173 21.7874 74.4112 21.6667C74.2293 21.6667 74.0475 21.6667 73.9263 21.727C73.8051 21.8477 73.6232 21.9081 73.4414 21.9081C73.2596 21.9081 73.1383 21.9081 72.9565 21.8477C72.8959 21.8477 72.8353 21.9081 72.7747 21.9081C72.6534 21.9081 72.4716 21.9684 72.3504 22.0891C72.3504 22.6927 72.4716 23.2358 72.5322 23.779C72.5322 24.0808 72.6534 24.2015 72.9565 24.2015C73.1989 24.2015 73.502 24.2015 73.7444 24.2015C73.8051 24.2015 73.9263 24.1411 73.9869 24.2015C74.0475 24.2015 74.1687 24.2015 74.2293 24.2618C74.2293 24.1411 74.2899 24.0808 74.4112 24.0808C75.1385 24.0204 75.9264 23.9601 76.6538 23.8997C77.0174 23.8997 77.1993 23.9601 77.1993 24.3826C77.1993 24.805 77.2599 25.1671 77.4417 25.5896C77.4417 25.65 77.5023 25.7103 77.5023 25.7707C77.4417 25.9517 77.3811 26.1328 77.1993 26.2535Z" fill="#F7911F"/>
<path d="M88.5942 19.8561C88.4729 21.0631 88.3517 22.2702 88.1093 23.4169C87.988 23.8394 87.988 24.3825 87.988 24.8654C88.0487 25.5293 87.7456 26.1328 87.9274 26.7363C88.0486 27.0984 87.6244 27.4002 87.2001 27.4002C86.594 27.3398 85.9273 27.2795 85.3212 27.1588C85.0181 27.0984 84.8363 26.857 84.715 26.4949C84.2908 24.9861 83.624 23.5376 83.0785 22.0288C82.8361 21.3649 82.533 20.6407 82.23 19.9768C82.0481 20.0975 82.0481 20.1578 82.0481 20.2786C81.8057 21.9081 81.5633 23.5376 81.3814 25.1068C81.3814 25.2275 81.442 25.3482 81.442 25.4085C81.6845 26.1328 81.3208 26.676 80.5329 26.6156C80.048 26.5553 79.5631 26.4949 79.0782 26.3742C78.6539 26.2535 78.5327 26.0724 78.6539 25.65C78.957 24.4429 79.0176 23.1755 79.1994 21.9684C79.4419 20.2786 79.6237 18.5283 79.8662 16.8384C79.9268 16.4763 79.9268 16.1746 79.9268 15.8124C79.9268 15.4503 80.1086 15.3296 80.4116 15.39C81.139 15.4503 81.8663 15.571 82.5937 15.6917C82.8361 15.7521 83.0179 15.8728 83.1392 16.1142C83.7453 17.623 84.2908 19.1318 84.8969 20.5803C85.1393 21.1838 85.3818 21.7874 85.6848 22.4513C85.8667 21.6667 85.9879 20.9424 86.0485 20.2182C86.1697 19.0111 86.3515 17.8041 86.4728 16.5367C86.4728 16.2349 86.6546 16.1746 86.897 16.1746C87.5032 16.2349 88.1699 16.2953 88.776 16.3556C88.9578 16.3556 88.8972 16.4763 88.8972 16.6574C89.0184 17.7437 88.7154 18.7697 88.5942 19.8561Z" fill="#F7911F"/>
<path d="M89.0794 16.8994C89.0186 16.9599 89.0794 16.9599 89.0794 16.8994C88.9578 16.9599 88.9578 16.8994 88.9578 16.8388C88.9578 16.7783 89.0186 16.7783 89.0186 16.7177C89.0186 16.7783 89.0794 16.7783 89.0794 16.8388V16.8994Z" fill="#F7911F"/>
<path d="M96.8373 25.8914C95.9887 25.5896 95.0796 25.2275 94.231 24.8654C94.0492 24.805 93.8673 24.7447 93.7461 24.6843C93.5037 24.6843 93.3824 24.805 93.2612 24.9861C93.14 25.4086 92.9582 25.831 92.8369 26.2535C92.7157 26.6156 92.8369 26.7967 93.14 26.9174C94.1098 27.2795 95.0796 27.6416 96.0493 28.0037C96.3524 28.1244 96.7161 28.1848 96.8979 28.4262C97.1403 28.728 96.7161 28.9694 96.6554 29.2711C96.5948 29.5729 96.4736 29.8747 96.413 30.1764C96.3524 30.4782 96.1099 30.5989 95.8069 30.5385C95.5038 30.4782 95.2614 30.4178 94.9583 30.2971C93.8673 29.754 92.6551 29.4522 91.5641 28.9694C90.958 28.728 90.3519 28.5469 89.7458 28.3055C89.2609 28.0641 89.2003 27.883 89.4427 27.4605C90.2913 25.7707 90.8368 24.0204 91.5035 22.2098C91.9884 20.8821 92.4733 19.5543 92.9582 18.2266C93.14 17.6834 93.2006 17.6834 93.7461 17.9248C95.6251 18.649 97.504 19.3129 99.3829 20.0371C100.05 20.2786 100.05 20.2786 99.7466 20.8821C99.5648 21.2442 99.4436 21.6667 99.3223 22.0288C99.2617 22.2702 99.0799 22.2702 98.8374 22.2098C97.6858 21.7874 96.5342 21.3649 95.3826 20.8821C95.0796 20.7614 94.8977 20.8821 94.8371 21.1235C94.7765 21.2442 94.7765 21.3649 94.7159 21.4856C94.2916 22.6927 94.2916 22.6927 95.5644 23.1151C96.2918 23.3566 97.0191 23.598 97.7464 23.8394C98.2313 24.0204 98.2313 24.0808 98.0495 24.5636C97.9283 24.9257 97.7464 25.2878 97.6252 25.65C97.3222 26.0121 97.2616 26.0121 96.8373 25.8914Z" fill="#F7911F"/>
<path d="M133.325 89.9861C133.386 89.8654 133.446 89.7447 133.507 89.624C133.568 89.5636 133.568 89.4429 133.628 89.3826C133.628 89.3222 133.689 89.2618 133.689 89.2618C133.689 89.2015 133.749 89.1411 133.749 89.1411H133.446" fill="#F7911F"/>
<path d="M118.112 112.256C118.112 112.317 118.173 112.317 118.173 112.377C118.233 112.438 118.294 112.377 118.355 112.317" fill="#F7911F"/>
<path d="M110.535 118.412C110.657 118.473 110.778 118.412 110.838 118.352C110.838 118.352 110.838 118.352 110.838 118.292L110.899 118.231C110.899 118.171 110.96 118.111 110.96 118.111C110.778 118.171 110.596 118.231 110.535 118.412Z" fill="#F7911F"/>
<path d="M111.081 117.99C111.203 118.05 111.324 118.05 111.385 117.99H111.081Z" fill="#F7911F"/>
<path d="M117.688 112.619C117.627 112.679 117.566 112.74 117.688 112.8C117.748 112.8 117.809 112.8 117.87 112.74C117.931 112.679 117.931 112.619 117.931 112.558C117.931 112.498 117.87 112.498 117.87 112.498C117.809 112.498 117.748 112.558 117.688 112.619Z" fill="#F7911F"/>
<path d="M60.1675 12.1309L60.1069 12.0706C60.1069 12.0706 60.1069 12.0706 60.1675 12.1309Z" fill="#F7911F"/>
<path d="M88.776 16.416C88.1699 16.3556 87.5032 16.2953 86.897 16.2349C86.6546 16.2349 86.4728 16.2953 86.4728 16.597C86.3515 17.8041 86.1697 19.0112 86.0485 20.2786C85.9879 21.0028 85.8667 21.6667 85.6848 22.5116C85.3818 21.7874 85.1393 21.2442 84.8969 20.6407C84.2908 19.1319 83.7453 17.623 83.1392 16.1746C83.0179 15.9332 82.8967 15.7521 82.5937 15.7521C81.8663 15.6314 81.139 15.5711 80.4116 15.4503C80.1086 15.39 79.9268 15.5711 79.9268 15.8728C79.9268 16.2349 79.9268 16.5367 79.8662 16.8988C79.6237 18.5887 79.4419 20.3389 79.1994 22.0288C79.0176 23.2359 78.957 24.5033 78.6539 25.7103C78.5327 26.1328 78.6539 26.3139 79.0782 26.4346C79.5631 26.5553 80.048 26.6156 80.5329 26.676C81.2602 26.7363 81.6845 26.1932 81.442 25.4689C81.3814 25.3482 81.3208 25.2879 81.3814 25.1672C81.6239 23.5376 81.8663 21.9081 82.0481 20.3389C82.0481 20.2182 82.1088 20.1579 82.23 20.0372C82.533 20.701 82.8361 21.4253 83.0785 22.0892C83.624 23.598 84.2908 25.0464 84.715 26.5553C84.8363 26.9174 85.0181 27.1588 85.3212 27.2192C85.9273 27.3399 86.5334 27.4606 87.2001 27.4606C87.6244 27.5209 87.988 27.1588 87.9274 26.7967C87.7456 26.1328 88.0487 25.5293 87.988 24.9257C87.988 24.4429 87.988 23.9601 88.1093 23.4773C88.4123 22.3306 88.4729 21.1235 88.5942 19.9165C88.7154 18.8905 89.0184 17.8645 88.8972 16.7781C88.8972 16.5367 88.9578 16.416 88.776 16.416Z" fill="#F7911F"/>
<path d="M109.262 27.2795C108.959 26.0724 108.232 25.1068 107.262 24.3826C106.232 23.6583 105.202 22.9944 104.171 22.2702C103.504 21.8477 103.504 21.8477 103.08 22.5116C102.171 23.9601 101.201 25.3482 100.292 26.7967C99.4435 28.0641 98.5949 29.3918 97.6857 30.5989C97.3827 30.961 97.4433 31.2628 97.8676 31.4438C98.0494 31.5645 98.2312 31.6249 98.4131 31.7456C99.5041 32.3491 100.413 33.1941 101.504 33.7372C102.838 34.4011 104.171 34.5218 105.626 33.9787C107.505 33.3148 109.505 30.6592 109.384 28.1848C109.262 28.0037 109.323 27.6416 109.262 27.2795ZM106.717 28.3055C106.414 29.3918 105.929 30.3575 105.08 31.0817C104.05 31.987 103.08 32.0474 101.989 31.3231C100.959 30.7196 100.959 30.6592 101.565 29.6332C102.292 28.4262 103.08 27.2795 103.868 26.0724C103.929 26.0121 103.989 25.8914 104.05 25.831C104.474 25.1068 104.474 25.1068 105.202 25.5896C106.05 26.1328 106.656 26.7967 106.717 27.9434C106.717 28.0641 106.717 28.1848 106.717 28.3055Z" fill="#F7911F"/>
<path d="M60.5313 29.1504C59.3797 28.4866 58.2281 27.8227 57.0765 27.1588C56.4704 26.7967 56.4704 26.7967 56.7734 26.1931C57.1371 25.5293 57.2583 24.805 57.0765 24.0204C56.6522 22.5116 55.3794 21.3649 53.7429 21.3046C53.1368 21.3649 52.47 21.546 51.8033 21.9081C50.5305 22.572 49.3789 23.3566 48.106 23.9601C47.803 24.0808 47.7424 24.2619 47.9848 24.5636C49.0152 26.1328 49.9244 27.7623 50.8335 29.3918C51.5002 30.5989 52.167 31.806 52.8337 33.013C53.1974 33.6769 53.5004 33.858 54.1065 33.3751C54.4702 33.1337 54.8339 32.8923 55.2581 32.7716C55.743 32.5905 55.8036 32.2888 55.5006 31.8663C54.8945 31.0817 54.4702 30.1764 53.9247 29.3918C53.6216 28.909 53.6823 28.8487 54.1671 28.4866C54.4702 28.2451 54.7126 28.4262 54.9551 28.6073C55.8036 29.1504 56.531 29.8747 57.3795 30.3575C57.4401 30.3575 57.4401 30.4178 57.5008 30.4178C57.9856 30.961 58.2281 31.0214 58.8342 30.7196C59.4403 30.4178 60.0464 30.1161 60.5919 29.754C61.0162 29.5729 60.9556 29.4522 60.5313 29.1504ZM54.4096 25.8914C54.349 25.9517 54.349 26.0121 54.2884 26.0724C53.8641 26.4949 53.3792 26.7363 52.8337 27.0381C52.5913 27.1588 52.47 27.0381 52.3488 26.857C52.0458 26.3139 51.6821 25.7103 51.379 25.1671C51.2578 24.9257 51.3184 24.7447 51.5003 24.624C51.8033 24.4429 52.1064 24.2015 52.4094 24.0204C52.6519 23.8394 52.9549 23.779 53.1974 23.779C53.3792 23.779 53.561 23.8394 53.7429 23.9601C54.1671 24.2015 54.4702 24.6843 54.5308 25.2879C54.5914 25.5293 54.5308 25.7103 54.4096 25.8914ZM58.3493 30.78C58.2887 30.78 58.2887 30.7196 58.2281 30.7196C58.2887 30.7196 58.2887 30.6593 58.3493 30.6593C58.4099 30.6593 58.4099 30.7196 58.4705 30.7196C58.4099 30.7196 58.3493 30.78 58.3493 30.78Z" fill="#F7911F"/>
<path d="M97.9283 24.4429C98.1102 23.9601 98.1102 23.8394 97.6253 23.7187C96.898 23.4773 96.1706 23.2359 95.4433 22.9944C94.2311 22.572 94.2311 22.572 94.5947 21.3649C94.6553 21.2442 94.6554 21.1235 94.716 21.0028C94.8372 20.701 95.019 20.6407 95.2615 20.7614C96.4131 21.1839 97.5647 21.6063 98.7163 22.0892C98.9587 22.1495 99.08 22.1495 99.2012 21.9081C99.3224 21.546 99.5042 21.1235 99.6255 20.7614C99.8679 20.1579 99.8679 20.1579 99.2618 19.9165C97.3829 19.1922 95.5039 18.5283 93.625 17.8041C93.0795 17.623 93.0188 17.623 92.837 18.1059C92.3521 19.4336 91.8672 20.7614 91.3823 22.0892C90.7156 23.8394 90.1701 25.65 89.3216 27.3399C89.0791 27.7623 89.2003 27.9434 89.6246 28.1848C90.2307 28.4866 90.8368 28.6073 91.443 28.8487C92.5946 29.3315 93.7462 29.6333 94.8372 30.1764C95.0796 30.2971 95.3827 30.3575 95.6857 30.4178C95.9888 30.4782 96.1706 30.3575 96.2918 30.0557C96.3525 29.754 96.4737 29.4522 96.5343 29.1504C96.5949 28.8487 97.0192 28.6073 96.7767 28.3055C96.5949 28.0641 96.2312 28.0037 95.9282 27.883C94.9584 27.5209 93.9886 27.1588 93.0188 26.7967C92.6552 26.676 92.534 26.4949 92.7158 26.1328C92.8976 25.7103 93.0188 25.2879 93.1401 24.8654C93.2007 24.624 93.3219 24.5636 93.625 24.5636C93.7462 24.624 93.9886 24.6843 94.1099 24.7447C94.9584 25.1068 95.8676 25.4689 96.7161 25.7707C97.1404 25.9517 97.2616 25.8914 97.3829 25.4689C97.6859 25.1672 97.8071 24.805 97.9283 24.4429Z" fill="#F7911F"/>
<path d="M43.8631 40.6175C43.8631 40.7382 43.8631 40.7985 43.8631 40.9796C43.7419 40.7985 43.8025 40.7382 43.8631 40.6175C43.8631 40.195 43.6207 39.8932 43.3783 39.5915C43.3177 39.4708 43.1964 39.4104 43.1358 39.3501C42.0448 38.2034 40.4689 37.7205 38.893 38.7465C38.2869 39.169 37.6808 39.5311 37.1353 39.9536C36.5292 40.3761 35.9837 40.4364 35.6806 40.1347C35.317 39.7725 35.3776 39.2897 35.7413 38.6862C36.2261 37.9016 37.0141 37.5395 37.8626 37.2377C38.2869 37.0567 38.4081 36.9963 38.2263 36.5738C38.0445 36.1514 37.802 35.7289 37.5596 35.3064C37.499 35.1857 37.3778 35.1254 37.1959 35.1857C36.711 35.4271 36.2261 35.5478 35.7413 35.7893C34.3472 36.5738 33.438 37.7205 33.0744 39.2897C32.7713 40.6175 33.6199 42.247 34.9533 42.8505C35.0139 42.9109 35.1351 42.9109 35.1351 42.7902C35.4382 42.7298 35.7413 42.9109 36.0443 42.9712C36.9535 43.0316 37.6808 42.6695 38.4081 42.1867C39.0143 41.7642 39.6204 41.2814 40.2871 40.9796C40.6508 40.7985 40.9538 40.7985 41.2569 41.1003C41.5599 41.4021 41.6205 41.7642 41.4993 42.1263C41.3175 42.4884 41.075 42.8505 40.8326 43.1523C40.2871 43.7558 39.6204 44.0576 38.8324 44.299C38.4081 44.4197 38.4688 44.4801 38.5294 44.9629C38.59 45.3854 38.7718 45.7475 38.893 46.1096C39.1961 46.7735 39.2567 46.8338 39.984 46.5924C41.863 45.9889 43.1358 44.7215 43.8631 42.9712C44.1056 42.1867 44.1662 41.4021 43.8631 40.6175ZM35.1351 42.8505C35.1351 42.7902 35.0745 42.7902 35.0745 42.7298C35.0745 42.7298 35.0745 42.7298 35.1351 42.7298C35.1351 42.7902 35.1351 42.7902 35.1351 42.8505Z" fill="#F7911F"/>
<path d="M51.0152 32.8319C50.4697 32.7112 49.9848 32.5905 49.4999 32.4698C49.0151 32.3491 49.0151 32.4095 49.0151 32.8319C49.0151 33.5562 48.7726 34.1597 48.3483 34.7029C47.7422 35.4271 47.0149 35.7892 45.9845 35.6082C44.4692 35.2461 43.6813 34.2201 43.1358 32.8923C42.8327 32.0474 43.0145 31.2628 43.56 30.5989C44.1055 29.935 44.7723 29.4522 45.6814 29.5729C45.9239 29.5729 46.1057 29.5729 46.3482 29.5729C46.53 29.5729 46.5906 29.4522 46.5906 29.2711C46.53 28.7279 46.4088 28.2451 46.3482 27.7019C46.2876 27.4002 46.1663 27.3398 45.9239 27.3398C45.0147 27.2795 44.1055 27.3398 43.257 27.7623C41.4993 28.7279 40.4083 30.1161 40.2871 32.1681C40.1658 34.8236 42.3478 37.3584 44.7117 38.0826C44.8329 38.143 44.9541 38.0826 45.0147 38.0826C45.1966 38.0826 45.3784 38.0223 45.4996 38.2033C45.8027 38.324 46.1663 38.2033 46.53 38.2637C47.4998 38.4448 48.2877 38.0826 49.0757 37.5998C49.803 37.117 50.3485 36.5738 50.7728 35.8496C51.2577 35.1253 51.5001 34.2804 51.4395 33.3751C51.3789 33.0733 51.3789 32.8923 51.0152 32.8319Z" fill="#F7911F"/>
<path d="M68.1076 25.4086C67.9864 25.0464 67.8652 24.9861 67.5015 25.1068C66.3499 25.4689 65.1983 25.831 64.0467 26.1328C63.6224 26.2535 63.5012 26.2535 63.38 25.831C63.2587 25.4086 63.1375 24.9861 63.0163 24.5636C62.8951 24.2619 63.0163 24.0205 63.3193 23.9601C63.8648 23.779 64.3497 23.598 64.8952 23.4169C65.5013 23.2359 66.1075 23.1152 66.653 22.8134C66.7742 22.753 66.8954 22.6927 66.8348 22.5116C66.653 22.0892 66.5317 21.6667 66.2893 21.2442C66.1681 20.9425 65.9256 20.8218 65.562 20.9425C64.9558 21.1235 64.2891 21.3046 63.7436 21.546C62.3496 22.0892 62.2283 22.0288 61.8647 20.52C61.7435 20.0372 61.8041 19.9768 62.2283 19.8561C62.592 19.7354 62.8951 19.6147 63.2587 19.5543C63.9254 19.3129 64.6528 19.1319 65.3195 18.9508C65.6226 18.8905 65.7438 18.7094 65.6832 18.3473C65.6226 18.0455 65.5013 17.7438 65.3801 17.5023C65.1983 16.8988 65.0771 16.7781 64.4709 16.9592C63.7436 17.1402 63.0163 17.3816 62.3496 17.623C61.8647 17.8041 61.2586 17.7438 60.8343 18.1662V18.1059C60.1069 18.2266 59.4402 18.468 58.7129 18.649C58.7735 18.7094 58.8947 18.7094 58.8947 18.7094C58.7129 19.3129 59.0766 19.8561 59.1978 20.4596C59.9857 23.0548 60.8343 25.65 61.6222 28.3055C61.6222 28.3659 61.6828 28.4262 61.6828 28.4866C61.7434 28.8487 61.9253 28.9694 62.2889 28.8487C62.4102 28.8487 62.4708 28.7883 62.592 28.728C62.8951 28.6073 63.1981 28.5469 63.5012 28.5469C63.7436 28.3055 64.0467 28.2452 64.3497 28.2452H64.4103C64.4103 28.1848 64.471 28.1848 64.5316 28.1244C64.5922 28.1244 64.6528 28.0641 64.6528 28.0641C64.7134 28.0641 64.7134 28.0641 64.774 28.0037C64.8346 27.9434 64.9558 27.9434 65.0165 28.0037C65.0165 28.0641 64.8952 28.1244 64.8346 28.1848C65.3801 28.1244 66.2287 27.8227 66.5923 27.5813C66.4711 27.5813 66.2893 27.5813 66.1681 27.5813C66.1075 27.6416 66.1075 27.6416 66.0468 27.702C65.9862 27.7623 65.865 27.7623 65.865 27.702C65.865 27.6416 65.9256 27.6416 65.9862 27.6416C66.0468 27.6416 66.1075 27.6416 66.1075 27.6416C66.1681 27.5813 66.2287 27.5209 66.3499 27.5209C66.4105 27.5209 66.4105 27.5209 66.4711 27.5209C66.5317 27.5209 66.5317 27.5813 66.5923 27.6416C67.0772 27.702 67.5015 27.5209 67.8652 27.4002C67.9864 27.3399 68.1682 27.2795 68.2895 27.2795C68.4713 27.2192 68.8956 26.9777 68.6531 26.6156C68.3501 26.2535 68.2288 25.831 68.1076 25.4086ZM65.4407 28.0037C65.3195 27.9434 65.3195 27.9434 65.4407 28.0037C65.4407 27.9434 65.4407 27.9434 65.4407 28.0037Z" fill="#F7911F"/>
<path d="M70.1683 26.1328C70.1683 26.4949 70.3502 26.6156 70.7138 26.6156C71.5624 26.6156 72.411 26.4345 73.3201 26.3742C74.0475 26.3138 74.8354 26.1931 75.5627 26.1328C75.8658 26.1328 76.1688 26.0724 76.4719 26.0121C77.1386 25.8914 77.1386 25.8914 77.078 25.1671C77.0174 24.1411 76.9568 24.1411 75.987 24.1411C75.4415 24.1411 74.8354 24.3826 74.2899 24.2618C74.2293 24.2618 74.1081 24.2015 74.0475 24.2015C73.9868 24.2015 73.8656 24.2015 73.805 24.2015C73.502 24.3825 72.714 24.4429 72.5322 24.2618C72.4716 24.2015 72.411 24.0808 72.411 24.0204C72.3503 23.4169 72.2897 22.8134 72.2291 22.2702C72.2291 22.1495 72.2291 22.0288 72.411 22.0891C72.5322 21.9684 72.6534 21.9684 72.8352 21.9081C72.8958 21.9081 72.9565 21.9081 73.0171 21.8477C73.3201 21.546 73.6838 21.727 73.9868 21.727C74.1687 21.727 74.3505 21.727 74.4717 21.6667C74.7748 21.3649 75.1991 21.546 75.5627 21.4856C76.2901 21.3649 76.4113 21.2442 76.2295 20.5803C76.1688 20.2786 76.2901 19.9164 76.0476 19.675C75.8052 19.494 75.5021 19.7354 75.1991 19.675C74.9566 19.675 74.6536 19.675 74.3505 19.675C74.7748 19.494 75.2597 19.7957 75.5627 19.4336C74.8354 19.4336 74.1081 19.494 73.3807 19.675C73.502 19.7354 73.5626 19.7957 73.6838 19.7957C73.2595 19.8561 73.2595 19.8561 73.0171 19.7354C72.8352 19.7354 72.6534 19.7354 72.5322 19.7354C72.1685 19.7354 72.1685 19.5543 72.0473 18.9508C71.9867 18.7094 72.0473 18.468 71.9867 18.2266C71.9261 17.8644 72.1685 17.6834 72.4716 17.6834C73.1383 17.623 73.805 17.5023 74.4717 17.442C74.8354 17.2609 75.2597 17.3213 75.684 17.3213C76.0476 17.3213 76.2295 17.1402 76.1688 16.7781C76.1688 16.5367 76.1082 16.2349 76.1688 15.9935C76.1688 15.6314 75.987 15.5107 75.6233 15.5107C74.7748 15.571 73.9262 15.571 73.0777 15.6917C72.2291 15.8124 71.3806 15.8124 70.532 15.9332C70.4108 15.9332 70.2896 15.9332 70.1683 15.9332C69.2592 16.0539 69.2592 16.0539 69.3804 16.9591C69.5016 18.3473 69.6228 19.7957 69.8047 21.1838C69.8653 21.4856 69.8653 21.7874 69.7441 22.0891C69.7441 22.2702 69.8047 22.3909 69.8047 22.572H69.8653C69.9259 23.3566 70.229 24.1411 69.9865 24.9257C69.9865 25.1068 70.0471 25.2878 70.0471 25.4689C70.2896 25.7707 70.1683 25.9517 70.1683 26.1328Z" fill="#F7911F"/>
<path d="M69.6836 21.3649C69.5018 19.9768 69.3806 18.5283 69.2593 17.1402C69.1987 16.2349 69.1987 16.2349 70.0473 16.1142C70.1685 16.1142 70.2897 16.1142 70.411 16.1142C71.2595 15.9935 72.1081 15.9935 72.9566 15.8728C73.8052 15.7521 74.6537 15.7521 75.5023 15.6917C75.866 15.6917 76.0478 15.8125 76.0478 16.1746C76.0478 16.416 76.0478 16.7177 76.0478 16.9592C76.1084 17.3213 75.9266 17.5023 75.5629 17.5023C75.1386 17.5023 74.775 17.442 74.3507 17.623C74.9568 17.9248 75.5023 17.6834 76.1084 17.5627C76.3509 17.5023 76.4115 17.3213 76.3509 17.1402C76.2296 16.7177 76.2902 16.3556 76.2902 15.9332C76.2902 15.4503 76.169 15.3296 75.7447 15.39C75.1386 15.4503 74.4719 15.571 73.8658 15.6314C73.5627 15.8728 73.2597 15.8125 72.896 15.6314C72.7142 15.6314 72.593 15.6314 72.4111 15.6917C72.3505 15.6917 72.2899 15.7521 72.2899 15.7521C71.9262 15.9332 71.5626 15.9332 71.1383 15.7521H71.0777C71.0171 15.7521 71.0171 15.7521 70.9565 15.7521C70.9565 15.7521 70.8958 15.7521 70.8958 15.8125C70.6534 16.1746 70.3503 16.0539 70.1079 15.8728C69.9867 15.8728 69.8048 15.8728 69.6836 15.9332C69.623 15.9332 69.5018 15.9332 69.4412 15.9935C69.3806 15.9935 69.32 16.0539 69.1987 16.0539C69.0169 16.1746 68.8351 16.2349 68.8957 16.5367C69.1987 17.9852 69.2593 19.4336 69.4412 20.8821C69.4412 20.9424 69.4412 21.0028 69.4412 21.0631C69.4412 21.1235 69.4412 21.1839 69.4412 21.2442C69.4412 21.4253 69.4412 21.6063 69.4412 21.7874C69.4412 21.9684 69.5018 22.1495 69.623 22.3306C69.8048 22.0288 69.7442 21.6667 69.6836 21.3649Z" fill="#F7911F"/>
<path d="M62.592 28.7883C62.4708 28.8487 62.4102 28.8487 62.2889 28.909C61.9253 29.0297 61.7434 28.909 61.6828 28.5469C61.6828 28.4866 61.6222 28.4262 61.6222 28.3658C60.7737 25.7707 59.9857 23.1755 59.1978 20.52C59.0159 19.9768 58.6523 19.4336 58.8947 18.7697C58.8947 18.7697 58.7735 18.7094 58.7129 18.7094C58.6523 18.649 58.5311 18.649 58.5311 18.7094C58.4704 18.8904 58.4704 19.0112 58.5311 19.1922C59.6221 22.3909 60.6524 25.5896 61.5616 28.8487C61.6828 29.2108 61.8647 29.3315 62.2283 29.2108C62.6526 29.0901 63.1981 29.0297 63.5012 28.6676C63.5012 28.6073 63.5012 28.6073 63.5012 28.5469C63.1981 28.6073 62.8951 28.6676 62.592 28.7883Z" fill="#F7911F"/>
<path d="M77.1992 24.4429C77.1992 24.0808 77.0174 23.9601 76.6537 23.9601C75.9264 24.0204 75.1384 24.0808 74.4111 24.1411C74.2899 24.1411 74.2293 24.2015 74.2293 24.3222C74.8354 24.4429 75.3809 24.2618 75.9264 24.2015C76.8961 24.2015 76.9568 24.2015 77.0174 25.2275C77.078 25.9517 77.078 25.8914 76.4113 26.0724C76.1082 26.1328 75.8051 26.1328 75.5021 26.1931C74.7748 26.2535 73.9868 26.3742 73.2595 26.4345C72.4109 26.4949 71.5624 26.676 70.6532 26.676C70.2895 26.676 70.1077 26.5553 70.1077 26.1931C70.1077 26.0121 70.2289 25.831 69.9259 25.7103C69.8046 26.0121 69.8653 26.2535 69.8653 26.5553C69.8653 26.9174 70.0471 27.0381 70.3501 26.9777C70.4714 26.9777 70.5926 26.9174 70.7138 26.9174C71.1381 26.5553 71.623 26.7363 72.1079 26.857C72.1685 26.857 72.2897 26.9174 72.2897 26.7967V26.7363C72.2897 26.676 72.2897 26.6156 72.4109 26.6156C72.6534 26.6156 72.8958 26.5553 73.1383 26.7363C73.1989 26.7363 73.3201 26.7363 73.3807 26.7363C73.4413 26.7363 73.4413 26.7363 73.5019 26.7363C73.5625 26.7363 73.5625 26.676 73.6231 26.676C74.0474 26.3742 74.4717 26.4949 74.8354 26.6156C74.896 26.6156 75.0172 26.6156 75.0778 26.6156C75.1384 26.6156 75.2596 26.6156 75.3203 26.5553C75.3809 26.4949 75.3809 26.3742 75.4415 26.3742C75.987 26.3138 76.5931 26.1931 77.1386 26.2535C77.2598 26.1328 77.381 26.0121 77.381 25.831C77.381 25.7707 77.381 25.7103 77.3204 25.65C77.2598 25.2878 77.1992 24.8654 77.1992 24.4429Z" fill="#F7911F"/>
<path d="M74.29 19.8561C74.5931 19.8561 74.8962 19.8561 75.1386 19.8561C75.4417 19.8561 75.7447 19.675 75.9871 19.8561C76.2296 20.0371 76.1084 20.4596 76.169 20.7614C76.3508 21.4253 76.2296 21.546 75.5023 21.6667C75.1386 21.727 74.7143 21.546 74.4113 21.8477C75.0174 21.9684 75.5629 21.9081 76.169 21.7874C76.4114 21.727 76.472 21.6063 76.472 21.3649C76.4114 20.9424 76.3508 20.5803 76.3508 20.1578C76.3508 19.9768 76.3508 19.8561 76.2902 19.7957C76.2296 19.6147 76.169 19.5543 75.9871 19.5543C75.8659 19.5543 75.7447 19.5543 75.5629 19.6147C75.1992 19.9768 74.7143 19.675 74.29 19.8561Z" fill="#F7911F"/>
<path d="M72.1685 22.3909C72.2291 22.9944 72.2897 23.598 72.3503 24.1411C72.3503 24.2015 72.4109 24.3222 72.4715 24.3825C72.6533 24.5636 73.4413 24.5032 73.7443 24.3222C73.5019 24.3222 73.1988 24.3222 72.9564 24.3222C72.6533 24.3222 72.5321 24.2015 72.5321 23.8997C72.4715 23.3565 72.3503 22.753 72.3503 22.2098C72.1685 22.1495 72.1685 22.2702 72.1685 22.3909Z" fill="#F7911F"/>
<path d="M69.8048 22.8134H69.7442C69.7442 22.9944 69.6836 23.2359 69.6836 23.4169C69.6836 24.0204 69.8048 24.624 69.926 25.2275C70.1685 24.3826 69.8048 23.598 69.8048 22.8134Z" fill="#F7911F"/>
<path d="M75.5021 26.3138C75.4415 26.3138 75.4415 26.4346 75.3809 26.4949C75.5627 26.4949 75.6839 26.4949 75.8658 26.4949C76.1688 26.4949 76.4719 26.4949 76.7749 26.3742C76.8355 26.3742 76.8355 26.3138 76.8961 26.3138C77.0174 26.2535 77.078 26.2535 77.1992 26.1931C76.6537 26.1931 76.1082 26.2535 75.5021 26.3138Z" fill="#F7911F"/>
<path d="M72.896 21.9684C73.0778 22.0288 73.2597 22.0288 73.3809 22.0288C73.5627 22.0288 73.6839 21.9684 73.8658 21.8477C73.5627 21.8477 73.1991 21.727 72.896 21.9684Z" fill="#F7911F"/>
<path d="M70.7744 26.9174C70.8956 26.9174 71.0169 26.9174 71.1381 26.9174C71.5017 26.9174 71.8048 26.857 72.1685 26.857C71.6836 26.676 71.1987 26.5553 70.7744 26.9174Z" fill="#F7911F"/>
<path d="M73.6233 19.9768C73.502 19.9164 73.4414 19.9164 73.3202 19.8561C73.2596 19.8561 73.199 19.8561 73.1384 19.8561C73.0778 19.8561 73.0172 19.8561 72.9565 19.9164C73.199 20.0371 73.199 20.0371 73.6233 19.9768Z" fill="#F7911F"/>
<path d="M73.6838 26.5553C73.8051 26.5553 73.8657 26.6156 73.9869 26.6156C74.2899 26.6156 74.593 26.5553 74.8961 26.5553C74.4718 26.3742 74.0475 26.3138 73.6838 26.5553Z" fill="#F7911F"/>
<path d="M72.2898 15.7521C71.9261 15.7521 71.5625 15.7521 71.1382 15.7521C71.5625 15.9332 71.9261 15.9332 72.2898 15.7521Z" fill="#F7911F"/>
<path d="M72.411 26.5552C72.3504 26.5552 72.2898 26.6156 72.2898 26.676V26.7363C72.5322 26.7363 72.8353 26.676 73.0777 26.676C72.9565 26.4949 72.7141 26.5552 72.411 26.5552Z" fill="#F7911F"/>
<path d="M73.8658 15.571C73.8052 15.571 73.6839 15.571 73.6233 15.571C73.5627 15.571 73.4415 15.571 73.3809 15.571C73.1991 15.571 73.0778 15.571 72.896 15.6314C73.1991 15.8125 73.5627 15.8125 73.8658 15.571Z" fill="#F7911F"/>
<path d="M70.9564 15.8124C70.714 15.8124 70.4109 15.8728 70.1685 15.8728C70.4109 16.0538 70.714 16.1746 70.9564 15.8124Z" fill="#F7911F"/>
<path d="M36.105 43.1523C36.2262 43.1523 36.408 43.273 36.5293 43.0919C36.3474 43.0919 36.2262 43.0316 36.105 43.1523Z" fill="#F7911F"/>
<path d="M64.4104 28.3055C64.3498 28.3658 64.3498 28.4262 64.4104 28.4262C64.5923 28.4262 64.7741 28.4865 64.8347 28.3055C64.6529 28.3055 64.5317 28.3055 64.4104 28.3055Z" fill="#F7911F"/>
<path d="M64.1074 28.4865C64.0468 28.4865 63.9861 28.5469 63.9255 28.6073L63.9861 28.6676C64.1074 28.6676 64.2286 28.6676 64.2892 28.6073C64.2892 28.6073 64.3498 28.5469 64.3498 28.4865C64.2892 28.4262 64.2286 28.4262 64.1074 28.4865Z" fill="#F7911F"/>
<path d="M63.9861 28.6676C63.8043 28.6072 63.6831 28.6072 63.5012 28.6072C63.5012 28.6676 63.5012 28.6676 63.5012 28.7279C63.5618 28.7279 63.5618 28.7279 63.6224 28.7279C63.7437 28.7279 63.8649 28.7279 63.9861 28.6676Z" fill="#F7911F"/>
<path d="M45.2573 38.2035C45.3789 38.2641 45.5005 38.2641 45.5005 38.143C45.3789 38.143 45.3181 38.143 45.2573 38.2035Z" fill="#F7911F"/>
<path d="M45.439 38.143C45.4998 38.143 45.4998 38.2035 45.439 38.143V38.143Z" fill="#F7911F"/>
<path d="M89.0186 16.7177C89.0186 16.7783 88.9578 16.7783 88.9578 16.8388C88.9578 16.8994 88.9578 16.9599 89.0794 16.9599C89.0794 16.9599 89.0794 16.9599 89.0794 16.8994C89.0794 16.8388 89.0794 16.8388 89.0794 16.8388C89.0794 16.7783 89.0186 16.7783 89.0186 16.7177Z" fill="#F7911F"/>
<path d="M28.9529 34.7029C28.8921 34.7029 28.8921 34.7634 28.8921 34.7634C28.8921 34.824 28.9529 34.824 28.9529 34.7634C29.0137 34.7634 28.9529 34.7634 28.9529 34.7029Z" fill="#F7911F"/>
<path d="M116.657 96.5646C115.445 95.5989 113.99 95.4179 112.475 95.5386C112.354 95.5386 112.293 95.5989 112.172 95.5989C110.839 95.961 109.869 96.806 108.96 97.832C108.172 98.6769 107.505 99.6426 106.596 100.367C106.353 100.548 106.353 100.789 106.656 100.91C106.899 100.97 107.02 101.091 107.202 101.272C108.657 102.54 110.111 103.867 111.566 105.135C112.354 105.799 113.021 106.704 114.051 107.126C114.233 107.187 114.354 107.307 114.475 107.488C114.718 107.851 114.9 107.911 115.142 107.549C115.324 107.307 115.506 107.066 115.687 106.885C116.415 106.1 117.142 105.316 117.869 104.471C118.657 103.505 119.203 102.358 119.203 101.031C119.203 100.789 119.203 100.488 119.142 100.246C118.839 98.6769 117.93 97.5302 116.657 96.5646ZM116.172 102.66C115.991 103.022 115.748 103.324 115.445 103.686C114.9 104.29 114.9 104.29 114.354 103.807C113.142 102.721 111.93 101.695 110.717 100.608C110.596 100.488 110.475 100.367 110.354 100.246C110.232 100.125 110.232 100.005 110.293 99.884C111.02 98.9787 111.748 98.1338 113.142 98.1338C113.445 98.1338 113.809 98.2545 114.112 98.4355C115.021 98.858 115.687 99.6426 116.172 100.488C116.597 101.212 116.536 101.936 116.172 102.66ZM119.021 101.393C119.021 101.332 119.021 101.332 119.021 101.272C119.021 101.212 119.021 101.212 119.082 101.151C119.082 101.212 119.082 101.212 119.082 101.272C119.021 101.272 119.021 101.332 119.021 101.393Z" fill="#F7911F"/>
<path d="M87.1396 112.981C86.0486 111.653 84.5939 111.17 82.8968 111.23C82.0483 111.291 81.1997 111.472 80.4118 111.834C79.1995 112.377 78.4116 113.222 77.9267 114.489C77.1994 116.24 77.563 117.99 78.1692 119.619C78.8965 121.551 80.533 122.456 82.4119 122.577C83.6848 122.577 84.7152 122.516 85.6849 122.033C87.2002 121.309 88.2306 120.223 88.3518 118.473C88.7155 117.99 88.4124 117.386 88.4731 116.843C88.5337 115.395 88.0488 114.067 87.1396 112.981ZM84.9576 119.318C84.2303 120.223 82.1695 120.464 81.2603 119.257C80.533 118.292 79.9875 116.059 80.8967 114.61C81.6846 113.282 84.0484 112.981 85.0182 114.61C85.4425 115.334 85.6849 116.179 85.6849 117.145C85.5637 117.869 85.5031 118.654 84.9576 119.318Z" fill="#F7911F"/>
<path d="M72.8353 111.653C71.8049 111.351 70.7139 111.23 69.6229 111.049C69.0774 110.989 68.5319 110.989 67.9864 110.808C67.5015 110.627 67.1984 110.868 67.0772 111.411C67.0166 111.592 67.0166 111.773 67.0166 111.955C66.8347 113.765 66.5317 115.576 66.2286 117.386C66.0468 118.473 65.9256 119.499 65.7437 120.585C65.6831 120.887 65.5619 121.249 66.0468 121.37C66.168 121.43 65.9862 121.37 66.0468 121.43C65.9862 121.43 65.865 121.43 65.8044 121.551C66.5317 121.671 67.259 121.792 67.9864 121.852C68.4106 121.913 68.5925 121.792 68.5925 121.37C68.5925 120.404 68.8349 119.499 68.8955 118.593C68.9561 117.929 69.2592 117.748 69.8653 117.99C70.1077 118.111 70.1684 118.352 70.2896 118.533C70.6533 119.619 71.0775 120.645 71.4412 121.732C71.5624 122.154 71.7442 122.456 72.2898 122.456C73.0171 122.516 73.7444 122.637 74.4718 122.758C74.593 122.758 74.7748 122.878 74.8354 122.697C74.896 122.516 74.896 122.335 74.7142 122.215C74.4111 122.033 74.4111 121.732 74.2899 121.43C74.1687 121.128 74.0475 120.766 73.9263 120.525C73.5626 119.861 73.3201 119.137 73.0171 118.412C72.8959 118.05 72.8959 117.929 73.2595 117.748C74.0475 117.386 74.7142 116.903 75.0173 115.938C75.2597 115.214 75.3203 114.55 75.0779 113.825C74.7748 112.679 73.9869 111.955 72.8353 111.653ZM71.4412 116.059C71.2594 116.119 71.0775 116.119 70.9563 116.119C70.532 116.179 70.1078 115.938 69.6835 115.938C69.441 115.938 69.3804 115.757 69.3804 115.515C69.441 114.851 69.5622 114.188 69.6229 113.524C69.6835 113.282 69.8047 113.101 70.0471 113.162C70.5926 113.222 71.1987 113.282 71.7442 113.524C72.2897 113.765 72.5322 114.248 72.5322 114.791C72.411 115.455 72.0473 115.938 71.4412 116.059Z" fill="#F7911F"/>
<path d="M110.232 109.42C110.111 109.118 109.929 109.058 109.687 109.299C109.202 109.661 108.717 109.963 108.293 110.265C107.687 110.687 107.081 111.11 106.535 111.472C106.232 111.653 105.99 111.653 105.808 111.351C105.565 110.929 105.262 110.566 105.02 110.144C104.899 109.963 104.899 109.782 105.08 109.601C105.262 109.42 105.444 109.299 105.626 109.118C106.111 108.756 106.596 108.454 107.081 108.092C107.444 107.851 108.05 107.669 108.111 107.307C108.172 106.885 107.687 106.523 107.384 106.1C107.081 105.678 107.081 105.678 106.656 105.98C105.747 106.583 104.838 107.187 103.929 107.79C103.626 107.971 103.444 107.971 103.262 107.669C103.202 107.549 103.141 107.488 103.02 107.368C102.292 106.342 102.292 106.161 103.383 105.617C104.293 105.135 105.08 104.471 105.929 103.928C106.111 103.807 106.171 103.626 106.05 103.445C105.808 103.083 105.565 102.781 105.323 102.479C105.02 102.117 104.899 102.057 104.474 102.358C102.717 103.565 100.898 104.712 99.2012 105.98C98.9588 106.161 98.9588 106.281 99.1406 106.523C99.3224 106.764 99.4437 107.006 99.6255 107.247C100.656 108.635 101.626 110.023 102.535 111.532C102.656 111.713 102.898 111.713 102.959 111.955C103.141 112.799 103.808 113.403 104.171 114.127C104.414 114.61 104.777 114.972 105.141 115.334C105.565 114.912 106.05 114.67 106.535 114.369C107.141 113.946 107.747 113.584 108.293 113.101C108.535 112.86 108.657 112.618 109.02 112.618C109.263 112.618 109.566 112.437 109.687 112.075C109.748 111.834 109.929 111.773 110.172 111.773C110.232 111.773 111.142 110.929 111.081 110.868C111.081 110.808 111.02 110.687 111.02 110.627C110.717 110.204 110.414 109.842 110.232 109.42Z" fill="#F7911F"/>
<path d="M45.6208 98.9183C45.6814 98.7976 45.742 98.6769 45.8026 98.6166C46.045 98.3148 45.9844 98.0734 45.742 97.832C45.5602 97.6509 45.3783 97.4699 45.1965 97.2285C45.1359 97.1681 45.0147 97.0474 45.1359 96.9267C45.0753 96.8663 45.0147 96.806 44.954 96.7456C44.8934 96.806 44.8328 96.806 44.7722 96.7456C44.7722 96.7456 44.7722 96.6853 44.8328 96.6249C44.7722 96.5646 44.7116 96.5042 44.651 96.4439C44.5904 96.4439 44.5298 96.5042 44.5298 96.4439C44.1055 95.9007 43.6206 96.0818 43.0751 96.2628C41.378 96.9267 39.7415 97.7113 38.0444 98.3148C37.9838 98.2545 37.9231 98.2545 37.8625 98.2545C37.6807 98.2545 37.5595 98.3752 37.3776 98.4355C37.4383 98.7373 37.1958 98.6769 37.014 98.7373C36.0442 99.0994 35.0744 99.4615 34.1046 99.884C33.741 100.005 33.741 100.125 33.9834 100.367C34.2865 100.729 34.6501 101.091 34.9532 101.453C35.1956 101.695 35.4381 101.755 35.7411 101.574C36.1048 101.393 36.4685 101.272 36.7715 101.091C37.0746 100.97 37.2564 100.97 37.4989 101.212C38.2262 101.996 38.9535 102.781 39.5596 103.626C39.6809 103.747 39.8021 103.928 39.7415 104.169C39.7415 104.169 39.7415 104.229 39.6809 104.229H39.6203C39.5596 104.29 39.499 104.35 39.4384 104.471C39.3778 104.531 39.3172 104.652 39.3172 104.712C39.3778 104.833 39.3778 104.954 39.1354 104.954C39.0748 105.014 39.0141 105.074 39.0141 105.135C39.0748 105.255 39.1354 105.376 38.8929 105.376C38.8323 105.436 38.8323 105.497 38.7717 105.557C38.8929 106.1 39.3778 106.342 39.6809 106.764C39.8627 107.006 40.2264 107.187 40.1658 107.549C40.2264 107.609 40.2264 107.67 40.287 107.73C40.8325 107.247 41.0749 106.583 41.4386 105.98C42.8326 103.686 44.1661 101.272 45.6208 98.9183ZM39.9839 101.212C39.8021 100.91 39.3172 100.729 39.3778 100.367C39.499 99.9443 39.9839 99.884 40.3476 99.7633C41.1962 99.4012 42.0447 99.0994 42.8933 98.7373C42.8933 98.7976 42.9539 98.7976 42.9539 98.858C42.2871 99.9443 41.5598 101.031 40.8931 102.177C40.4688 101.876 40.1658 101.574 39.9839 101.212Z" fill="#F7911F"/>
<path d="M54.349 116.662C54.1672 117.205 54.1672 117.205 54.7127 117.447C55.1369 117.628 55.5612 117.748 55.9855 117.929C56.2885 118.05 56.4704 117.99 56.531 117.688C56.6522 117.326 56.834 117.024 56.9553 116.662C57.1371 116.179 57.3189 115.757 57.5008 115.334C57.7432 114.791 57.7432 114.791 58.3493 114.972C58.713 115.093 59.016 115.214 59.3797 115.395C59.8646 115.636 60.4101 115.696 60.9556 115.696C62.8345 115.877 63.8649 114.851 64.4104 113.162C64.7741 112.015 64.5923 110.989 63.7437 110.084C63.6831 110.023 63.5619 109.963 63.6225 109.782C63.5619 109.721 63.5013 109.661 63.4407 109.601C63.3194 109.721 63.1982 109.661 63.1376 109.601C62.3497 108.997 61.3799 108.695 60.4707 108.333C59.8646 108.092 59.3191 107.851 58.713 107.609C58.1069 107.368 57.9857 107.428 57.7432 108.032C57.3795 108.937 57.0159 109.842 56.7128 110.687C56.6522 110.747 56.7128 110.868 56.531 110.868C56.4704 111.049 56.3492 111.17 56.2885 111.351C56.2885 111.955 55.9855 112.437 55.743 112.981C55.3188 114.248 54.8339 115.455 54.349 116.662ZM58.713 112.679C59.016 111.955 59.2585 111.17 59.5615 110.446C59.6828 110.204 59.804 110.084 60.0464 110.204C60.5313 110.385 61.0162 110.566 61.3799 110.868C61.8648 111.291 62.0466 111.894 61.8042 112.498C61.5617 113.162 61.0162 113.584 60.3495 113.584C59.8646 113.524 59.3797 113.282 58.8342 113.101C58.713 113.101 58.6524 112.92 58.713 112.679Z" fill="#F7911F"/>
<path d="M51.4395 110.747C52.5305 110.808 53.379 110.446 54.0457 109.601C54.6519 108.877 55.0761 108.092 55.0155 107.126C55.0155 106.704 54.8943 106.281 54.6519 105.919C54.5306 105.738 54.3488 105.557 54.47 105.316C54.3488 105.195 54.2882 105.074 54.167 104.954C53.8033 105.014 53.7427 104.652 53.5609 104.531C52.4092 103.747 51.3182 102.962 50.1666 102.177C49.7424 101.876 49.7424 101.876 49.4393 102.358C48.7726 103.264 48.1665 104.109 47.5604 105.014C47.4997 105.135 47.4391 105.376 47.1967 105.316C47.1361 105.376 47.0755 105.436 47.0149 105.497C47.0149 105.919 46.833 106.161 46.4694 106.342C46.4087 106.402 46.3481 106.462 46.2875 106.523C46.3481 106.764 46.2875 106.885 46.0451 106.885L45.9845 106.945C45.9239 107.006 45.9239 107.006 45.8632 107.066C45.8632 107.126 45.8632 107.187 45.8632 107.247C45.8632 107.307 45.8026 107.307 45.6814 107.307C45.6208 107.368 45.6208 107.488 45.5602 107.549C45.3784 108.213 44.8935 108.695 44.5298 109.239C44.2874 109.54 44.1055 109.842 43.8631 110.144C43.7418 110.325 43.7419 110.506 43.9843 110.687C44.4086 110.929 44.8329 111.23 45.1965 111.532C45.4996 111.773 45.742 111.713 45.9239 111.411C46.2269 110.929 46.5906 110.446 46.9542 110.023C47.0149 109.963 47.0755 109.782 47.1967 109.842C47.2573 109.782 47.2573 109.721 47.3179 109.661C47.2573 109.54 47.3179 109.48 47.4391 109.48C47.5604 109.42 47.6816 109.299 47.8028 109.239C47.8634 109.239 47.8634 109.239 47.924 109.178C48.4695 109.239 48.8332 109.721 49.2575 109.963C49.9242 110.385 50.5909 110.687 51.4395 110.747ZM49.3181 106.945C49.6817 106.402 50.0454 105.859 50.4091 105.376C50.6515 105.014 50.7727 105.014 51.1364 105.255C51.5001 105.497 51.8031 105.738 52.1062 106.04C52.5305 106.523 52.6517 107.006 52.3486 107.549C52.0456 108.152 51.6819 108.575 50.894 108.635C50.7121 108.635 50.5303 108.575 50.3485 108.454C50.0454 108.273 49.803 108.092 49.4999 107.911C48.9544 107.488 48.9544 107.488 49.3181 106.945Z" fill="#F7911F"/>
<path d="M90.8973 113.825C92.2914 115.515 93.6854 117.205 95.0189 118.895C95.3825 119.378 95.4431 119.318 95.9886 119.137C96.5947 118.895 97.1402 118.714 97.7464 118.473C98.0494 118.352 98.11 118.231 98.11 117.929C98.11 117.567 98.0494 117.266 98.11 116.903C98.11 116.662 98.11 116.481 98.11 116.24C97.9888 116.24 97.9282 116.179 97.9282 116.059C97.9282 114.489 97.6858 112.86 97.7464 111.291C97.7464 111.17 97.807 111.049 97.807 110.929C97.807 110.868 97.807 110.808 97.807 110.747C97.807 110.687 97.807 110.627 97.7464 110.566C97.5039 110.325 97.6251 110.023 97.6251 109.782C97.6251 109.42 97.5645 109.058 97.6857 108.756C97.7464 108.575 97.6857 108.394 97.6857 108.273C97.3221 108.032 97.6858 107.609 97.4433 107.247C96.7766 107.368 96.1099 107.73 95.4431 107.971C95.3219 108.032 95.3219 108.152 95.2613 108.273C95.2613 108.454 95.2613 108.575 95.2613 108.756C95.5037 108.756 95.4431 108.997 95.4431 109.118C95.4431 109.42 95.5037 109.721 95.3825 110.023C95.3825 110.204 95.3825 110.446 95.3825 110.627C95.5644 110.627 95.5644 110.747 95.5644 110.868C95.5644 111.17 95.625 111.411 95.5644 111.713C95.5644 111.894 95.5037 112.015 95.5037 112.196C95.5037 112.377 95.5037 112.498 95.625 112.679C95.8068 112.799 95.8068 112.92 95.6856 113.101C95.6856 113.282 95.6856 113.403 95.6856 113.584C95.6856 113.644 95.6856 113.765 95.6856 113.825C95.6856 113.886 95.7462 114.007 95.7462 114.067C95.928 114.308 95.928 114.369 95.8068 114.731C95.8068 114.912 95.8068 115.093 95.8068 115.274C95.8068 115.395 95.8068 115.515 95.8068 115.696C95.8068 115.817 95.8068 115.938 95.7462 116.059C95.1401 115.214 94.4734 114.55 93.9279 113.765C93.2005 112.739 92.4126 111.834 91.7459 110.808C91.6246 110.566 91.3822 110.385 91.2004 110.204C90.7761 109.782 90.5942 109.782 90.1094 110.084C89.8063 110.265 89.5032 110.325 89.2002 110.446C89.0184 110.506 88.8971 110.566 88.7153 110.627C88.5335 110.747 88.4729 110.868 88.5941 111.11C88.8971 111.592 89.2002 112.075 89.6245 112.498C89.9881 112.86 90.2306 113.282 90.5942 113.644C90.7761 113.463 90.8367 113.705 90.8973 113.825Z" fill="#F7911F"/>
<path d="M64.2285 110.385C64.0467 110.204 63.8648 110.023 63.6224 109.842C63.5618 110.023 63.683 110.084 63.7436 110.144C64.5922 111.049 64.774 112.075 64.4103 113.222C63.8648 114.851 62.7738 115.938 60.9555 115.757C60.41 115.696 59.9251 115.636 59.3796 115.455C59.0766 115.334 58.7129 115.153 58.3492 115.033C57.7431 114.791 57.7431 114.851 57.5007 115.395C57.3188 115.817 57.137 116.3 56.9552 116.722C56.834 117.085 56.6521 117.386 56.5309 117.748C56.4097 118.05 56.2278 118.111 55.9854 117.99C55.5611 117.809 55.1368 117.688 54.7126 117.507C54.1671 117.326 54.1671 117.326 54.3489 116.722C54.8338 115.515 55.3187 114.308 55.7429 113.101C55.9248 112.558 56.2884 112.075 56.2884 111.472C55.8642 112.256 55.6217 113.101 55.2581 113.946C54.8338 114.972 54.4701 115.998 53.9246 116.964C53.7428 117.326 53.7428 117.386 54.1064 117.507C54.7126 117.688 55.3187 117.99 55.9248 118.231C56.4703 118.473 56.5915 118.412 56.7733 117.869C57.0764 117.085 57.3794 116.3 57.6825 115.515C57.8037 115.214 57.925 115.093 58.228 115.274C59.0766 115.757 60.0463 115.998 61.0161 116.059C62.1677 116.179 63.1981 115.817 63.8648 114.912C64.3497 114.248 64.6528 113.463 64.774 112.679C64.774 112.558 64.774 112.377 64.774 112.256C64.774 112.075 64.774 111.955 64.774 111.773C64.7134 111.17 64.5316 110.747 64.2285 110.385Z" fill="#F7911F"/>
<path d="M46.0452 97.8923C45.9846 97.7716 45.8633 97.7113 45.8027 97.5906C45.6209 97.3492 45.3784 97.1078 45.136 96.9267C45.0148 97.0474 45.136 97.1681 45.1966 97.2285C45.3784 97.4095 45.5603 97.6509 45.7421 97.832C45.9846 98.0734 46.0452 98.3148 45.8027 98.6166C45.7421 98.7373 45.6815 98.858 45.6209 98.9183C44.1662 101.272 42.8328 103.747 41.4387 106.1C41.0751 106.704 40.8326 107.368 40.2871 107.851C40.2871 107.971 40.2871 108.092 40.5296 108.032C40.7114 107.971 40.7114 107.79 40.772 107.669C42.5903 104.652 44.3481 101.695 46.1664 98.6769C46.227 98.3752 46.2876 98.1941 46.0452 97.8923Z" fill="#F7911F"/>
<path d="M55.0763 108.092C55.1369 107.851 55.1975 107.609 55.1975 107.368C55.2581 106.643 55.0156 105.919 54.4095 105.316C54.3489 105.557 54.5308 105.738 54.5914 105.919C54.8338 106.281 54.8944 106.704 54.955 107.126C55.0156 108.092 54.5914 108.877 53.9853 109.601C53.2579 110.446 52.47 110.808 51.379 110.747C50.591 110.687 49.9243 110.325 49.197 109.963C48.7121 109.721 48.409 109.299 47.8635 109.178C48.5909 110.084 49.6212 110.566 50.6516 110.868C51.6214 111.17 52.6518 111.049 53.4398 110.385C54.2883 109.842 54.8338 109.058 55.0763 108.092Z" fill="#F7911F"/>
<path d="M39.681 104.29C39.8022 104.048 39.681 103.867 39.5598 103.686C38.9537 102.841 38.2263 102.057 37.499 101.272C37.2566 101.031 37.0747 101.031 36.7717 101.151C36.408 101.332 36.0443 101.453 35.7413 101.634C35.4382 101.815 35.1958 101.755 34.9533 101.513C34.6503 101.151 34.3472 100.789 33.9836 100.427C33.7411 100.186 33.7411 100.065 34.1048 99.9443C35.0746 99.5219 36.0443 99.1597 37.0141 98.7976C37.1353 98.7373 37.4384 98.7976 37.3778 98.4958C36.0443 99.039 34.7715 99.5219 33.3774 100.065C33.9229 100.669 34.4078 101.212 34.8927 101.755C35.2564 102.177 35.317 102.177 35.8019 101.936C36.1656 101.755 36.5292 101.634 36.8323 101.453C37.0747 101.272 37.2566 101.332 37.4384 101.574C38.1051 102.298 38.7112 103.083 39.3779 103.807C39.4992 103.928 39.6204 104.109 39.6204 104.29C39.6204 104.29 39.6204 104.29 39.681 104.29Z" fill="#F7911F"/>
<path d="M98.4132 117.929C98.4132 117.628 98.4132 117.326 98.3525 117.085C98.3525 117.024 98.3525 116.903 98.1707 116.964C98.1101 117.266 98.1101 117.628 98.1707 117.99C98.1707 118.292 98.1101 118.412 97.807 118.533C97.2009 118.714 96.6554 118.955 96.0493 119.197C95.5038 119.438 95.4432 119.438 95.0795 118.955C93.6855 117.266 92.2914 115.576 90.958 113.886C90.8368 113.765 90.7761 113.584 90.5943 113.644C90.5337 113.825 90.7155 113.946 90.8368 114.067C91.6853 115.153 92.5945 116.179 93.443 117.266C94.1704 118.111 94.8371 119.016 95.5038 119.861C96.2918 119.499 97.0797 119.137 97.8677 118.895C98.5344 118.533 98.3525 118.533 98.4132 117.929Z" fill="#F7911F"/>
<path d="M47.4998 105.014C48.1059 104.109 48.7727 103.264 49.3788 102.358C49.6818 101.936 49.6818 101.936 50.1061 102.177C51.2577 102.962 52.3487 103.747 53.5003 104.531C53.6822 104.652 53.8034 105.014 54.1065 104.954C54.0458 104.652 53.8034 104.531 53.6216 104.41C52.6518 103.626 51.6214 102.962 50.6516 102.238C49.6818 101.514 49.6818 101.514 49.0757 102.479C48.9545 102.66 48.8333 102.781 48.7121 102.962C48.2272 103.747 47.5604 104.41 47.1968 105.255C47.3786 105.316 47.4392 105.135 47.4998 105.014Z" fill="#F7911F"/>
<path d="M46.8937 110.023C46.53 110.506 46.227 110.929 45.8633 111.411C45.6815 111.713 45.439 111.713 45.136 111.532C44.7117 111.23 44.348 110.929 43.9238 110.687C43.6813 110.506 43.6813 110.385 43.8025 110.144C44.045 109.842 44.2874 109.54 44.4693 109.239C44.8329 108.695 45.3178 108.213 45.4996 107.549C44.7117 108.394 44.1056 109.42 43.3783 110.325C43.257 110.506 43.3176 110.627 43.4995 110.747C44.045 111.17 44.6511 111.532 45.1966 111.955C45.5603 112.196 45.7421 112.196 45.9845 111.773C46.2876 111.23 46.7119 110.687 47.0755 110.144L47.1361 110.084C47.1968 110.023 47.2574 109.963 47.1968 109.842C47.0149 109.782 46.9543 109.963 46.8937 110.023Z" fill="#F7911F"/>
<path d="M56.7127 110.747C57.0763 109.842 57.44 108.937 57.743 108.092C57.9855 107.488 58.0461 107.428 58.7128 107.669C59.3189 107.911 59.8644 108.152 60.4706 108.394C61.3797 108.756 62.3495 109.058 63.1374 109.661C63.2587 109.721 63.3193 109.782 63.4405 109.661C63.1374 109.299 62.7132 109.118 62.2889 108.937C60.9554 108.394 59.622 107.851 58.2885 107.307C57.9855 107.187 57.8643 107.307 57.743 107.609C57.44 108.333 57.1369 109.058 56.8945 109.782C56.7733 110.204 56.4702 110.566 56.4702 111.049C56.652 110.929 56.652 110.808 56.7127 110.747Z" fill="#F7911F"/>
<path d="M43.0752 96.3231C43.6207 96.1421 44.1056 95.961 44.5299 96.5042C44.5299 96.5042 44.5905 96.5042 44.6511 96.5042C44.6511 96.2628 44.4087 96.2024 44.348 96.0817C44.1662 95.78 43.9238 95.78 43.6813 95.9007C41.9236 96.6249 40.1659 97.3491 38.3475 98.1337C38.2263 98.1941 37.9839 98.1941 38.0445 98.4355C39.7416 97.7716 41.3781 96.9267 43.0752 96.3231Z" fill="#F7911F"/>
<path d="M98.0494 116.119C98.0494 116.24 98.1101 116.3 98.2313 116.3C98.2919 116.24 98.2919 116.119 98.2919 116.059C98.2313 114.61 98.1707 113.101 98.1101 111.653C98.1101 111.532 98.0494 111.472 98.0494 111.351C98.0494 111.351 97.9888 111.351 97.9282 111.351C97.7464 112.92 98.0494 114.489 98.0494 116.119Z" fill="#F7911F"/>
<path d="M95.5039 108.032C96.1706 107.79 96.7767 107.428 97.504 107.307C97.7465 107.67 97.4434 108.032 97.7465 108.333C97.9283 108.032 97.8071 107.67 97.8071 107.368C97.8071 107.006 97.6859 107.006 97.3222 107.126C96.9585 107.247 96.5949 107.428 96.2312 107.549C95.9282 107.67 95.6251 107.73 95.322 107.851C95.1402 107.911 95.0796 107.971 95.0796 108.032C95.0796 108.092 95.1402 108.213 95.2614 108.394C95.3826 108.213 95.3826 108.092 95.5039 108.032Z" fill="#F7911F"/>
<path d="M39.681 106.885C39.378 106.462 38.8931 106.221 38.7719 105.678C38.5294 105.738 38.4688 105.919 38.6506 106.1C39.1355 106.644 39.5598 107.247 40.1659 107.669C40.1659 107.247 39.8629 107.126 39.681 106.885Z" fill="#F7911F"/>
<path d="M97.7464 109.842C97.7464 110.084 97.6251 110.385 97.8676 110.627C98.0494 110.144 97.9282 109.661 97.9282 109.178C97.9282 109.118 97.9282 109.118 97.9282 109.058C97.9282 108.997 97.9282 108.997 97.9282 108.937C97.9282 108.877 97.8676 108.816 97.7464 108.816C97.6858 109.178 97.7464 109.54 97.7464 109.842Z" fill="#F7911F"/>
<path d="M95.4431 109.178C95.4431 109.058 95.5038 108.816 95.2613 108.816C95.2613 109.118 95.2007 109.48 95.2613 109.782C95.2613 109.903 95.3219 109.963 95.3825 110.084C95.5644 109.782 95.4431 109.48 95.4431 109.178Z" fill="#F7911F"/>
<path d="M95.6252 110.929C95.6252 110.808 95.6252 110.687 95.4434 110.687C95.4434 110.808 95.4434 110.868 95.4434 110.989C95.4434 111.11 95.4434 111.17 95.4434 111.291C95.4434 111.472 95.504 111.653 95.6252 111.834C95.6858 111.472 95.6252 111.23 95.6252 110.929Z" fill="#F7911F"/>
<path d="M46.9544 105.497C46.712 105.738 46.5302 105.98 46.4089 106.342C46.7726 106.161 47.015 105.859 46.9544 105.497Z" fill="#F7911F"/>
<path d="M95.7464 114.007C95.7464 114.067 95.6858 114.127 95.6858 114.188C95.6858 114.248 95.6858 114.308 95.6858 114.369C95.6858 114.489 95.7464 114.61 95.807 114.67C95.9282 114.308 95.9282 114.248 95.7464 114.007Z" fill="#F7911F"/>
<path d="M95.6251 112.679C95.5645 112.739 95.5645 112.799 95.5645 112.86C95.5645 112.92 95.6251 112.981 95.6857 113.041C95.8069 112.92 95.8675 112.799 95.6251 112.679Z" fill="#F7911F"/>
<path d="M46.227 106.462L46.1664 106.523L46.1058 106.583C46.0452 106.643 46.0452 106.704 46.0452 106.825C46.2876 106.885 46.3482 106.704 46.227 106.462Z" fill="#F7911F"/>
<path d="M45.8638 107.248C45.8638 107.187 45.8638 107.127 45.8638 107.066C45.7422 107.066 45.7422 107.127 45.6814 107.187V107.248C45.803 107.308 45.8638 107.308 45.8638 107.248Z" fill="#F7911F"/>
<path d="M38.8325 105.437C39.0757 105.437 39.0149 105.316 38.9541 105.195C38.8933 105.256 38.8325 105.316 38.8325 105.437Z" fill="#F7911F"/>
<path d="M39.3178 104.773C39.257 104.773 39.1962 104.833 39.1962 104.833C39.1962 104.894 39.1354 104.894 39.1962 104.954C39.3786 105.015 39.3178 104.894 39.3178 104.773Z" fill="#F7911F"/>
<path d="M47.318 109.662C47.3788 109.662 47.3788 109.662 47.3788 109.662H47.4396C47.4396 109.662 47.4396 109.601 47.4396 109.541C47.318 109.48 47.2572 109.541 47.318 109.662Z" fill="#F7911F"/>
<path d="M44.7722 96.7462C44.833 96.8067 44.8938 96.8067 44.9546 96.7462C44.9546 96.6857 44.9546 96.6857 44.9546 96.6251C44.9546 96.6251 44.8938 96.5646 44.833 96.5646C44.833 96.6251 44.7722 96.6857 44.7722 96.7462Z" fill="#F7911F"/>
<path d="M58.228 30.7198C58.2888 30.7198 58.2888 30.7803 58.3496 30.7803C58.4104 30.7803 58.4104 30.7198 58.4712 30.7198C58.4104 30.7198 58.4104 30.6592 58.3496 30.6592C58.2888 30.6592 58.2888 30.7198 58.228 30.7198Z" fill="#F7911F"/>
<path d="M43.8632 40.9796C43.8632 40.8589 43.8632 40.7382 43.8632 40.6175C43.8026 40.7382 43.742 40.7985 43.8632 40.9796Z" fill="#F7911F"/>
<path d="M35.0745 42.7298C35.1353 42.7904 35.1353 42.7904 35.0745 42.7298V42.7298Z" fill="#F7911F"/>
<path d="M64.3498 28.3055C64.0467 28.3055 63.7437 28.3055 63.5012 28.6072C63.6224 28.6072 63.8043 28.6072 63.9255 28.6072C63.9861 28.5469 64.0467 28.4865 64.1073 28.4865C64.1679 28.4865 64.2286 28.4865 64.3498 28.4865C64.3498 28.4262 64.3498 28.3658 64.3498 28.3055Z" fill="#F7911F"/>
<path d="M64.9557 28.1244C64.8951 28.0037 64.8345 28.0641 64.7133 28.1244C64.6527 28.1244 64.6527 28.1244 64.5921 28.1848C64.5314 28.1848 64.4708 28.2451 64.4708 28.2451C64.4102 28.2451 64.4102 28.3055 64.3496 28.3659C64.4708 28.3659 64.5921 28.3659 64.7739 28.3659C64.8951 28.2451 65.0163 28.1244 64.9557 28.1244Z" fill="#F7911F"/>
<path d="M66.3499 27.5812C66.2893 27.5812 66.2286 27.6416 66.1074 27.7019C66.2286 27.7019 66.4105 27.7019 66.5317 27.7019C66.4711 27.6416 66.4711 27.6416 66.4105 27.5812H66.3499Z" fill="#F7911F"/>
<path d="M66.1081 27.702C66.0474 27.702 65.9866 27.702 65.9866 27.702C65.9258 27.702 65.8042 27.702 65.865 27.7625C65.865 27.823 65.9866 27.823 66.0474 27.7625C66.0474 27.823 66.1081 27.7625 66.1081 27.702Z" fill="#F7911F"/>
<path d="M65.3803 28.0039C65.4411 27.9434 65.4411 28.0039 65.3803 28.0039C65.4411 27.9434 65.3803 27.9434 65.3803 27.9434C65.3195 27.9434 65.3195 27.9434 65.3803 28.0039Z" fill="#F7911F"/>
<path d="M118.96 101.272C118.96 101.333 118.96 101.333 118.96 101.394C119.021 101.333 119.021 101.272 118.96 101.272C119.021 101.212 119.021 101.212 119.021 101.151C119.021 101.151 118.96 101.212 118.96 101.272Z" fill="#F7911F"/>
<path d="M125.991 88.4169C129.325 88.4169 132.113 88.4169 132.174 88.4169C132.234 88.4169 134.174 88.4169 136.477 88.4169C138.78 88.4169 143.387 88.4169 146.72 88.4169H148.175C151.509 88.4169 154.236 85.701 154.236 82.3816V53.4123C154.236 50.0929 151.509 47.377 148.175 47.377H147.023C143.69 47.377 139.023 47.377 136.598 47.377C134.174 47.377 129.507 47.377 126.173 47.377H29.559C26.2254 47.377 21.5583 47.377 19.2551 47.377C16.9519 47.377 12.2848 47.377 8.95121 47.377H7.37532C4.04171 47.377 1.31421 50.0929 1.31421 53.4123V82.3816C1.31421 85.701 4.04171 88.4169 7.37532 88.4169H9.07244C12.406 88.4169 17.0731 88.4169 19.4369 88.4169C21.8008 88.4169 26.4678 88.4169 29.8015 88.4169H125.991Z" fill="white"/>
<path d="M125.991 88.4169C129.325 88.4169 132.113 88.4169 132.174 88.4169C132.234 88.4169 134.174 88.4169 136.477 88.4169C138.78 88.4169 143.387 88.4169 146.72 88.4169H148.175C151.509 88.4169 154.236 85.701 154.236 82.3816V53.4123C154.236 50.0929 151.509 47.377 148.175 47.377H147.023C143.69 47.377 139.023 47.377 136.598 47.377C134.174 47.377 129.507 47.377 126.173 47.377H29.559C26.2254 47.377 21.5583 47.377 19.2551 47.377C16.9519 47.377 12.2848 47.377 8.95121 47.377H7.37532C4.04171 47.377 1.31421 50.0929 1.31421 53.4123V82.3816C1.31421 85.701 4.04171 88.4169 7.37532 88.4169H9.07244C12.4061 88.4169 17.0731 88.4169 19.4369 88.4169C21.8008 88.4169 26.4678 88.4169 29.8015 88.4169H125.991Z" stroke="#7F7F7F" stroke-width="2" stroke-miterlimit="10"/>
<path d="M112.536 37.4791C112.536 37.5397 112.536 37.5397 112.536 37.6002C112.596 37.4791 112.596 37.4791 112.536 37.4791Z" fill="#F7911F"/>
<path d="M118.96 35.7289C118.96 35.85 119.021 35.85 118.96 35.7289V35.7289Z" fill="#F7911F"/>
<path d="M112.596 37.5998C112.596 37.5395 112.596 37.5395 112.596 37.4791C112.535 37.5395 112.475 38.143 112.596 37.5998Z" fill="#F7911F"/>
<path d="M115.384 38.2637C117.203 38.6862 119.445 37.8413 118.9 35.5478C118.415 33.6769 116.172 31.6853 114.293 33.0734C113.505 33.6166 113.445 34.6426 112.717 35.2461C112.414 35.3668 111.869 35.0047 111.566 34.9443C110.96 34.8236 110.354 34.884 109.748 35.1254C107.384 36.2721 107.929 39.0483 109.505 40.6175C110.051 41.1607 111.505 41.5228 111.808 42.0659C112.051 42.4281 111.505 42.9109 111.808 43.3334C112.233 43.9369 112.596 44.6008 113.142 45.2043C113.445 44.4197 113.505 43.5748 113.748 42.7298C113.93 42.1263 115.081 42.247 115.566 42.1867C116.415 42.066 117.081 42.0659 116.9 41.1607C116.657 40.1347 116.657 40.195 115.687 40.3761C115.384 40.4364 114.233 40.5571 114.233 40.1347C114.354 39.3501 114.354 38.0223 115.384 38.2637ZM115.748 36.6342C115.566 36.6342 115.627 36.6342 115.748 36.6342V36.6342ZM115.99 34.5218C117.385 34.039 117.869 36.8153 115.869 36.6342C114.657 36.5738 115.081 34.8236 115.99 34.5218ZM112.596 37.5998C112.536 38.0827 112.475 39.7122 112.111 40.014C111.566 40.4364 110.535 38.988 110.475 38.6258C110.111 37.1774 112.475 36.2117 112.596 37.5395C112.596 37.4791 112.596 37.4791 112.596 37.5998Z" fill="#F7911F"/>
<path d="M118.839 35.3064C118.839 35.367 118.839 35.4275 118.9 35.488L118.839 35.3064Z" fill="#F7911F"/>
<path d="M118.9 35.4271C118.9 35.4877 118.9 35.4877 118.96 35.5482C118.96 35.6087 118.96 35.6087 118.96 35.6693C118.96 35.6087 118.9 35.5482 118.9 35.4271Z" fill="#F7911F"/>
<path d="M118.839 35.1859C118.779 35.0649 118.779 35.1254 118.839 35.1859V35.1859Z" fill="#F7911F"/>
<path d="M144.478 66.2674C144.659 66.2071 144.841 66.2071 144.962 66.3278C144.781 66.3881 144.659 66.3881 144.478 66.2674Z" fill="#323C43"/>
<path d="M52.1062 69.7679C52.1062 68.7419 52.2274 67.9573 52.7729 67.2935C53.3184 66.6296 54.5306 66.5089 55.1974 67.1124C55.9853 67.8366 56.1065 68.8626 56.0459 69.8283C56.0459 70.4318 55.8641 70.975 55.561 71.5182C54.8943 72.5442 53.1972 72.5442 52.5911 71.4578C52.288 70.975 52.1668 70.4922 52.1062 69.7679Z" fill="#F6F7F7"/>
<path d="M22.831 80.0279C22.5279 79.9675 22.4067 79.7261 22.2248 79.5451C20.7702 78.0966 19.3155 76.7085 17.9215 75.26C17.5578 74.8979 17.2547 74.7772 16.7698 74.7772C14.7091 74.7772 12.7089 74.7772 10.6481 74.7772C9.31467 74.7772 8.70856 74.1736 8.64795 72.8459C8.64795 71.8802 8.64795 70.9749 8.64795 70.0093C8.64795 69.2851 8.64795 68.5608 8.64795 67.8366C8.64795 67.5348 8.70856 67.2331 8.95101 66.9917C10.7693 65.1811 12.5877 63.3705 14.406 61.6203C14.7697 61.2581 14.7697 61.2581 15.194 61.6203C17.376 63.793 19.558 65.9657 21.74 68.1384C22.1036 68.5005 22.5279 68.6815 23.0734 68.6815C24.3462 68.6212 25.6797 68.6815 26.9525 68.6815C27.6192 68.6815 27.6192 68.6815 27.6192 69.3454C27.6192 70.6128 27.6192 71.8199 27.6192 73.0873C27.6192 74.1133 26.9525 74.7772 25.9221 74.7772C25.1342 74.7772 24.2856 74.7772 23.4977 74.7772C23.134 74.7772 23.0128 74.8979 23.0128 75.26C23.0128 76.6481 23.0128 77.9759 23.0128 79.364C22.9522 79.6054 23.0734 79.8468 22.831 80.0279Z" fill="#8B9EAA"/>
<path d="M64.4104 65.3621C66.1075 63.0084 69.5623 63.1894 70.7139 65.5432C70.9564 65.3018 71.1382 65.0604 71.3806 64.819C72.5929 63.6723 73.9869 63.3705 75.5022 63.8533C76.9569 64.2758 77.5024 65.4225 77.6842 66.8106C77.7448 67.052 77.7448 67.2934 77.7448 67.5348C77.7448 69.7679 77.7448 71.9406 77.7448 74.1737C77.7448 74.7772 77.7448 74.7772 77.1387 74.7772C76.3507 74.7772 75.5628 74.7772 74.7749 74.7772C74.1687 74.7772 74.1687 74.7772 74.1687 74.1737C74.1687 72.3631 74.1687 70.5525 74.1687 68.7419C74.1687 68.4401 74.1687 68.1384 74.1081 67.8366C73.9869 67.3538 73.8051 66.871 73.2596 66.7503C72.7141 66.6295 72.2292 66.6899 71.8049 67.1124C71.32 67.5952 71.0776 68.1987 71.0776 68.8626C71.0776 70.6128 71.0776 72.4234 71.0776 74.1737C71.0776 74.8375 71.0776 74.8375 70.4109 74.8375C69.6835 74.8375 68.9562 74.8375 68.2289 74.8375C67.5015 74.8375 67.5015 74.8375 67.5015 74.1737C67.5015 72.3631 67.5015 70.5525 67.5015 68.7419C67.5015 68.4401 67.5015 68.1987 67.4409 67.897C67.3197 67.3538 67.0772 66.9313 66.4711 66.8106C65.865 66.6899 65.3801 66.8106 65.0165 67.2934C64.5922 67.7762 64.3497 68.3798 64.3497 69.0437C64.3497 70.7335 64.3497 72.3631 64.3497 74.0529C64.3497 74.234 64.3497 74.3547 64.3497 74.5358C64.3497 74.7772 64.2285 74.8979 63.9861 74.8979C63.0163 74.8979 62.1071 74.8979 61.1373 74.8979C60.8949 74.8979 60.7737 74.7772 60.7737 74.5358C60.7737 74.4151 60.7737 74.234 60.7737 74.1133C60.7737 70.975 60.7737 67.897 60.7737 64.7586C60.7737 64.6379 60.7737 64.5172 60.7737 64.3965C60.7737 64.1551 60.8343 64.0344 61.1373 64.0344C62.0465 64.0344 62.9557 64.0344 63.8648 64.0344C64.1073 64.0344 64.2285 64.1551 64.2285 64.3965C64.2285 64.5775 64.2285 64.9397 64.4104 65.3621Z" fill="#F7911F"/>
<path d="M34.7109 67.5348C34.7109 65.3621 34.7109 63.2498 34.7109 61.0771C34.7109 60.896 34.7109 60.7753 34.7109 60.5943C34.7109 60.3529 34.8322 60.2321 35.0746 60.2321C36.0444 60.2321 37.0748 60.2321 38.0446 60.2321C38.4082 60.2321 38.3476 60.4736 38.3476 60.715C38.3476 61.922 38.3476 63.0687 38.3476 64.2758C38.3476 64.6379 38.3476 65 38.3476 65.3621C38.3476 65.7243 38.4688 65.7846 38.8325 65.7846C40.2872 65.7846 41.7418 65.7846 43.2571 65.7846C43.742 65.7846 43.742 65.7846 43.742 65.2414C43.742 63.8533 43.742 62.5256 43.742 61.1374C43.742 60.9564 43.742 60.8357 43.742 60.6546C43.742 60.4132 43.8026 60.2925 44.1057 60.2925C45.0754 60.2925 46.0452 60.2925 47.015 60.2925C47.2574 60.2925 47.3787 60.4132 47.3787 60.6546C47.3787 60.7753 47.3787 60.9564 47.3787 61.0771C47.3787 65.3621 47.3787 69.6472 47.3787 73.9322C47.3787 74.0529 47.3787 74.1737 47.3787 74.2944C47.4393 74.6565 47.2574 74.7772 46.8938 74.7772C46.0452 74.7772 45.1967 74.7772 44.3481 74.7772C43.742 74.7772 43.742 74.7772 43.742 74.1133C43.742 72.6045 43.742 71.0957 43.742 69.5868C43.742 69.4058 43.742 69.2851 43.742 69.104C43.742 68.8023 43.6208 68.7419 43.3783 68.7419C42.4692 68.7419 41.56 68.7419 40.5902 68.7419C40.0447 68.7419 39.4992 68.7419 38.9537 68.7419C38.4082 68.7419 38.4082 68.7419 38.4082 69.3454C38.4082 70.8542 38.4082 72.3631 38.4082 73.8719C38.4082 73.9926 38.4082 74.1737 38.4082 74.2944C38.4688 74.6565 38.287 74.7772 37.9233 74.7772C37.0748 74.7772 36.1656 74.7772 35.317 74.7772C34.7715 74.7772 34.7716 74.7772 34.7716 74.1737C34.7716 72.4838 34.7716 70.7939 34.7716 69.104C34.7109 68.5608 34.7109 68.0177 34.7109 67.5348Z" fill="#F7911F"/>
<path d="M32.2259 67.1727C31.8016 67.1727 31.4986 67.1727 31.1955 67.1727C28.6499 67.1727 26.1042 67.1727 23.6191 67.1727C23.0736 67.1727 22.71 66.9917 22.3463 66.6296C20.1037 64.3362 17.8005 62.1031 15.4972 59.8097C15.376 59.689 15.3154 59.6286 15.1942 59.5079C14.8305 59.1458 14.8305 59.1458 14.4062 59.5079C12.0424 61.8617 9.61796 64.2154 7.25413 66.6296C6.89046 66.9917 6.46618 67.1727 5.98129 67.1727C5.37518 67.1124 4.82968 67.1727 4.22357 67.1727C4.10235 66.9917 4.28418 66.9313 4.4054 66.8106C7.31474 63.9137 10.2241 61.0167 13.1334 58.1198C13.3759 57.8784 13.6183 57.7577 13.982 57.7577C16.7701 57.7577 19.4976 57.7577 22.2857 57.7577C22.6494 57.7577 22.8918 57.818 23.1949 58.1198C26.1042 61.0771 29.0741 63.974 32.0441 66.9313C32.0441 66.9313 32.1047 66.9917 32.2259 67.1727Z" fill="#F7911F"/>
<path d="M54.1064 74.8979C53.1366 74.9582 52.2275 74.7772 51.3183 74.3547C49.9849 73.7512 49.0757 72.7855 48.6514 71.3974C48.1665 70.0093 48.1665 68.6212 48.5908 67.2331C49.1363 65.4828 50.3485 64.3361 52.1062 63.8533C53.4397 63.4912 54.8337 63.4912 56.1672 63.9137C57.9249 64.4568 59.1371 65.6639 59.622 67.4745C59.9251 68.6212 59.9251 69.7679 59.6826 70.9146C59.1371 73.208 57.3188 74.7772 54.8944 74.9582C54.6519 74.9582 54.4095 74.8979 54.1064 74.8979ZM56.2278 69.3454C56.2278 68.6212 56.1672 68.0177 55.8035 67.4141C55.4399 66.7502 54.955 66.3881 54.167 66.3278C53.3791 66.2674 52.773 66.5692 52.4093 67.2934C51.682 68.6815 51.682 70.13 52.4699 71.4578C53.1972 72.7252 55.0156 72.6648 55.7429 71.3371C56.1672 70.6732 56.2884 70.0093 56.2278 69.3454Z" fill="#F7911F"/>
<path d="M88.0488 71.3974C88.4125 72.001 88.7155 72.6045 89.0792 73.1477C89.2004 73.3891 89.1398 73.5098 88.958 73.6908C88.4125 74.053 87.8063 74.3547 87.2002 74.5961C85.8668 75.0186 84.4727 75.1393 83.0787 74.8979C80.9573 74.5358 79.0783 73.0873 78.7753 70.0697C78.7147 69.1644 78.7753 68.2591 79.0177 67.4141C79.5026 65.7846 80.5936 64.6379 82.2301 64.0947C83.3817 63.6723 84.5939 63.6119 85.8062 63.8533C87.8063 64.3362 88.958 65.6639 89.3822 67.5952C89.5641 68.3194 89.5035 69.0437 89.5641 69.7679C89.5641 70.0697 89.4428 70.1904 89.1398 70.1904C88.9579 70.1904 88.7761 70.1904 88.5943 70.1904C86.7153 70.1904 84.8364 70.1904 82.8968 70.1904C82.2907 70.1904 82.2907 70.2507 82.4119 70.7939C82.6544 71.5785 83.1999 72.0613 83.9878 72.3027C85.2001 72.6648 86.3517 72.3027 87.5033 71.8199C87.6245 71.6388 87.8063 71.5181 88.0488 71.3974ZM86.1092 67.9573C86.0486 66.6296 85.3819 65.9657 84.2303 65.9657C83.0787 65.9657 82.3513 66.7503 82.2301 67.9573C83.5029 67.9573 84.7758 67.9573 86.1092 67.9573Z" fill="#F7911F"/>
<path d="M109.99 65.9657C109.99 65.3018 109.99 64.7586 109.99 64.2758C109.99 63.0687 109.99 61.922 109.99 60.715C109.99 60.2322 109.99 60.1718 110.535 60.1718C111.929 60.1718 111.687 59.9907 111.748 61.3185C111.748 65.4828 111.748 69.6472 111.748 73.8115C111.748 73.9926 111.748 74.1737 111.748 74.3547C111.748 74.6565 111.626 74.7168 111.384 74.7168C110.172 74.7168 110.354 74.8375 110.172 73.8115C110.172 73.6908 110.172 73.5701 110.051 73.5098C109.808 73.5098 109.747 73.6908 109.626 73.8115C107.929 75.5014 104.535 75.4411 103.141 72.9666C101.929 70.7939 101.868 68.5005 103.201 66.3278C104.171 64.6983 106.111 63.974 107.929 64.4569C108.535 64.6379 109.081 64.9397 109.566 65.4225C109.566 65.6036 109.747 65.7243 109.99 65.9657ZM110.051 69.7075C110.051 68.9833 109.929 68.2591 109.626 67.5952C109.444 67.1124 109.141 66.6899 108.717 66.3278C107.384 65.2414 105.505 65.6036 104.596 67.1727C103.686 68.8023 103.686 70.5525 104.656 72.1217C105.687 73.8719 107.99 73.9323 109.202 72.3027C109.808 71.5785 109.99 70.6732 110.051 69.7075Z" fill="#8B9EAA"/>
<path d="M102.413 74.7772C101.929 74.8979 101.383 74.8375 100.898 74.8375C100.595 74.8375 100.535 74.5961 100.474 74.4151C100.171 73.5701 99.8678 72.7855 99.5647 71.9406C99.2011 70.975 99.4435 71.0957 98.4131 71.0957C96.8372 71.0957 95.2613 71.0957 93.7461 71.0957C93.14 71.0957 93.14 71.0957 92.8975 71.6992C92.5945 72.5441 92.2914 73.4494 91.9883 74.2944C91.8671 74.6565 91.6853 74.8375 91.261 74.8375C89.7457 74.8375 89.9276 74.9582 90.4124 73.6305C91.9277 69.5265 93.5036 65.3621 95.0189 61.2581C95.2007 60.715 95.2007 60.715 95.8675 60.715C97.2009 60.715 97.2009 60.715 97.6858 61.922C99.2011 65.9657 100.777 70.0697 102.292 74.1737C102.353 74.2944 102.474 74.5358 102.413 74.7772ZM98.7162 69.5265C97.8676 67.2331 97.0797 64.9397 96.2311 62.6463C96.1099 62.767 96.1099 62.767 96.0493 62.8273C95.2613 64.9397 94.4734 67.1124 93.6854 69.2247C93.5642 69.5868 93.5642 69.6472 93.9885 69.6472C95.5038 69.6472 97.0191 69.6472 98.5343 69.6472C98.595 69.6472 98.595 69.5868 98.7162 69.5265Z" fill="#8B9EAA"/>
<path d="M143.508 69.7679C143.568 70.7335 143.387 71.6388 142.902 72.5441C142.114 73.9926 140.901 74.8375 139.265 74.9582C137.628 75.1393 136.174 74.7168 135.083 73.4494C133.992 72.1216 133.689 70.6128 133.871 68.9229C133.992 67.7159 134.355 66.6295 135.265 65.7242C136.598 64.3965 138.235 64.0947 140.053 64.5172C141.811 64.9397 142.841 66.1467 143.326 67.8969C143.508 68.5005 143.508 69.104 143.508 69.7679ZM135.628 69.7075C135.568 70.4921 135.689 71.2767 136.053 72.0009C136.598 73.0873 137.507 73.6305 138.659 73.6305C139.871 73.6305 140.78 73.0269 141.265 71.8802C141.871 70.4318 141.871 68.9229 141.265 67.4745C140.78 66.4485 139.932 65.8449 138.78 65.7846C137.568 65.7242 136.659 66.2674 136.113 67.2934C135.75 68.0177 135.628 68.8626 135.628 69.7075Z" fill="#8B9EAA"/>
<path d="M129.688 64.3361C130.901 64.3965 131.992 64.6982 132.901 65.4828C133.143 65.6639 133.265 65.8449 133.022 66.0864C133.022 66.0864 133.022 66.1467 132.961 66.1467C132.477 66.9313 132.477 66.9313 131.749 66.4485C130.84 65.8449 129.81 65.6035 128.719 65.9053C128.173 66.0864 127.749 66.3881 127.688 67.052C127.628 67.6555 127.991 68.078 128.476 68.3194C129.022 68.6212 129.688 68.7419 130.295 68.9833C130.84 69.1644 131.386 69.3454 131.87 69.6472C132.84 70.1903 133.325 70.9749 133.265 72.1216C133.204 73.2683 132.658 74.0529 131.689 74.5358C130.113 75.3203 128.476 75.1996 126.9 74.3547C126.415 74.1133 126.052 73.8115 125.688 73.4494C125.506 73.2683 125.506 73.1476 125.688 72.9666C125.749 72.9062 125.749 72.9062 125.809 72.8459C126.476 72.1216 126.476 72.1216 127.203 72.7252C128.113 73.4494 129.143 73.8115 130.295 73.5701C130.598 73.5098 130.901 73.389 131.204 73.1476C131.749 72.6045 131.81 71.8802 131.264 71.3371C131.022 71.0353 130.658 70.9146 130.295 70.7335C129.567 70.4318 128.779 70.1904 128.052 69.8886C127.81 69.8282 127.567 69.7075 127.325 69.5265C125.628 68.4401 125.567 66.1467 127.264 65C127.991 64.5172 128.84 64.3965 129.688 64.3361Z" fill="#8B9EAA"/>
<path d="M117.324 72.9062C117.566 72.3027 117.748 71.8199 117.93 71.2767C118.657 69.2247 119.385 67.1727 120.112 65.1207C120.294 64.5775 120.294 64.5775 120.9 64.5775C121.021 64.5775 121.203 64.5775 121.324 64.5775C122.112 64.5775 122.112 64.5775 121.87 65.3018C120.718 68.3194 119.506 71.3371 118.415 74.3547C118.294 74.7168 118.051 74.8375 117.688 74.8375C116.415 74.8375 116.415 74.8375 115.99 73.6908C114.899 70.9146 113.869 68.1384 112.778 65.3018C112.717 65.1207 112.657 64.8793 112.536 64.5775C113.142 64.5775 113.627 64.5775 114.112 64.5775C114.415 64.5775 114.415 64.819 114.536 65C114.778 65.7242 115.081 66.4485 115.324 67.1727C115.93 68.923 116.536 70.6128 117.142 72.3631C117.142 72.5441 117.203 72.7252 117.324 72.9062Z" fill="#8B9EAA"/>
<path d="M146.357 66.2674C146.781 65.7846 147.084 65.3018 147.569 65C148.175 64.5776 148.842 64.3362 149.63 64.3965C150.175 64.4569 150.236 64.5172 150.175 65.0604C150.115 65.4225 150.054 65.7243 149.993 66.0864C149.933 66.1467 149.872 66.1467 149.812 66.1467C147.993 65.845 146.296 67.2934 146.296 69.2247C146.296 70.8543 146.296 72.4234 146.296 74.053C146.296 74.234 146.296 74.3547 146.296 74.5358C146.296 74.7772 146.175 74.8979 145.932 74.8979C145.872 74.8979 145.811 74.8979 145.811 74.8979C144.296 74.8979 144.599 75.079 144.599 73.7512C144.599 71.0353 144.599 68.3194 144.599 65.5432C144.599 65.3622 144.599 65.2415 144.599 65.0604C144.599 64.819 144.72 64.6379 144.963 64.6983C145.023 64.6983 145.084 64.6983 145.084 64.6983C145.387 64.6983 145.811 64.5776 146.054 64.7586C146.296 64.9397 146.114 65.3622 146.175 65.6036C146.235 65.7846 146.296 65.9657 146.357 66.2674Z" fill="#8B9EAA"/>
<path d="M122.9 69.6472C122.9 68.1383 122.9 66.6899 122.9 65.1811C122.9 64.5775 122.9 64.5775 123.506 64.5775C124.9 64.5775 124.658 64.3965 124.658 65.7242C124.658 68.4401 124.658 71.156 124.658 73.8719C124.658 74.0529 124.658 74.1736 124.658 74.3547C124.658 74.6565 124.537 74.8375 124.234 74.8375C122.718 74.7772 122.9 75.0186 122.9 73.6305C122.9 72.2423 122.9 70.9749 122.9 69.6472Z" fill="#8B9EAA"/>
<path d="M125.022 61.2581C125.022 61.922 124.537 62.4652 123.87 62.4652C123.203 62.4652 122.597 61.9824 122.597 61.3185C122.597 60.6546 123.143 60.1114 123.809 60.0511C124.476 60.0511 125.022 60.5339 125.022 61.2581Z" fill="#8B9EAA"/>
<path d="M56.2277 69.3454C56.2277 70.0093 56.1065 70.7335 55.7429 71.3371C55.0155 72.6045 53.1972 72.7252 52.4699 71.4578C51.6819 70.13 51.6819 68.6815 52.4092 67.2934C52.7729 66.6296 53.379 66.3278 54.167 66.3278C54.9549 66.3881 55.4398 66.7503 55.8035 67.4141C56.1671 67.9573 56.2277 68.6212 56.2277 69.3454Z" fill="white"/>
<path d="M86.1091 67.9573C84.7756 67.9573 83.5028 67.9573 82.23 67.9573C82.2906 66.7503 83.0785 65.9657 84.2302 65.9657C85.3818 66.026 86.0485 66.6899 86.1091 67.9573Z" fill="white"/>
<path d="M110.051 69.7075C109.99 70.6732 109.808 71.5785 109.202 72.3631C107.99 73.9926 105.687 73.9322 104.656 72.182C103.686 70.5525 103.686 68.8626 104.596 67.2331C105.505 65.6639 107.384 65.3018 108.717 66.3881C109.141 66.7503 109.445 67.1727 109.626 67.6556C109.929 68.2591 110.051 68.9833 110.051 69.7075Z" fill="white"/>
<path d="M98.7162 69.5265C98.595 69.5868 98.5344 69.6472 98.5344 69.6472C97.0191 69.6472 95.5038 69.6472 93.9885 69.6472C93.5642 69.6472 93.5642 69.5868 93.6855 69.2247C94.4734 67.1124 95.2614 64.9397 96.0493 62.8273C96.0493 62.767 96.1099 62.767 96.2311 62.6463C97.0797 64.9397 97.8676 67.2331 98.7162 69.5265Z" fill="white"/>
<path d="M135.628 69.7076C135.568 68.8626 135.75 68.0177 136.113 67.2935C136.659 66.2675 137.568 65.7243 138.78 65.7846C139.932 65.845 140.78 66.4485 141.265 67.4745C141.871 68.923 141.932 70.4318 141.265 71.8803C140.78 73.027 139.871 73.6305 138.659 73.6305C137.507 73.6305 136.598 73.0873 136.053 72.001C135.75 71.2767 135.628 70.4922 135.628 69.7076Z" fill="white"/>
</g>
<defs>
<clipPath id="clip0_358_131">
<rect width="154.134" height="137.363" fill="white" transform="translate(0.708008)"/>
</clipPath>
</defs>
</svg>
