<svg width="48" height="48" viewBox="0 0 48 48" fill="none" xmlns="http://www.w3.org/2000/svg">
<g clip-path="url(#clip0_358_20)">
<path d="M39.391 5.46564C39.391 4.3445 39.391 3.25258 39.391 2.15912C39.391 1.92843 39.3818 1.69774 39.3956 1.46705C39.4341 0.84112 39.8209 0.445875 40.357 0.468944C40.8731 0.492013 41.226 0.873417 41.2306 1.48705C41.2429 3.2372 41.2367 4.98581 41.2367 6.73596C41.2367 8.55071 41.1689 8.61838 39.3586 8.61838C37.6855 8.61838 36.0123 8.63683 34.3391 8.603C34.0032 8.59685 33.578 8.48612 33.3638 8.26158C33.1774 8.06627 33.0973 7.57259 33.2175 7.33729C33.3515 7.07585 33.7567 6.82055 34.0587 6.80056C35.0925 6.73443 36.134 6.77441 37.1724 6.77288C37.3558 6.77288 37.5376 6.77288 37.764 6.64061C37.3219 6.31765 36.8905 5.98238 36.4375 5.6748C23.2801 -3.27435 5.12311 4.28913 2.21584 19.9282C-0.0412636 32.0716 8.06735 43.7291 20.2249 45.8191C32.4548 47.9214 44.0146 39.6213 45.8942 27.3672C46.0545 26.326 46.0868 25.2633 46.1515 24.2098C46.1962 23.4885 46.5274 23.0671 47.1037 23.0825C47.6768 23.0963 48.0034 23.5224 48.0019 24.2544C47.9957 35.1936 40.1552 44.9256 29.3581 47.3939C16.7075 50.2852 4.04155 42.5895 0.775299 30.0278C-2.67583 16.7617 5.76557 3.148 19.148 0.50893C26.4184 -0.924411 33.028 0.673487 38.9088 5.2042C39.0151 5.28571 39.1229 5.36568 39.2323 5.44411C39.2446 5.45334 39.2677 5.45026 39.391 5.46564Z" fill="#2E83A0"/>
<path d="M12.7354 27.4134C13.5551 27.4134 14.3762 27.4011 15.1959 27.418C15.7998 27.4303 16.1465 27.7379 16.1912 28.2454C16.2389 28.7868 15.8969 29.2297 15.3114 29.2389C13.6413 29.2666 11.9681 29.2774 10.2996 29.222C10.013 29.2128 9.64788 28.9067 9.48149 28.6376C9.24422 28.2531 9.46608 27.8717 9.77576 27.5626C11.0961 26.2492 12.4257 24.9435 13.7184 23.6024C13.9957 23.3149 14.236 22.915 14.3115 22.5305C14.4795 21.6708 13.8863 20.9372 13.0204 20.8004C12.2162 20.6727 11.4551 21.2141 11.281 22.0415C11.261 22.1353 11.2487 22.2306 11.2317 22.326C11.1223 22.975 10.7541 23.2995 10.2041 23.2349C9.66175 23.1718 9.35515 22.7397 9.40291 22.1045C9.51076 20.6389 10.5153 19.4193 11.905 19.0687C13.3825 18.6949 14.8939 19.2717 15.6797 20.5097C16.4685 21.7508 16.3807 23.4164 15.39 24.5283C14.6366 25.3726 13.8077 26.1492 13.0035 26.949C12.8972 27.0551 12.74 27.1104 12.606 27.1889C12.6491 27.2658 12.6923 27.3411 12.7339 27.418L12.7354 27.4134Z" fill="#2E83A0"/>
<path d="M22.3924 25.0389C23.5063 25.248 23.799 25.471 23.7805 26.0631C23.762 26.6399 23.4524 26.8598 22.3908 27.0197C22.3908 27.4303 22.4016 27.8502 22.3877 28.2685C22.3693 28.856 22.001 29.2389 21.4757 29.242C20.9518 29.2451 20.5744 28.8621 20.5497 28.2747C20.5328 27.8579 20.5466 27.4396 20.5466 26.9628C19.5883 26.9628 18.6916 26.9567 17.795 26.9659C17.3158 26.9705 16.8644 26.9321 16.604 26.4492C16.3529 25.9816 16.5871 25.6079 16.8367 25.228C18.0708 23.3549 19.3033 21.4801 20.5266 19.5993C20.8193 19.1486 21.1521 18.7903 21.7407 18.9749C22.3246 19.1579 22.4001 19.6392 22.3955 20.1775C22.3816 21.7893 22.3908 23.3995 22.3908 25.0404L22.3924 25.0389ZM20.4942 25.0942V23.0196C20.0089 23.767 19.5991 24.396 19.1461 25.0942H20.4942Z" fill="#2E83A0"/>
<path d="M35.7592 20.7712C34.5498 20.7712 33.4929 20.7758 32.436 20.7712C31.7303 20.7665 31.2897 20.3897 31.3082 19.8207C31.3267 19.2717 31.7473 18.9287 32.4313 18.9272C34.123 18.9226 35.8147 18.9318 37.5063 18.9226C37.9485 18.9195 38.3152 19.041 38.5093 19.4532C38.7158 19.8915 38.5663 20.2636 38.2443 20.602C36.5989 22.3306 35.8255 24.396 35.8825 26.7783C35.8948 27.2781 35.8979 27.7779 35.8794 28.2777C35.8578 28.8652 35.4773 29.2466 34.9504 29.242C34.425 29.2374 34.0645 28.8529 34.0383 28.2624C33.9258 25.654 34.1492 23.118 35.7577 20.7712H35.7592Z" fill="#2E83A0"/>
<path d="M30.9569 17.5477C30.8568 17.8799 30.8121 18.066 30.7474 18.2444C29.2391 22.389 27.7369 26.5353 26.2055 30.6707C26.0915 30.9799 25.8218 31.3382 25.5384 31.4459C25.2888 31.5412 24.8605 31.3982 24.6124 31.2198C24.2688 30.9722 24.3012 30.5631 24.446 30.1678C25.2379 28.0071 26.016 25.8417 26.8033 23.6794C27.5505 21.6247 28.2993 19.5716 29.0557 17.5215C29.293 16.8787 29.7922 16.5895 30.2914 16.8602C30.5749 17.014 30.7659 17.3416 30.9569 17.5477Z" fill="#2E83A0"/>
</g>
<defs>
<clipPath id="clip0_358_20">
<rect width="48" height="48" fill="white"/>
</clipPath>
</defs>
</svg>
