<svg width="66" height="74" viewBox="0 0 66 74" fill="none" xmlns="http://www.w3.org/2000/svg">
<g clip-path="url(#clip0_358_537)">
<path d="M18.9779 65.6859C20.1507 68.6244 19.5542 70.2793 16.8537 71.7555C15.7825 72.3404 14.7249 72.9485 13.6425 73.5102C11.6539 74.5407 9.54546 73.921 8.48109 71.9156C5.78514 66.8325 3.11856 61.7331 0.479105 56.6199C-0.551368 54.6214 0.135614 52.4396 2.06549 51.3371C3.32195 50.6199 4.59196 49.9213 5.86649 49.2412C7.82349 48.1991 9.85506 48.7306 11.0121 50.6524C11.3511 51.2141 11.69 51.0911 12.1375 50.9913C16.2413 50.0629 20.3519 49.1762 24.4466 48.2083C26.5686 47.707 28.6205 48.0598 30.6295 48.647C34.7197 49.8447 38.81 51.0586 42.837 52.4536C45.6617 53.433 45.8968 53.8299 47.221 56.4713C50.4277 54.9858 53.6389 53.498 56.8478 52.0102C57.8512 51.546 58.8523 51.0795 59.8556 50.6199C63.0962 49.1321 66.0181 51.0702 66 54.7096C65.9887 56.8659 65.2859 58.6067 63.3854 59.8206C57.171 63.7896 50.778 67.378 43.9217 70.0774C41.1557 71.1659 38.4349 71.1265 35.6191 70.4534C31.7052 69.518 27.8974 68.2925 24.2885 66.4519C22.6275 65.6047 20.8784 65.2751 18.9756 65.6836L18.9779 65.6859ZM17.5655 63.0469C20.318 62.3854 22.9032 62.5641 25.3461 63.8105C28.8284 65.5884 32.4961 66.7838 36.27 67.6936C38.6405 68.2646 40.9116 68.246 43.2302 67.3106C49.7452 64.6855 55.8512 61.2759 61.7787 57.4949C62.8996 56.78 63.2363 55.8191 63.2046 54.5866C63.1685 53.1336 62.364 52.5766 61.0804 53.1684C56.5021 55.2806 51.9282 57.4044 47.3611 59.5444C47.0764 59.6767 46.7984 59.9297 46.6289 60.2012C45.2007 62.4852 42.9703 63.3068 40.4732 62.4132C38.1298 61.573 35.7954 60.7119 33.4565 59.8624C31.8814 59.2914 30.3583 59.3889 28.8759 60.2059C27.8951 60.7444 27.0929 60.5773 26.6861 59.7835C26.2771 58.9827 26.5889 58.2283 27.59 57.6783C29.8092 56.4597 32.1029 56.3274 34.4644 57.1978C36.8259 58.0682 39.1851 58.9456 41.5602 59.7765C42.9319 60.257 44.2629 59.4098 44.4776 57.9962C44.629 56.9982 44.0641 56.0698 42.95 55.5684C38.9817 53.7835 34.8192 52.623 30.6272 51.5623C28.5075 51.0261 26.4036 50.5596 24.2003 51.1073C22.0897 51.6319 19.9519 52.0334 17.8322 52.5185C16.1622 52.9015 14.5035 53.3286 12.725 53.765C14.3656 56.9123 15.952 59.9599 17.5633 63.0492L17.5655 63.0469ZM7.93648 51.4601C7.52293 51.6226 7.30599 51.683 7.10939 51.7897C5.91395 52.4419 4.72077 53.0942 3.53663 53.7673C2.75021 54.2129 2.60559 54.6702 3.02591 55.4779C5.61565 60.4496 8.21443 65.4167 10.82 70.3814C11.2539 71.2054 11.6878 71.3446 12.4877 70.9199C13.69 70.2839 14.8831 69.6294 16.0673 68.9563C16.8424 68.5153 16.9757 68.0441 16.5644 67.2317C16.1238 66.359 15.6424 65.5095 15.1905 64.6438C13.0775 60.5958 10.9782 56.5433 8.84718 52.5069C8.63024 52.0961 8.22573 51.7874 7.93648 51.4625V51.4601Z" fill="#2E83A0"/>
<path d="M51.6503 19.2043C51.6503 27.8618 45.7319 35.5979 37.5061 37.6358C36.9073 37.7844 36.6113 38.0559 36.383 38.6223C35.5876 40.6021 34.426 42.3336 32.8622 43.7681C31.5922 44.9309 30.1414 45.1421 28.8149 44.3669C27.4975 43.5963 26.9212 42.1712 27.2285 40.5C27.3754 39.7062 27.459 38.8985 27.6217 38.107C27.7506 37.4803 27.4048 37.3364 26.9348 37.1646C21.7056 35.2498 17.952 31.68 15.8007 26.4414C10.9918 14.7386 18.6209 1.48765 30.9098 0.118226C42.071 -1.12586 51.648 7.68488 51.6503 19.2043ZM32.7877 2.80833C32.521 2.8269 32.0442 2.86172 31.5651 2.89885C22.614 3.58357 15.7487 12.522 17.3238 21.5625C18.5328 28.4978 22.5372 32.9264 29.1358 34.8807C30.1731 35.1894 30.5324 35.5724 30.4555 36.6656C30.3584 38.0466 30.1279 39.4161 30.0058 40.7971C29.9742 41.1499 30.1414 41.5213 30.216 41.8834C30.5301 41.758 30.9143 41.7093 31.1493 41.4934C32.6046 40.1426 33.5854 38.4598 34.1865 36.5588C34.4644 35.6792 34.9797 35.2428 35.8587 35.0873C43.7161 33.69 49.7204 25.9655 48.7916 17.1362C47.9578 9.20749 40.9976 2.80369 32.7899 2.81065L32.7877 2.80833Z" fill="#2E83A0"/>
<path d="M33.0993 12.9957C35.271 12.9957 37.4427 12.9911 39.6144 12.9957C40.7398 12.998 41.3431 13.5156 41.3273 14.4371C41.3115 15.3214 40.7285 15.8204 39.6415 15.8204C35.2145 15.8274 30.7876 15.8274 26.3583 15.8204C25.2804 15.8204 24.6974 15.3098 24.6883 14.4208C24.6793 13.4971 25.2781 12.998 26.4148 12.9957C28.643 12.9911 30.8712 12.9957 33.0993 12.9957Z" fill="#2E83A0"/>
<path d="M32.9707 25.1812C30.7425 25.1812 28.5144 25.1858 26.2884 25.1788C25.2806 25.1742 24.7043 24.6659 24.6908 23.8025C24.6749 22.9205 25.2399 22.3727 26.2342 22.3704C30.7742 22.3611 35.3141 22.3704 39.8541 22.3657C40.5591 22.3657 41.0676 22.6744 41.271 23.3638C41.4608 24.0044 41.2868 24.6009 40.7038 24.9398C40.4055 25.1115 40.01 25.1696 39.6575 25.1719C37.4293 25.1928 35.2011 25.1812 32.9752 25.1812H32.9707Z" fill="#2E83A0"/>
</g>
<defs>
<clipPath id="clip0_358_537">
<rect width="66" height="74" fill="white"/>
</clipPath>
</defs>
</svg>
