<svg width="37" height="44" viewBox="0 0 37 44" fill="none" xmlns="http://www.w3.org/2000/svg">
<g clip-path="url(#clip0_358_11)">
<path d="M7.53339 44C6.70169 43.7211 6.0679 43.239 5.87342 42.3287C5.82651 42.1072 5.82193 41.8742 5.82079 41.6469C5.81621 40.5036 5.8185 39.3615 5.8185 38.162C5.30598 38.162 4.82549 38.162 4.34614 38.162C3.60367 38.162 2.8612 38.17 2.11988 38.1597C0.939243 38.1436 0.0423289 37.2528 0.00228805 36.0705C-0.00114402 35.9845 0.00114402 35.8984 0.00114402 35.8123C0 24.6596 0 13.5046 0 2.35083C0 1.12606 0.623493 0.278931 1.69887 0.0493582C1.89221 0.00803506 2.09585 0.00229573 2.29377 0.00229573C11.1577 0 20.0204 0 28.8843 0C30.3098 0 31.1758 0.87123 31.1792 2.30032C31.1815 3.45852 31.1792 4.61672 31.1792 5.83575C31.3565 5.83575 31.5075 5.83575 31.6586 5.83575C32.7145 5.83575 33.7704 5.83001 34.8275 5.8369C36.0813 5.84608 36.9943 6.74486 36.9943 8.00407C37 16.4661 37.0092 24.9282 36.984 33.3903C36.9794 34.77 36.4314 36.004 35.4407 36.9659C33.5027 38.8472 31.5281 40.6918 29.5524 42.5342C28.7482 43.2837 27.7563 43.6774 26.6946 43.9116C26.6157 43.9288 26.5413 43.969 26.4658 43.9989H7.53339V44ZM26.4258 42.3654C26.4258 42.1428 26.4258 41.974 26.4258 41.8053C26.4258 40.2017 26.4166 38.5981 26.4281 36.9946C26.4418 35.1408 27.6533 33.9412 29.4986 33.9367C31.1826 33.9332 32.8666 33.9367 34.5518 33.9367C35.1162 33.9367 35.3991 33.6531 35.4007 33.0861C35.4007 24.8249 35.4007 16.5626 35.4007 8.30137C35.4007 7.53459 35.2794 7.41407 34.5014 7.41407C25.7668 7.41407 17.0311 7.41407 8.29646 7.41407C7.52767 7.41407 7.3984 7.54378 7.3984 8.3094C7.3984 19.3771 7.3984 30.446 7.3984 41.5137C7.3984 42.3 7.50365 42.4056 8.28845 42.4056C14.0543 42.4056 19.8213 42.4056 25.5872 42.4045C25.8423 42.4045 26.0975 42.3815 26.4258 42.3666V42.3654ZM29.5993 5.83805V5.33758C29.5993 4.39288 29.5993 3.44704 29.5993 2.50235C29.5993 1.69425 29.4998 1.59668 28.6795 1.59668C19.9575 1.59668 11.2366 1.59668 2.51456 1.59668C1.66799 1.59668 1.59477 1.67129 1.59477 2.53908C1.59477 13.5655 1.59477 24.5919 1.59477 35.6183C1.59477 35.6894 1.59477 35.7618 1.59477 35.8329C1.60163 36.4264 1.76065 36.5859 2.36813 36.5882C3.39546 36.5917 4.42394 36.5905 5.45127 36.5882C5.5611 36.5882 5.67207 36.5699 5.81736 36.5572C5.81736 36.3529 5.81736 36.1693 5.81736 35.9856C5.81736 26.7499 5.83452 17.513 5.79905 8.27726C5.79333 6.81488 6.79321 5.81279 8.22781 5.82083C15.1652 5.86215 22.1025 5.83919 29.0399 5.83919H29.5982L29.5993 5.83805ZM34.6284 35.5655C34.4626 35.5322 34.4237 35.5161 34.3836 35.5161C32.7133 35.515 31.0431 35.5046 29.3739 35.5184C28.5617 35.5253 28.0148 36.0958 28.0114 36.9142C28.0045 38.4179 28.0091 39.9216 28.0114 41.4253C28.0114 41.5011 28.0297 41.578 28.0537 41.7743C30.2731 39.6783 32.4182 37.6535 34.6296 35.5655H34.6284Z" fill="#2E83A0"/>
<path d="M21.4116 14.8511C18.9725 14.8511 16.5335 14.8511 14.0944 14.8511C13.9514 14.8511 13.8073 14.8568 13.6677 14.8362C13.2478 14.773 12.9527 14.4447 12.9492 14.0545C12.9458 13.6493 13.2593 13.3095 13.6963 13.2556C13.8233 13.2395 13.9526 13.2464 14.0807 13.2464C18.9588 13.2464 23.8369 13.2464 28.715 13.2464C29.4621 13.2464 29.8533 13.5196 29.8579 14.0418C29.8625 14.5676 29.4678 14.8522 28.7276 14.8522C26.2886 14.8522 23.8495 14.8522 21.4104 14.8522L21.4116 14.8511Z" fill="#2E83A0"/>
<path d="M21.399 25.4402C18.889 25.4402 16.379 25.4413 13.869 25.439C13.2604 25.439 12.8588 25.0281 12.9686 24.5173C13.0487 24.1454 13.2752 23.91 13.6688 23.8733C13.8106 23.8595 13.9537 23.8618 14.0967 23.8618C18.9748 23.8618 23.8517 23.8618 28.7299 23.8618C29.4918 23.8618 29.8659 24.1258 29.859 24.6573C29.8521 25.1888 29.4849 25.4402 28.7161 25.4402C26.2771 25.4402 23.838 25.4402 21.4001 25.4402H21.399Z" fill="#2E83A0"/>
<path d="M21.4185 20.1382C18.9794 20.1382 16.5403 20.1382 14.1013 20.1382C13.9446 20.1382 13.7867 20.1428 13.6311 20.1221C13.2433 20.0704 12.9561 19.7444 12.9493 19.3622C12.9412 18.9696 13.2467 18.6184 13.6471 18.5679C13.7455 18.5553 13.8462 18.561 13.9468 18.561C18.9245 18.561 23.9021 18.561 28.8798 18.561C29.4175 18.561 29.7035 18.7355 29.8179 19.1257C29.9529 19.5872 29.676 20.0429 29.2035 20.1186C29.0502 20.1428 28.8912 20.1382 28.7345 20.1382C26.2954 20.1382 23.8564 20.1382 21.4173 20.1382H21.4185Z" fill="#2E83A0"/>
<path d="M17.9418 30.7548C16.6444 30.7548 15.346 30.7548 14.0486 30.7548C13.9068 30.7548 13.7615 30.7582 13.6231 30.733C13.2272 30.6583 12.9515 30.3335 12.9492 29.957C12.9469 29.5828 13.2215 29.2534 13.6151 29.1753C13.7398 29.1512 13.8702 29.1512 13.9983 29.1512C16.6501 29.15 19.3031 29.1489 21.955 29.1512C22.1106 29.1512 22.2707 29.1604 22.4195 29.2029C22.7752 29.3039 22.9663 29.5552 22.9766 29.926C22.9869 30.3151 22.7993 30.586 22.4275 30.6985C22.2673 30.7467 22.0911 30.7525 21.9218 30.7536C20.5959 30.7582 19.27 30.7559 17.9429 30.7559L17.9418 30.7548Z" fill="#2E83A0"/>
</g>
<defs>
<clipPath id="clip0_358_11">
<rect width="37" height="44" fill="white"/>
</clipPath>
</defs>
</svg>
