<svg width="118" height="137" viewBox="0 0 118 137" fill="none" xmlns="http://www.w3.org/2000/svg">
<g clip-path="url(#clip0_358_63)">
<path d="M59.1545 136.564C63.3947 136.564 115.465 110.676 115.465 110.676C116.642 110.135 117.398 108.952 117.398 107.648V11.2457C117.398 5.03475 112.395 0 106.224 0H11.9201C5.33625 0 0 5.37097 0 11.9977V107.362C0 108.664 0.755613 109.846 1.93386 110.385C1.93386 110.385 54.9143 136.563 59.1545 136.563V136.564Z" fill="#5B727E"/>
<path d="M56.4736 5.73405H106.528C109.474 5.73405 111.864 8.13917 111.864 11.105V82.4315C111.864 82.4315 112.077 84.0074 111.01 85.3673C109.943 86.7272 106.883 90.0938 106.883 90.0938L107.533 96.1984C107.724 97.9891 105.964 99.3479 104.295 98.6981L98.5585 96.4669L92.7953 98.973L92.7911 99.3082C92.759 101.669 90.3865 103.266 88.2072 102.393L80.9136 99.4747L72.5176 102.912L72.3095 103.474C71.5741 105.459 69.3276 106.406 67.4054 105.543L58.9987 101.766L50.4639 105.534C48.4724 106.413 46.1533 105.469 45.3283 103.444L45.0529 102.768L36.7284 99.3307L29.4273 102.51C27.2139 103.474 24.7752 101.728 24.9534 99.3082L24.9886 98.8302L19.154 96.1801L14.0226 98.6776C12.1795 99.7787 10.1005 98.2587 10.1955 96.1039L10.7142 90.1378L6.76854 85.5703C6.17622 84.8839 5.8475 84.0063 5.84324 83.0975L5.51666 10.7194C5.50385 7.96944 7.71626 5.73297 10.4484 5.73297H56.4736V5.73405Z" fill="white"/>
<path d="M8.52522 83.4037L15.0408 81.6431L18.8285 75.8929C19.0878 75.4987 19.6652 75.504 19.917 75.9036L22.3685 79.7815L21.25 80.4808C19.3952 81.6398 19.2201 84.1234 20.7047 85.7347L25.6407 91.2131L25.4006 96.8257L19.2639 94.3014L13.41 96.8934C12.7377 97.191 11.9916 96.6614 12.0461 95.9234L12.5135 89.5481L8.16022 84.6304C7.79095 84.2125 7.98732 83.5498 8.52415 83.4047L8.52522 83.4037Z" fill="#F89520"/>
<path d="M31.6184 80.0683L35.7892 72.8175C36.2822 71.9592 37.5149 71.9635 38.0037 72.8239L41.3848 78.7793L40.5545 79.2873C38.42 80.5914 37.9856 83.5261 39.6505 85.4006L45.6015 92.1003L45.0145 100.318L36.7967 96.9793L28.8766 100.193C28.1274 100.497 27.3238 99.9011 27.3899 99.0912L28.0996 90.4364L22.5702 84.234C21.9107 83.4939 22.2767 82.3144 23.2372 82.0835L31.6205 80.0704L31.6184 80.0683Z" fill="#F89520"/>
<path d="M52.5365 79.1015L57.5782 70.5466C58.2089 69.4757 59.7532 69.4907 60.3648 70.5724L65.1834 79.1026L75.1088 81.2778C76.1451 81.5045 76.5485 82.7753 75.8367 83.5659L68.9188 91.241L69.9924 100.962C70.1333 102.234 68.859 103.186 67.6904 102.682L58.7116 98.8141L49.4511 102.909C48.5375 103.313 47.5289 102.58 47.6218 101.58L48.5877 91.2421L42.0027 84.0579C41.2418 83.2275 41.6399 81.8815 42.7274 81.6044L52.5375 79.1037L52.5365 79.1015Z" fill="#F89520"/>
<path d="M81.761 72.7488L86.0482 80.1757L94.711 82.3091C95.3332 82.4627 95.5702 83.2264 95.1454 83.7088L89.4634 90.1657L90.1656 99.0934C90.235 99.9731 89.3566 100.616 88.5466 100.279L80.6052 96.9783L72.6723 100.299L71.9604 92.0628L78.1217 84.972C79.4963 83.3908 79.2861 80.976 77.6606 79.658L76.4429 78.6719L79.8741 72.7477C80.2957 72.0205 81.3405 72.0205 81.761 72.7488Z" fill="#F89520"/>
<path d="M95.3599 79.7997L97.3632 76.2109C97.7687 75.4847 98.8007 75.4643 99.234 76.1743L102.591 81.6796L108.698 83.0986C109.388 83.2586 109.658 84.1008 109.193 84.6368L105.045 89.4138L105.544 95.7612C105.608 96.5776 104.778 97.1652 104.037 96.8268L98.4827 94.3003L92.4527 96.6635L92.1326 91.2925L97.3087 85.0246C98.3525 83.7603 98.1294 81.874 96.8199 80.8922L95.361 79.7987L95.3599 79.7997Z" fill="#F89520"/>
<path d="M21.741 32.7318L18.1838 29.2943H13.5947C12.7889 29.2943 12.1357 28.6369 12.1357 27.8259V24.1382L16.1913 20.0563L21.2789 25.177H24.8008V28.1804C24.8008 28.7959 24.3045 29.2943 23.693 29.2943H21.8125L21.741 32.7318Z" fill="#5C6F79"/>
<path d="M10.935 24.0491H9.04065L15.3502 17.6974H21.7943L28.0708 24.0147H21.6609L16.314 18.6341L10.935 24.0491Z" fill="#F7911F"/>
<path d="M13.4666 47.2989H9.67676V44.7101H20.1849V47.2989H16.3951V57.9915H13.4676V47.2989H13.4666Z" fill="#F89520"/>
<path d="M26.8713 44.3728C30.7368 44.3728 33.5533 47.0927 33.5533 51.3508C33.5533 55.6089 30.7368 58.3287 26.8713 58.3287C23.0057 58.3287 20.1892 55.6089 20.1892 51.3508C20.1892 47.0927 23.0057 44.3728 26.8713 44.3728ZM26.8713 55.6282C29.1979 55.6282 30.7198 53.8268 30.7198 51.3508C30.7198 48.8748 29.1979 47.0733 26.8713 47.0733C24.5447 47.0733 23.0228 48.8748 23.0228 51.3508C23.0228 53.8268 24.5447 55.6282 26.8713 55.6282Z" fill="#F89520"/>
<path d="M34.9802 44.7101H40.0422C42.8715 44.7101 45.2194 45.592 45.2194 48.7437C45.2194 51.8954 43.0444 52.8149 40.1767 52.8149H37.9824V57.9925H34.9802V44.7112V44.7101ZM37.9824 50.3378H39.9846C41.0433 50.3378 42.102 49.9812 42.102 48.7437C42.102 47.3741 40.6772 47.1872 39.5224 47.1872H37.9824V50.3389V50.3378Z" fill="#F89520"/>
<path d="M49.7893 44.7101H55.1362C57.9655 44.7101 60.3465 45.6479 60.3465 48.7437C60.3465 50.601 59.3124 52.0458 57.3604 52.3831L60.8727 57.9925H57.2238L54.3358 52.6839H52.8331V57.9925H49.7893V44.7112V44.7101ZM52.8331 50.2068H54.6282C55.7403 50.2068 57.1843 50.1692 57.1843 48.7244C57.1843 47.3924 55.9356 47.1861 54.8235 47.1861H52.8331V50.2068Z" fill="#F89520"/>
<path d="M65.797 44.7101H68.1695L73.8334 57.9915H70.5964L69.4748 55.1771H64.4171L63.3317 57.9915H60.1683L65.7959 44.7101H65.797ZM66.9005 48.5751L65.3189 52.7021H68.5004L66.9005 48.5751Z" fill="#F89520"/>
<path d="M75.8281 47.2989H71.9017V44.7101H82.7877V47.2989H78.8613V57.9915H75.8292V47.2989H75.8281Z" fill="#F89520"/>
<path d="M83.7973 44.7101H92.8284V47.4117H86.7259V49.8877H92.4901V52.5893H86.7259V55.2909H93.1657V57.9925H83.7963V44.7112L83.7973 44.7101Z" fill="#F89520"/>
<path d="M94.7408 44.7101H99.0536C103.256 44.7101 106.776 46.5298 106.776 51.3884C106.776 55.6841 103.329 57.9915 99.4399 57.9915H94.7397V44.7101H94.7408ZM97.616 55.2909H99.1091C101.781 55.2909 103.791 54.2597 103.791 51.2391C103.791 48.632 101.745 47.4117 99.3118 47.4117H97.616V55.2909Z" fill="#F89520"/>
<path d="M29.6664 19.3516H32.1723V23.0984H35.7209V19.3516H38.0955V29.3986H35.7209V25.0556H32.1723V29.3986H29.6664V19.3516Z" fill="#F89520"/>
<path d="M42.7989 21.6321C45.118 21.6321 46.9739 23.1886 46.9739 25.6013C46.9739 28.0139 45.118 29.5704 42.7989 29.5704C40.4797 29.5704 38.6238 28.0139 38.6238 25.6013C38.6238 23.1886 40.4797 21.6321 42.7989 21.6321ZM42.7989 27.5155C43.959 27.5155 44.6548 26.7378 44.6548 25.6013C44.6548 24.4648 43.959 23.6871 42.7989 23.6871C41.6388 23.6871 40.9429 24.4648 40.9429 25.6013C40.9429 26.7378 41.6388 27.5155 42.7989 27.5155Z" fill="#F89520"/>
<path d="M47.2589 22.0285H49.3689V23.0296H49.3977C49.6912 22.4528 50.4084 21.847 51.4788 21.847C52.4756 21.847 53.2953 22.2713 53.6763 23.1661C54.1896 22.2261 54.878 21.847 55.9325 21.847C57.8663 21.847 58.4522 23.2574 58.4522 25.047V29.3996H56.2548V25.1082C56.2548 24.4261 56.0061 23.8493 55.2878 23.8493C54.2771 23.8493 53.9548 24.5926 53.9548 25.5024V29.3996H51.7574V25.5024C51.7574 24.9567 51.7862 23.8493 50.7755 23.8493C49.6325 23.8493 49.4564 24.7741 49.4564 25.7302V29.4007H47.2589V22.0306V22.0285Z" fill="#F89520"/>
<path d="M66.3008 28.1149C65.5783 29.0387 64.3905 29.5683 63.2165 29.5683C60.9603 29.5683 59.1545 28.0537 59.1545 25.7065C59.1545 23.3594 60.9603 21.8448 63.2165 21.8448C65.3232 21.8448 66.6466 23.3594 66.6466 25.7065V26.4187H61.4107C61.5911 27.2824 62.2378 27.842 63.1108 27.842C63.8483 27.842 64.3446 27.4639 64.7202 26.9483L66.2998 28.1138L66.3008 28.1149ZM64.3905 24.874C64.4054 24.1167 63.8184 23.4808 63.0062 23.4808C62.0137 23.4808 61.4715 24.1619 61.4118 24.874H64.3905Z" fill="#F89520"/>
<path d="M70.637 19.604H71.4471L74.9968 29.2686H74.1152L73.1984 26.7023H68.732L67.7789 29.2686H66.9572L70.6381 19.604H70.637ZM71.0063 20.5869L69.0415 25.8827H72.9124L71.0063 20.5869Z" fill="#5C6F79"/>
<path d="M80.4003 28.2234H80.3747C80.2541 28.4318 80.1036 28.6112 79.9232 28.7626C79.7429 28.9141 79.5465 29.0398 79.3362 29.1397C79.1249 29.2396 78.904 29.3126 78.6713 29.361C78.4387 29.4082 78.2114 29.4329 77.9872 29.4329C77.5315 29.4329 77.11 29.3545 76.7225 29.1988C76.3351 29.043 76.0043 28.8239 75.7289 28.5424C75.4536 28.261 75.238 27.928 75.0832 27.5423C74.9285 27.1567 74.8506 26.7346 74.8506 26.2759C74.8506 25.8172 74.9285 25.395 75.0832 25.0094C75.238 24.6238 75.4536 24.2908 75.7289 24.0093C76.0043 23.7279 76.3351 23.5087 76.7225 23.353C77.11 23.1972 77.5315 23.1188 77.9872 23.1188C78.2114 23.1188 78.4387 23.1424 78.6713 23.1908C78.904 23.238 79.1249 23.3122 79.3362 23.4121C79.5465 23.512 79.7429 23.6377 79.9232 23.7891C80.1036 23.9406 80.2541 24.12 80.3747 24.3284H80.4003V19.4558H81.1751V29.2782H80.4003V28.2255V28.2234ZM80.4782 26.2748C80.4782 25.9364 80.4131 25.6185 80.285 25.3198C80.1559 25.0212 79.9798 24.7613 79.7557 24.54C79.5315 24.3187 79.269 24.1436 78.968 24.0136C78.6671 23.8836 78.3394 23.8192 77.9872 23.8192C77.635 23.8192 77.2989 23.8847 77.0064 24.0136C76.714 24.1436 76.4643 24.3187 76.2572 24.54C76.0502 24.7613 75.8933 25.0212 75.7866 25.3198C75.6788 25.6185 75.6254 25.9364 75.6254 26.2748C75.6254 26.6132 75.6788 26.9311 75.7866 27.2298C75.8944 27.5284 76.0512 27.7883 76.2572 28.0096C76.4632 28.2309 76.7129 28.406 77.0064 28.536C77.2989 28.666 77.6265 28.7304 77.9872 28.7304C78.348 28.7304 78.6671 28.666 78.968 28.536C79.269 28.406 79.5315 28.2309 79.7557 28.0096C79.9798 27.7883 80.1559 27.5284 80.285 27.2298C80.4142 26.9311 80.4782 26.6121 80.4782 26.2748Z" fill="#5C6F79"/>
<path d="M81.8987 22.3561H82.9094L85.1986 28.2954L87.4281 22.3561H88.3342L85.6287 29.2675H84.7077L81.8987 22.3561Z" fill="#5C6F79"/>
<path d="M88.7461 20.0939C88.7461 19.8769 88.8197 19.6943 88.967 19.546C89.1143 19.3978 89.2957 19.3237 89.5113 19.3237C89.7269 19.3237 89.9073 19.3978 90.0556 19.546C90.2029 19.6943 90.2765 19.8769 90.2765 20.0939C90.2765 20.3109 90.2029 20.4935 90.0556 20.6417C89.9083 20.7899 89.7269 20.8641 89.5113 20.8641C89.2957 20.8641 89.1143 20.7899 88.967 20.6417C88.8197 20.4935 88.7461 20.3109 88.7461 20.0939Z" fill="#5C6F79"/>
<path d="M90.0076 22.3561H88.9862V29.2675H90.0076V22.3561Z" fill="#5C6F79"/>
<path d="M91.4474 27.4962C91.6341 27.8635 91.9105 28.1439 92.2755 28.3373C92.6405 28.5306 93.0248 28.6273 93.4292 28.6273C93.616 28.6273 93.8039 28.5972 93.9917 28.5381C94.1785 28.4791 94.3471 28.3942 94.4944 28.2846C94.6427 28.1751 94.7633 28.044 94.8572 27.8904C94.9511 27.7368 94.9981 27.5606 94.9981 27.3619C94.9981 27.0439 94.8967 26.8065 94.695 26.6475C94.4922 26.4886 94.2436 26.365 93.9479 26.2748C93.6523 26.1856 93.3268 26.1083 92.9714 26.0439C92.616 25.9794 92.2905 25.8806 91.9949 25.7463C91.6992 25.612 91.4495 25.4262 91.2478 25.1877C91.045 24.9492 90.9447 24.612 90.9447 24.1748C90.9447 23.8375 91.0141 23.5442 91.1517 23.2961C91.2894 23.0479 91.4698 22.8417 91.6918 22.6784C91.9138 22.5151 92.1624 22.3927 92.4388 22.3132C92.7153 22.2337 92.9959 22.1939 93.282 22.1939C93.8444 22.1939 94.33 22.2981 94.7388 22.5065C95.1475 22.7149 95.4656 23.0426 95.6929 23.4894L94.8935 23.9664C94.726 23.6484 94.5168 23.4078 94.2649 23.2445C94.013 23.0812 93.6854 22.9985 93.2809 22.9985C93.1229 22.9985 92.9575 23.0232 92.7857 23.0726C92.6128 23.122 92.4581 23.1919 92.3193 23.281C92.1806 23.3702 92.0653 23.4851 91.9714 23.6237C91.8775 23.7623 91.8305 23.9212 91.8305 24.1006C91.8305 24.4079 91.9319 24.6367 92.1336 24.786C92.3353 24.9353 92.5851 25.0513 92.8807 25.1362C93.1763 25.221 93.5018 25.293 93.8572 25.3521C94.2126 25.4112 94.5381 25.5089 94.8337 25.6421C95.1294 25.7764 95.378 25.9697 95.5808 26.2232C95.7825 26.4768 95.8839 26.8366 95.8839 27.3028C95.8839 27.6605 95.8178 27.971 95.6843 28.2331C95.5509 28.4962 95.3684 28.7164 95.1368 28.8958C94.9053 29.0742 94.6416 29.2084 94.3449 29.2976C94.0493 29.3867 93.7388 29.4319 93.4132 29.4319C92.822 29.4319 92.282 29.318 91.7932 29.0892C91.3054 28.8615 90.9276 28.5081 90.6619 28.0322L91.4463 27.4962H91.4474Z" fill="#5C6F79"/>
<path d="M96.2595 25.8945C96.2595 25.38 96.3406 24.9073 96.5039 24.4755C96.6661 24.0437 96.8924 23.6699 97.1816 23.3541C97.4709 23.0393 97.8188 22.7933 98.2254 22.6193C98.632 22.4442 99.0749 22.3572 99.5541 22.3572C100.033 22.3572 100.474 22.4442 100.876 22.6193C101.279 22.7944 101.627 23.0393 101.921 23.3541C102.215 23.6699 102.443 24.0437 102.606 24.4755C102.769 24.9073 102.851 25.3811 102.851 25.8945C102.851 26.408 102.77 26.8817 102.606 27.3135C102.443 27.7454 102.215 28.1192 101.921 28.435C101.628 28.7508 101.279 28.9957 100.876 29.1697C100.474 29.3448 100.033 29.4319 99.5541 29.4319C99.0749 29.4319 98.632 29.3448 98.2254 29.1697C97.8188 28.9947 97.4709 28.7497 97.1816 28.435C96.8924 28.1203 96.6661 27.7464 96.5039 27.3135C96.3406 26.8817 96.2595 26.4091 96.2595 25.8945ZM97.0728 25.8945C97.0728 26.2726 97.1293 26.6293 97.2425 26.9644C97.3556 27.2996 97.521 27.5907 97.7377 27.8377C97.9543 28.0848 98.2169 28.2814 98.5242 28.4275C98.8316 28.5736 99.1753 28.6455 99.5552 28.6455C99.9351 28.6455 100.279 28.5725 100.586 28.4275C100.894 28.2825 101.156 28.0859 101.373 27.8377C101.589 27.5896 101.755 27.2996 101.868 26.9644C101.981 26.6293 102.038 26.2726 102.038 25.8945C102.038 25.5164 101.981 25.1598 101.868 24.8246C101.755 24.4895 101.59 24.1984 101.373 23.9513C101.155 23.7042 100.894 23.5077 100.586 23.3616C100.279 23.2166 99.9351 23.1435 99.5552 23.1435C99.1753 23.1435 98.8316 23.2166 98.5242 23.3616C98.2169 23.5077 97.9543 23.7032 97.7377 23.9513C97.521 24.1995 97.3556 24.4895 97.2425 24.8246C97.1293 25.1598 97.0728 25.5164 97.0728 25.8945Z" fill="#5C6F79"/>
<path d="M103.53 24.3788C103.53 24.251 103.524 24.0963 103.515 23.9148C103.504 23.7333 103.497 23.5496 103.491 23.3627C103.486 23.1757 103.478 23.0017 103.468 22.8395C103.457 22.6773 103.453 22.5527 103.453 22.4636H104.374C104.385 22.7192 104.392 22.9641 104.397 23.1994C104.403 23.4346 104.416 23.5872 104.436 23.6559C104.671 23.2531 104.973 22.9244 105.341 22.6698C105.709 22.4141 106.159 22.2874 106.691 22.2874C106.783 22.2874 106.872 22.2949 106.96 22.3099C107.046 22.325 107.136 22.3422 107.229 22.3615L107.121 23.2305C106.998 23.1919 106.881 23.1714 106.768 23.1714C106.369 23.1714 106.024 23.2327 105.731 23.3551C105.44 23.4776 105.2 23.6473 105.01 23.8632C104.82 24.0791 104.68 24.3327 104.588 24.6216C104.497 24.9116 104.451 25.2232 104.451 25.5562V29.2664H103.53V24.3778V24.3788Z" fill="#5C6F79"/>
</g>
<defs>
<clipPath id="clip0_358_63">
<rect width="117.398" height="136.564" fill="white"/>
</clipPath>
</defs>
</svg>
