<svg width="139" height="135" viewBox="0 0 139 135" fill="none" xmlns="http://www.w3.org/2000/svg">
<g clip-path="url(#clip0_358_93)">
<path d="M127.577 41.7908V13.4148C127.577 9.92878 125.241 6.86263 121.869 5.9756C107.714 2.24122 89.6018 0 69.8568 0C50.1118 0 31.1506 2.34766 16.8565 6.23875C13.5114 7.14943 11.2015 10.2008 11.2015 13.6632V41.9061C26.0901 40.0138 46.8673 38.8399 69.8568 38.8399C92.8463 38.8399 112.757 39.9664 127.577 41.7878V41.7908Z" fill="#5C6F7A"/>
<path d="M122.393 128.48C122.393 128.503 122.393 128.563 122.328 128.61C122.269 128.654 122.224 128.645 122.198 128.637C107.421 124.772 88.8004 122.64 69.7623 122.64C50.7242 122.64 31.4908 124.84 16.5786 128.835C16.5549 128.841 16.5076 128.852 16.4485 128.808C16.3834 128.758 16.3834 128.702 16.3834 128.675V92.0851C14.5349 92.2833 12.7603 92.4902 11.0597 92.7061V128.678C11.0597 130.399 11.8435 131.984 13.2069 133.033C14.18 133.778 15.3393 134.169 16.5253 134.169C17.0015 134.169 17.4807 134.107 17.9539 133.979C32.4284 130.103 50.8277 127.965 69.7593 127.965C88.691 127.965 106.499 130.032 120.849 133.787C122.502 134.219 124.227 133.867 125.578 132.823C126.936 131.777 127.714 130.192 127.714 128.48V92.6144C126.013 92.4045 124.235 92.2034 122.39 92.0112V128.48H122.393Z" fill="#5C6F7A"/>
<path d="M47.033 107.975V103.921H43.4365V107.975H41.0172V98.2589H43.4365V101.975H47.033V98.2589H49.4523V107.975H47.033Z" fill="#F68F1E"/>
<path d="M53.9982 108.128C51.6883 108.128 50.1415 106.706 50.1415 104.335C50.1415 101.964 51.6883 100.556 53.9834 100.556C56.2785 100.556 57.8401 101.964 57.8401 104.335C57.8401 106.706 56.2933 108.128 53.9982 108.128ZM53.9982 102.301C53.0044 102.301 52.5431 103.217 52.5431 104.335C52.5431 105.453 52.9867 106.384 53.9805 106.384C54.9742 106.384 55.4356 105.467 55.4356 104.335C55.4356 103.203 54.992 102.301 53.9982 102.301Z" fill="#F68F1E"/>
<path d="M67.4345 107.975V103.815C67.4345 103.049 67.2363 102.514 66.4851 102.514C65.7339 102.514 65.3819 103.294 65.308 103.767V107.975H62.9508V103.815C62.9508 103.049 62.7526 102.514 62.0014 102.514C61.2502 102.514 60.8982 103.294 60.8243 103.767V107.975H58.467V100.707H60.6852L60.8243 101.825C61.33 101.044 61.9866 100.553 62.9656 100.553C63.9445 100.553 64.7253 100.982 65.0625 101.899C65.6452 101.103 66.3343 100.553 67.4345 100.553C68.934 100.553 69.7917 101.502 69.7917 103.291V107.972H67.4345V107.975Z" fill="#F68F1E"/>
<path d="M72.8233 104.914C72.8677 105.985 73.6958 106.414 74.6157 106.414C75.5355 106.414 76.4198 105.985 76.7126 105.739L77.4786 107.1C77.4786 107.1 76.4849 108.126 74.2814 108.126C72.078 108.126 70.472 106.78 70.472 104.347C70.472 101.913 72.0928 100.553 74.2667 100.553C76.4405 100.553 77.6797 102.082 77.6797 104.302V104.914H72.8293H72.8233ZM74.1691 102.1C73.2818 102.1 72.8529 102.774 72.776 103.492H75.4527C75.4527 102.741 75.0386 102.1 74.1661 102.1H74.1691Z" fill="#F68F1E"/>
<path d="M85.1359 107.995L84.2456 105.503H80.0429L79.1526 107.995H78.0228L81.5424 98.5693H82.8201L86.3692 107.995H85.1359ZM82.1516 99.6249L80.3564 104.569H83.9351L82.1546 99.6249H82.1516Z" fill="#5C6F7A"/>
<path d="M91.5924 107.995L91.4297 106.913C91.4001 106.958 90.7761 108.131 89.1139 108.131C87.3334 108.131 86.2036 106.618 86.2036 104.583C86.2036 102.549 87.4665 101.05 89.247 101.05C90.7761 101.05 91.3558 102.179 91.4297 102.342V98.2736H92.5151V107.995H91.5953H91.5924ZM89.4392 101.925C88.1615 101.925 87.3305 103.129 87.3305 104.583C87.3305 106.038 88.1024 107.241 89.3653 107.241C90.6282 107.241 91.4741 106.038 91.4741 104.583C91.4741 103.129 90.7021 101.925 89.4392 101.925Z" fill="#5C6F7A"/>
<path d="M96.8627 107.995H95.7181L93.1066 101.198H94.2659L96.3008 106.928L98.3356 101.198H99.4802L96.8657 107.995H96.8627Z" fill="#5C6F7A"/>
<path d="M100.678 99.6811C100.249 99.6811 99.8914 99.3558 99.8914 98.9241C99.8914 98.4924 100.234 98.1524 100.663 98.1524C101.092 98.1524 101.45 98.4776 101.45 98.9093C101.45 99.341 101.11 99.6811 100.678 99.6811ZM100.128 107.992V101.195H101.213V107.992H100.128Z" fill="#5C6F7A"/>
<path d="M106.377 107.505C105.975 107.862 105.354 108.128 104.461 108.128C103.035 108.128 102.086 107.224 101.849 106.925L102.488 106.257C102.846 106.659 103.618 107.25 104.493 107.25C105.369 107.25 105.949 106.896 105.949 106.227C105.949 105.559 105.251 105.323 104.866 105.172C104.479 105.039 103.872 104.861 103.544 104.713C103.216 104.58 102.192 104.163 102.192 102.993C102.192 101.822 103.201 101.032 104.612 101.032C106.023 101.032 106.883 101.878 106.928 101.937L106.422 102.679C106.067 102.324 105.384 101.893 104.612 101.893C103.84 101.893 103.216 102.203 103.216 102.857C103.216 103.51 103.869 103.732 104.331 103.894C104.777 104.057 105.28 104.208 105.606 104.341C105.934 104.474 107.002 104.92 107.002 106.077C107.002 106.671 106.747 107.159 106.377 107.502V107.505Z" fill="#5C6F7A"/>
<path d="M110.625 108.128C108.708 108.128 107.404 106.733 107.404 104.595C107.404 102.457 108.711 101.047 110.625 101.047C112.538 101.047 113.845 102.443 113.845 104.595C113.845 106.748 112.553 108.128 110.625 108.128ZM110.625 101.925C109.288 101.925 108.531 103.022 108.531 104.598C108.531 106.174 109.288 107.253 110.625 107.253C111.961 107.253 112.719 106.168 112.719 104.598C112.719 103.028 111.961 101.925 110.625 101.925Z" fill="#5C6F7A"/>
<path d="M118.163 102.191C118.163 102.191 117.986 102.103 117.687 102.103C117.389 102.103 117.048 102.162 116.679 102.428C116.291 102.694 115.833 103.259 115.7 104.06V107.992H114.617V101.195H115.611L115.7 102.561C116.058 101.774 116.844 101.047 117.794 101.047C118.119 101.047 118.329 101.121 118.329 101.121L118.166 102.188L118.163 102.191Z" fill="#5C6F7A"/>
<path d="M32.6413 103.939L32.3337 103.631L27.6577 98.9566L23.6088 103.007V106.931C23.6088 107.508 24.0761 107.978 24.6558 107.978H29.4382L33.0879 111.626V107.978H35.1316C35.7083 107.978 36.1786 107.508 36.1786 106.931V103.939H32.6413Z" fill="#5C6F7A"/>
<path d="M33.0288 96.5824H26.7646L20.4501 102.892H22.2424L27.6578 97.4783L33.0761 102.892H39.3403L33.0288 96.5824Z" fill="#F68F1E"/>
<path d="M110.207 21.1408L112.059 18.0214C112.29 17.6311 112.858 17.637 113.082 18.0303L114.851 21.1408L118.495 21.9332C118.876 22.016 119.024 22.4802 118.761 22.767L116.22 25.567L116.614 29.1122C116.664 29.5764 116.197 29.9223 115.768 29.739L112.47 28.3287L109.069 29.8218C108.735 29.9697 108.362 29.7006 108.397 29.3369L108.752 25.567L106.336 22.9474C106.058 22.6458 106.203 22.155 106.602 22.0515L110.205 21.1408H110.207Z" fill="white"/>
<path d="M23.8987 21.1408L25.7501 18.0214C25.9808 17.6311 26.5487 17.637 26.7735 18.0303L28.5421 21.1408L32.1859 21.9332C32.5674 22.016 32.7153 22.4802 32.4521 22.767L29.9115 25.567L30.3048 29.1122C30.3551 29.5764 29.8878 29.9223 29.459 29.739L26.1612 28.3287L22.76 29.8218C22.4258 29.9697 22.0531 29.7006 22.0886 29.3369L22.4435 25.567L20.0272 22.9474C19.7491 22.6458 19.8941 22.155 20.2933 22.0515L23.8957 21.1408H23.8987Z" fill="white"/>
<path d="M39.8106 31.7733V15.1948H49.6298V16.8151H41.7951V22.1402H49.1063V23.7576H41.7951V30.1027H49.8635V31.7733H39.8076H39.8106Z" fill="white"/>
<path d="M54.4892 31.7733V15.1948H56.4737V30.1027H63.3147V31.7733H54.4862H54.4892Z" fill="white"/>
<path d="M67.1034 31.7733V15.1948H69.0879V31.7733H67.1034Z" fill="white"/>
<path d="M79.9275 16.8121V31.7733H77.943V16.8121H72.8234V15.1918H85.0205V16.8121H79.9275Z" fill="white"/>
<path d="M88.7826 31.7733V15.1948H98.6018V16.8151H90.7671V22.1402H98.0783V23.7575H90.7671V30.1027H98.8385V31.7733H88.7826Z" fill="white"/>
<path d="M134.279 85.6897L128.009 67.0415L137.725 50.3506C138.618 48.816 137.704 46.8646 135.954 46.5659C121.035 44.0349 96.9308 42.391 69.7297 42.391C42.5286 42.391 17.6729 44.0882 2.81388 46.6842C1.06889 46.9887 0.163864 48.9372 1.0541 50.4659L10.6989 67.0415L4.39028 85.8021C3.78693 87.5998 5.29236 89.4004 7.17044 89.1254C22.2128 86.9256 44.6522 85.5271 69.7238 85.5271C94.7955 85.5271 116.481 86.8783 131.514 89.0131C133.383 89.2792 134.877 87.4785 134.274 85.6867L134.279 85.6897Z" fill="#F68F1E"/>
<path d="M32.4609 60.1286C31.3784 59.2977 29.3376 58.5349 27.776 58.6502C26.1848 58.7655 25.4218 59.2918 25.4928 60.2498C25.5637 61.2373 26.661 61.5153 27.1963 61.669C27.7346 61.8494 29.8966 62.3816 30.4586 62.5354C30.9377 62.6921 31.9285 63.0084 32.7714 63.6353C33.6143 64.2355 34.5135 65.2171 34.6525 67.1095C34.7915 69.0018 34.0373 70.3796 33.0287 71.3347C32.0468 72.2601 30.6183 73.0821 28.0954 73.2654C25.543 73.4517 22.8398 72.6563 21.1658 71.2873L22.9108 67.9906C24.079 68.8717 26.1848 69.7646 27.8855 69.6404C29.6127 69.5133 30.4231 68.9042 30.3521 67.9166C30.2782 66.9025 29.1247 66.6009 28.5066 66.4235C27.8884 66.249 26.0872 65.773 25.6377 65.6399C25.2443 65.5305 24.0879 65.2024 23.1592 64.5519C22.2601 63.928 21.3817 62.8606 21.2427 60.9683C21.1037 59.076 22.0471 57.6301 23.035 56.8111C24.0258 56.0216 25.2236 55.4096 27.5542 55.241C30.2989 55.04 32.7773 56.1281 33.916 57.0121L32.4609 60.1226V60.1286Z" fill="white"/>
<path d="M36.6784 72.4168L35.9065 54.972L47.6689 54.4516L47.8168 57.8311L40.3961 58.1593L40.544 61.4827L47.4412 61.1782L47.592 64.611L40.6949 64.9155L40.8634 68.7327L48.5591 68.3927L48.7129 71.8816L36.6784 72.4138V72.4168Z" fill="white"/>
<path d="M60.289 71.6422L56.5624 65.3058L54.8027 65.3413L54.9269 71.7486L50.5822 71.8314L50.245 54.3718L57.148 54.2387C58.9906 54.2032 60.6469 54.4723 61.8181 55.3031C63.0159 56.134 63.9239 57.5444 63.9624 59.4692C64.0067 61.7518 62.939 63.5318 60.7593 64.4809L65.243 71.5446L60.292 71.6392L60.289 71.6422ZM58.7304 57.976C58.2276 57.6567 57.6479 57.5296 56.8789 57.5444L54.6518 57.5887L54.7406 62.1244L56.9676 62.08C57.7366 62.0652 58.3133 61.9174 58.8013 61.5774C59.2894 61.1841 59.6058 60.5455 59.591 59.7471C59.5762 58.9784 59.2332 58.3516 58.7304 57.976Z" fill="white"/>
<path d="M74.9026 71.5978L69.9515 71.5771L64.2996 54.0938L68.8927 54.1116L72.6104 66.9143L76.4287 54.1411L80.6936 54.1589L74.9026 71.5978Z" fill="white"/>
<path d="M81.6696 71.6865L82.0452 54.2298L86.4165 54.3244L86.0409 71.7811L81.6696 71.6865Z" fill="white"/>
<path d="M103.189 69.7055C103.189 69.7055 101.202 72.5972 96.4458 72.405C91.6899 72.2128 87.9693 68.9515 88.2088 63.0469C88.4484 57.1422 92.8049 54.2328 97.2828 54.4131C101.764 54.5935 103.597 57.5296 103.65 57.6153L101.388 60.442C101.388 60.442 100.098 58.2983 97.404 58.1889C94.7392 58.0825 92.7902 59.9837 92.663 63.1444C92.5358 66.3052 94.266 68.4104 96.9604 68.5198C99.6548 68.6292 101.196 66.5979 101.196 66.5979L103.189 69.7055Z" fill="white"/>
<path d="M104.295 72.4907L105.514 55.0725L117.258 55.8945L117.022 59.2681L109.613 58.7507L109.379 62.0711L116.268 62.5531L116.028 65.9829L109.14 65.501L108.874 69.3152L116.557 69.8533L116.315 73.3364L104.298 72.4967L104.295 72.4907Z" fill="white"/>
</g>
<defs>
<clipPath id="clip0_358_93">
<rect width="137.363" height="134.169" fill="white" transform="translate(0.708008)"/>
</clipPath>
</defs>
</svg>
