<svg width="68" height="68" viewBox="0 0 68 68" fill="none" xmlns="http://www.w3.org/2000/svg">
<g clip-path="url(#clip0_358_528)">
<path d="M55.8035 7.74301C55.8035 6.15473 55.8035 4.60784 55.8035 3.05877C55.8035 2.73196 55.7904 2.40515 55.8101 2.07834C55.8647 1.1916 56.4125 0.631674 57.1721 0.664355C57.9032 0.697036 58.4031 1.23736 58.4096 2.10667C58.4271 4.58605 58.4183 7.06325 58.4183 9.54263C58.4183 12.1135 58.3223 12.2094 55.7577 12.2094C53.3874 12.2094 51.017 12.2355 48.6467 12.1876C48.1709 12.1789 47.5685 12.022 47.2651 11.7039C47.001 11.4272 46.8875 10.7279 47.0577 10.3945C47.2476 10.0241 47.8216 9.66247 48.2494 9.63414C49.714 9.54046 51.1895 9.5971 52.6606 9.59492C52.9203 9.59492 53.1778 9.59492 53.4987 9.40755C52.8723 8.95002 52.2611 8.47506 51.6194 8.03932C32.9797 -4.63865 7.25737 6.07629 3.13874 28.2317C-0.058823 45.4349 11.4284 61.9495 28.6516 64.9104C45.9773 67.8887 62.3536 56.1302 65.0165 38.7702C65.2434 37.2952 65.2893 35.7897 65.381 34.2972C65.4442 33.2754 65.9135 32.6785 66.7298 32.7002C67.5418 32.7198 68.0045 33.3234 68.0023 34.3604C67.9936 49.8577 56.8861 63.6446 41.5902 67.1414C23.6686 71.2374 5.72516 60.3351 1.09797 42.5393C-3.79113 23.7457 8.16753 4.45968 27.1259 0.721002C37.4258 -1.30956 46.7893 0.954125 55.1204 7.37263C55.271 7.4881 55.4238 7.6014 55.5787 7.71251C55.5962 7.72558 55.6289 7.72123 55.8035 7.74301Z" fill="#2E83A0"/>
<path d="M18.0417 38.8356C19.2028 38.8356 20.3662 38.8182 21.5273 38.8422C22.3829 38.8596 22.874 39.2953 22.9373 40.0143C23.005 40.7812 22.5204 41.4087 21.691 41.4218C19.3251 41.461 16.9547 41.4762 14.5909 41.3978C14.185 41.3847 13.6677 40.9512 13.4319 40.5699C13.0958 40.0252 13.4101 39.4849 13.8488 39.047C15.7193 37.1863 17.603 35.3366 19.4342 33.4367C19.8271 33.0293 20.1676 32.4629 20.2745 31.9182C20.5124 30.7003 19.6721 29.661 18.4455 29.4671C17.3061 29.2863 16.2279 30.0532 15.9813 31.2253C15.9529 31.3583 15.9354 31.4933 15.9114 31.6284C15.7564 32.5478 15.2348 33.0075 14.4556 32.916C13.6873 32.8267 13.253 32.2145 13.3206 31.3147C13.4734 29.2384 14.8965 27.5106 16.8652 27.0139C18.9584 26.4845 21.0995 27.3015 22.2127 29.0553C23.3302 30.8136 23.2058 33.1731 21.8023 34.7483C20.735 35.9445 19.5608 37.0447 18.4214 38.1776C18.2708 38.328 18.0482 38.4064 17.8583 38.5175C17.9194 38.6265 17.9806 38.7332 18.0395 38.8422L18.0417 38.8356Z" fill="#2E83A0"/>
<path d="M31.7223 35.4719C33.3004 35.7682 33.7151 36.0841 33.6889 36.9229C33.6627 37.74 33.224 38.0515 31.7202 38.2781C31.7202 38.8598 31.7354 39.4546 31.7158 40.0472C31.6896 40.8795 31.168 41.422 30.4237 41.4263C29.6816 41.4307 29.1468 40.8882 29.1119 40.0559C29.0879 39.4655 29.1075 38.8729 29.1075 38.1975C27.7499 38.1975 26.4796 38.1888 25.2094 38.2018C24.5306 38.2084 23.891 38.1539 23.5222 37.4698C23.1664 36.8075 23.4982 36.278 23.8518 35.7399C25.6 33.0862 27.3462 30.4304 29.0792 27.7658C29.4939 27.1274 29.9653 26.6198 30.7991 26.8812C31.6263 27.1405 31.7333 27.8224 31.7267 28.585C31.7071 30.8683 31.7202 33.1494 31.7202 35.4741L31.7223 35.4719ZM29.0333 35.5503V32.6112C28.3458 33.6701 27.7652 34.5612 27.1235 35.5503H29.0333Z" fill="#2E83A0"/>
<path d="M50.659 29.4255C48.9456 29.4255 47.4483 29.4321 45.951 29.4255C44.9514 29.419 44.3271 28.8852 44.3533 28.0791C44.3795 27.3013 44.9754 26.8154 45.9445 26.8133C48.341 26.8067 50.7375 26.8198 53.1341 26.8067C53.7605 26.8024 54.28 26.9745 54.555 27.5584C54.8474 28.1793 54.6357 28.7066 54.1796 29.1859C51.8485 31.6348 50.7528 34.5608 50.8336 37.9356C50.851 38.6437 50.8554 39.3518 50.8292 40.0599C50.7987 40.8921 50.2595 41.4325 49.5131 41.4259C48.7688 41.4194 48.2581 40.8747 48.221 40.0381C48.0616 36.343 48.3781 32.7503 50.6568 29.4255H50.659Z" fill="#2E83A0"/>
<path d="M43.8558 24.8591C43.7139 25.3297 43.6506 25.5933 43.5589 25.846C41.4221 31.7177 39.2941 37.5915 37.1245 43.4501C36.963 43.888 36.5811 44.3956 36.1795 44.5482C35.8259 44.6832 35.2191 44.4806 34.8677 44.2279C34.381 43.8771 34.4268 43.2976 34.632 42.7376C35.7538 39.6765 36.8561 36.6089 37.9714 33.5456C39.03 30.6349 40.0907 27.7263 41.1624 24.822C41.4985 23.9113 42.2057 23.5017 42.9129 23.8852C43.3145 24.1031 43.5851 24.5671 43.8558 24.8591Z" fill="#2E83A0"/>
</g>
<defs>
<clipPath id="clip0_358_528">
<rect width="68" height="68" fill="white"/>
</clipPath>
</defs>
</svg>
