<svg width="39" height="44" viewBox="0 0 39 44" fill="none" xmlns="http://www.w3.org/2000/svg">
<g clip-path="url(#clip0_358_28)">
<path d="M11.2142 39.0565C11.9072 40.8037 11.5547 41.7877 9.95896 42.6655C9.32601 43.0132 8.70107 43.3748 8.06144 43.7088C6.88634 44.3216 5.64047 43.9531 5.01152 42.7607C3.41846 39.7383 1.84275 36.7062 0.283074 33.6659C-0.325842 32.4776 0.0801022 31.1804 1.22048 30.5248C1.96293 30.0984 2.7134 29.683 3.46653 29.2786C4.62294 28.6589 5.82341 28.975 6.5071 30.1177C6.70741 30.4517 6.90771 30.3785 7.1721 30.3192C9.59709 29.7672 12.0261 29.24 14.4457 28.6645C15.6996 28.3664 16.9121 28.5761 18.0992 28.9253C20.5162 29.6374 22.9331 30.3592 25.3127 31.1886C26.9819 31.771 27.1208 32.007 27.9033 33.5776C29.7981 32.6943 31.6957 31.8097 33.5919 30.925C34.1847 30.649 34.7763 30.3716 35.3692 30.0984C37.2841 29.2137 39.0107 30.3661 39 32.5301C38.9933 33.8122 38.578 34.8473 37.455 35.569C33.7828 37.929 30.0051 40.0626 25.9537 41.6677C24.3192 42.3149 22.7115 42.2915 21.0476 41.8912C18.7348 41.3351 16.4848 40.6064 14.3522 39.512C13.3708 39.0082 12.3372 38.8123 11.2128 39.0551L11.2142 39.0565ZM10.3796 37.4874C12.006 37.094 13.5337 37.2003 14.9772 37.9414C17.0349 38.9986 19.2022 39.7093 21.4322 40.2503C22.833 40.5898 24.175 40.5788 25.5451 40.0226C29.3949 38.4617 33.003 36.4344 36.5056 34.1862C37.1679 33.7611 37.3669 33.1898 37.3482 32.4569C37.3268 31.593 36.8514 31.2618 36.0929 31.6137C33.3875 32.8696 30.6848 34.1324 27.9861 35.4048C27.8178 35.4835 27.6536 35.6339 27.5534 35.7954C26.7095 37.1534 25.3915 37.6419 23.916 37.1106C22.5312 36.611 21.1518 36.099 19.7697 35.5939C18.839 35.2544 17.939 35.3124 17.063 35.7981C16.4834 36.1183 16.0094 36.019 15.769 35.547C15.5273 35.0708 15.7116 34.6223 16.3032 34.2952C17.6145 33.5707 18.9699 33.492 20.3653 34.0095C21.7607 34.5271 23.1548 35.0488 24.5583 35.5428C25.3688 35.8285 26.1553 35.3248 26.2822 34.4843C26.3717 33.8909 26.0378 33.3388 25.3795 33.0407C23.0346 31.9794 20.5749 31.2894 18.0979 30.6587C16.8453 30.3399 15.6021 30.0625 14.3002 30.3882C13.053 30.7001 11.7897 30.9388 10.5372 31.2273C9.55035 31.455 8.57021 31.7089 7.51929 31.9684C8.48875 33.8398 9.42616 35.6519 10.3783 37.4888L10.3796 37.4874ZM4.6897 30.598C4.44534 30.6946 4.31714 30.7305 4.20097 30.7939C3.49457 31.1817 2.78951 31.5695 2.08979 31.9698C1.62509 32.2347 1.53963 32.5066 1.788 32.9869C3.31831 35.943 4.85395 38.8964 6.3936 41.8485C6.64999 42.3384 6.90637 42.4212 7.37908 42.1686C8.08949 41.7905 8.79455 41.4013 9.49426 41.0011C9.95229 40.7389 10.0311 40.4587 9.78804 39.9757C9.52765 39.4568 9.24322 38.9516 8.97615 38.4369C7.72761 36.03 6.48707 33.6204 5.22785 31.2204C5.09965 30.9761 4.86063 30.7926 4.6897 30.5993V30.598Z" fill="#2E83A0"/>
<path d="M30.5206 11.4189C30.5206 16.5666 27.0233 21.1664 22.1627 22.3781C21.8088 22.4665 21.6339 22.6279 21.499 22.9647C21.029 24.1419 20.3426 25.1714 19.4185 26.0243C18.6681 26.7158 17.8108 26.8414 17.0269 26.3804C16.2484 25.9222 15.9079 25.0748 16.0895 24.0812C16.1763 23.6092 16.2257 23.1289 16.3219 22.6583C16.398 22.2857 16.1937 22.2001 15.9159 22.098C12.8259 20.9594 10.6079 18.8368 9.3367 15.722C6.49509 8.76357 11.0032 0.88464 18.2648 0.0703875C24.8601 -0.66934 30.5192 4.56948 30.5206 11.4189ZM19.3745 1.66991C19.2169 1.68095 18.9351 1.70165 18.652 1.72373C13.3628 2.13086 9.30599 7.44558 10.2367 12.821C10.9511 16.9447 13.3174 19.5779 17.2166 20.74C17.8295 20.9235 18.0418 21.1512 17.9964 21.8013C17.939 22.6224 17.8028 23.4367 17.7307 24.2578C17.712 24.4676 17.8108 24.6884 17.8548 24.9037C18.0405 24.8292 18.2675 24.8002 18.4063 24.6719C19.2663 23.8686 19.8458 22.8681 20.201 21.7378C20.3653 21.2147 20.6697 20.9553 21.1892 20.8628C25.8322 20.032 29.3802 15.4391 28.8314 10.1892C28.3386 5.47482 24.2258 1.66715 19.3758 1.67129L19.3745 1.66991Z" fill="#2E83A0"/>
<path d="M19.5588 7.72712C20.8421 7.72712 22.1254 7.72436 23.4086 7.72712C24.0736 7.7285 24.4302 8.03626 24.4208 8.58415C24.4115 9.10997 24.0669 9.40669 23.4246 9.40669C20.8087 9.41083 18.1928 9.41083 15.5755 9.40669C14.9385 9.40669 14.594 9.10307 14.5887 8.57449C14.5833 8.02522 14.9372 7.7285 15.6089 7.72712C16.9255 7.72436 18.2422 7.72712 19.5588 7.72712Z" fill="#2E83A0"/>
<path d="M19.4827 14.9726C18.1661 14.9726 16.8494 14.9753 15.5341 14.9712C14.9386 14.9684 14.598 14.6662 14.59 14.1528C14.5807 13.6284 14.9145 13.3027 15.5021 13.3013C18.1848 13.2958 20.8675 13.3013 23.5502 13.2985C23.9668 13.2985 24.2673 13.4821 24.3874 13.892C24.4996 14.2729 24.3968 14.6275 24.0523 14.829C23.876 14.9312 23.6423 14.9657 23.434 14.967C22.1174 14.9795 20.8007 14.9726 19.4854 14.9726H19.4827Z" fill="#2E83A0"/>
</g>
<defs>
<clipPath id="clip0_358_28">
<rect width="39" height="44" fill="white"/>
</clipPath>
</defs>
</svg>
