<svg width="36" height="28" viewBox="0 0 36 28" fill="none" xmlns="http://www.w3.org/2000/svg">
<path fill-rule="evenodd" clip-rule="evenodd" d="M35.6312 19.4305C35.3861 18.6822 34.9609 17.9966 34.3693 17.3766C33.7495 16.7286 32.9351 16.2271 31.9252 15.8646C30.9143 15.5049 29.6163 15.3226 28.0168 15.3226H25.8461C26.1049 12.6747 27.0564 10.4212 28.7027 8.55818C30.3461 6.70096 32.6248 5.0665 35.5378 3.66443L33.7709 0.950928C29.9355 2.56996 26.6536 4.93825 23.9274 8.06639C21.2021 11.1974 19.8448 14.2995 19.8448 17.3766C19.8448 20.6821 20.6319 23.2751 22.2188 25.1468C23.8057 27.0185 26.0786 27.9509 29.0335 27.9509C30.9084 27.9509 32.5372 27.3309 33.9227 26.0918C35.3063 24.8546 36 23.4053 36 21.7525C36 20.955 35.8784 20.1788 35.6312 19.4305ZM15.7865 19.4305C15.5394 18.6822 15.1151 17.9966 14.5226 17.3766C13.9048 16.7286 13.0894 16.2271 12.0785 15.8646C11.0695 15.5049 9.77158 15.3226 8.17104 15.3226H5.99937C6.25915 12.6747 7.20974 10.4212 8.85504 8.55818C10.4994 6.70096 12.78 5.0665 15.6911 3.66443L13.9252 0.950928C10.0888 2.56996 6.80887 4.93825 4.08163 8.06639C1.35633 11.1974 0 14.2995 0 17.3766C0 20.6821 0.785185 23.2751 2.37308 25.1468C3.95805 27.0185 6.23094 27.9509 9.18781 27.9509C11.0618 27.9509 12.6924 27.3309 14.0779 26.0918C15.4615 24.8546 16.1543 23.4053 16.1543 21.7525C16.1543 20.955 16.0307 20.1788 15.7865 19.4305Z" fill="white"/>
</svg>
