<svg width="59" height="71" viewBox="0 0 59 71" fill="none" xmlns="http://www.w3.org/2000/svg">
<g clip-path="url(#clip0_358_520)">
<path d="M12.0127 70.1622C10.6865 69.7174 9.67584 68.9486 9.36572 67.4971C9.29092 67.1439 9.28363 66.7723 9.2818 66.4099C9.2745 64.5868 9.27815 62.7656 9.27815 60.8528C8.46089 60.8528 7.6947 60.8528 6.93034 60.8528C5.7464 60.8528 4.56246 60.8657 3.38034 60.8492C1.49771 60.8236 0.0674974 59.4032 0.00364851 57.5179C-0.00182425 57.3806 0.00182425 57.2433 0.00182425 57.1061C0 39.3221 0 21.5344 0 3.74862C0 1.7956 0.994218 0.444783 2.70902 0.0787064C3.01732 0.0128127 3.34203 0.00366076 3.65763 0.00366076C17.7919 0 31.9244 0 46.0587 0C48.3318 0 49.7127 1.38926 49.7182 3.66808C49.7219 5.51494 49.7182 7.36179 49.7182 9.30566C50.001 9.30566 50.2418 9.30566 50.4826 9.30566C52.1664 9.30566 53.8501 9.2965 55.5357 9.30749C57.5351 9.32213 58.9909 10.7553 58.9909 12.7632C59 26.2568 59.0146 39.7504 58.9745 53.2439C58.9672 55.4441 58.0933 57.4117 56.5135 58.9456C53.4233 61.9456 50.2746 64.887 47.1241 67.8248C45.8417 69.02 44.26 69.6478 42.5671 70.0212C42.4413 70.0487 42.3227 70.1127 42.2023 70.1603H12.0127V70.1622ZM42.1384 67.5557C42.1384 67.2006 42.1384 66.9315 42.1384 66.6625C42.1384 64.1054 42.1238 61.5484 42.1421 58.9913C42.164 56.0353 44.0959 54.1225 47.0384 54.1152C49.7237 54.1097 52.409 54.1152 55.0961 54.1152C55.9961 54.1152 56.4473 53.6631 56.4497 52.7589C56.4497 39.5856 56.4497 26.4106 56.4497 13.2373C56.4497 12.0146 56.2563 11.8224 55.0158 11.8224C41.0877 11.8224 27.1577 11.8224 13.2295 11.8224C12.0036 11.8224 11.7974 12.0293 11.7974 13.2501C11.7974 30.8987 11.7974 48.549 11.7974 66.1976C11.7974 67.4514 11.9653 67.6198 13.2167 67.6198C22.411 67.6198 31.607 67.6198 40.8013 67.6179C41.2081 67.6179 41.6149 67.5813 42.1384 67.5575V67.5557ZM47.1989 9.30932V8.51127C47.1989 7.00487 47.1989 5.49663 47.1989 3.99023C47.1989 2.70164 47.0402 2.54606 45.7322 2.54606C31.8241 2.54606 17.9178 2.54606 4.00971 2.54606C2.65976 2.54606 2.54301 2.66503 2.54301 4.0488C2.54301 21.6314 2.54301 39.2141 2.54301 56.7967C2.54301 56.9102 2.54301 57.0255 2.54301 57.139C2.55395 58.0853 2.80753 58.3397 3.7762 58.3434C5.41438 58.3489 7.05439 58.347 8.69257 58.3434C8.8677 58.3434 9.04465 58.3141 9.27633 58.294C9.27633 57.9682 9.27633 57.6753 9.27633 57.3824C9.27633 42.6552 9.30369 27.9261 9.24714 13.1989C9.23802 10.867 10.8324 9.26905 13.12 9.28186C24.1823 9.34775 35.2446 9.31115 46.3068 9.31115H47.1971L47.1989 9.30932ZM55.2183 56.7125C54.9538 56.6594 54.8918 56.6338 54.8279 56.6338C52.1645 56.632 49.5011 56.6155 46.8395 56.6375C45.5443 56.6485 44.6723 57.5582 44.6668 58.8632C44.6559 61.261 44.6632 63.6588 44.6668 66.0566C44.6668 66.1774 44.696 66.3001 44.7343 66.6131C48.2734 63.2708 51.6939 60.042 55.2201 56.7125H55.2183Z" fill="#2E83A0"/>
<path d="M34.1427 23.6813C30.2534 23.6813 26.3641 23.6813 22.4748 23.6813C22.2468 23.6813 22.0169 23.6905 21.7944 23.6575C21.1249 23.5569 20.6542 23.0334 20.6487 22.411C20.6433 21.7649 21.1431 21.2231 21.84 21.1371C22.0425 21.1115 22.2486 21.1225 22.4529 21.1225C30.2315 21.1225 38.0101 21.1225 45.7888 21.1225C46.98 21.1225 47.6039 21.5581 47.6112 22.3909C47.6185 23.2292 46.9891 23.6832 45.8088 23.6832C41.9195 23.6832 38.0302 23.6832 34.1409 23.6832L34.1427 23.6813Z" fill="#2E83A0"/>
<path d="M34.1226 40.5668C30.1202 40.5668 26.1178 40.5686 22.1154 40.565C21.1449 40.565 20.5046 39.9097 20.6797 39.0952C20.8074 38.5021 21.1686 38.1269 21.7962 38.0683C22.0224 38.0464 22.2504 38.05 22.4784 38.05C30.257 38.05 38.0338 38.05 45.8125 38.05C47.0274 38.05 47.6239 38.471 47.613 39.3185C47.6021 40.166 47.0165 40.5668 45.7906 40.5668C41.9013 40.5668 38.0119 40.5668 34.1245 40.5668H34.1226Z" fill="#2E83A0"/>
<path d="M34.1536 32.1122C30.2643 32.1122 26.375 32.1122 22.4857 32.1122C22.2358 32.1122 21.984 32.1196 21.7359 32.0866C21.1175 32.0042 20.6596 31.4844 20.6487 30.8749C20.6359 30.2489 21.123 29.6888 21.7615 29.6083C21.9184 29.5881 22.0789 29.5973 22.2394 29.5973C30.1768 29.5973 38.1141 29.5973 46.0514 29.5973C46.9088 29.5973 47.3649 29.8755 47.5473 30.4978C47.7626 31.2337 47.3211 31.9603 46.5677 32.0811C46.3232 32.1196 46.0697 32.1122 45.8197 32.1122C41.9304 32.1122 38.0411 32.1122 34.1518 32.1122H34.1536Z" fill="#2E83A0"/>
<path d="M28.6097 49.0416C26.541 49.0416 24.4705 49.0416 22.4018 49.0416C22.1756 49.0416 21.9439 49.0471 21.7232 49.0068C21.092 48.8878 20.6524 48.3698 20.6487 47.7695C20.6451 47.1728 21.0829 46.6474 21.7104 46.523C21.9093 46.4845 22.1172 46.4845 22.3215 46.4845C26.5502 46.4827 30.7806 46.4809 35.0092 46.4845C35.2573 46.4845 35.5127 46.4992 35.7499 46.5669C36.3172 46.728 36.6219 47.1288 36.6383 47.72C36.6547 48.3405 36.3555 48.7725 35.7626 48.9519C35.5072 49.0288 35.2263 49.0379 34.9563 49.0397C32.842 49.0471 30.7277 49.0434 28.6116 49.0434L28.6097 49.0416Z" fill="#2E83A0"/>
</g>
<defs>
<clipPath id="clip0_358_520">
<rect width="59" height="70.1622" fill="white"/>
</clipPath>
</defs>
</svg>
