<svg width="22" height="22" viewBox="0 0 22 22" fill="none" xmlns="http://www.w3.org/2000/svg">
<path d="M10.875 0C8.72413 0 6.62156 0.637807 4.83318 1.83277C3.04479 3.02773 1.65092 4.72617 0.827815 6.71332C0.004712 8.70046 -0.210649 10.8871 0.208965 12.9966C0.628579 15.1061 1.66432 17.0439 3.18522 18.5648C4.70611 20.0857 6.64385 21.1214 8.7534 21.541C10.8629 21.9606 13.0495 21.7453 15.0367 20.9222C17.0238 20.0991 18.7223 18.7052 19.9172 16.9168C21.1122 15.1284 21.75 13.0259 21.75 10.875C21.75 7.99077 20.6042 5.22467 18.5648 3.18521C16.5253 1.14576 13.7592 0 10.875 0ZM16.5172 8.60806L9.5967 15.5285C9.4113 15.7139 9.15988 15.818 8.89773 15.818C8.63558 15.818 8.38416 15.7139 8.19877 15.5285L5.23286 12.5626C5.05277 12.3761 4.95312 12.1264 4.95537 11.8672C4.95762 11.608 5.0616 11.36 5.2449 11.1767C5.4282 10.9934 5.67616 10.8894 5.93538 10.8872C6.1946 10.8849 6.44433 10.9846 6.63079 11.1647L8.89773 13.4316L15.1192 7.21012C15.3057 7.03004 15.5554 6.93039 15.8146 6.93264C16.0738 6.93489 16.3218 7.03887 16.5051 7.22217C16.6884 7.40547 16.7924 7.65343 16.7946 7.91265C16.7969 8.17187 16.6972 8.4216 16.5172 8.60806Z" fill="#2E83A0"/>
</svg>
